<?xml version="1.0" encoding="utf-8"?>
<!-- Generator: Adobe Illustrator 16.0.0, SVG Export Plug-In . SVG Version: 6.00 Build 0)  -->
<!DOCTYPE svg PUBLIC "-//W3C//DTD SVG 1.1//EN" "http://www.w3.org/Graphics/SVG/1.1/DTD/svg11.dtd">
<svg version="1.1" id="Layer_1" xmlns="http://www.w3.org/2000/svg" xmlns:xlink="http://www.w3.org/1999/xlink" x="0px" y="0px"
	 width="394.125px" height="122.532px" viewBox="0 0 394.125 122.532" enable-background="new 0 0 394.125 122.532"
	 xml:space="preserve">
<g>
	<g>
		<g>
			<g>
				<path fill="#41555D" d="M29.431,114.292c0.392-0.026,0.714-0.222,0.954-0.58c0.159-0.226,0.378-0.722,0.667-1.496l3.659-9.752
					h0.458l3.68,9.365c0.41,1.046,0.717,1.726,0.922,2.023c0.205,0.31,0.491,0.451,0.865,0.439v0.455h-5.326v-0.455
					c0.533-0.022,0.883-0.073,1.053-0.149c0.168-0.072,0.254-0.266,0.254-0.57c0-0.141-0.046-0.351-0.131-0.638
					c-0.053-0.164-0.124-0.371-0.215-0.609l-0.417-1.074h-3.702c-0.243,0.708-0.392,1.164-0.462,1.387
					c-0.152,0.449-0.22,0.784-0.22,0.991c0,0.261,0.151,0.444,0.469,0.56c0.187,0.064,0.47,0.098,0.85,0.102v0.456h-3.362v-0.454
					H29.431z M35.612,110.545l-1.589-4.124h-0.131l-1.491,4.124H35.612z"/>
			</g>
			<g>
				<path fill="#41555D" d="M43.046,114.319c0.307-0.037,0.516-0.111,0.625-0.207c0.184-0.156,0.275-0.446,0.275-0.865v-5.242
					c0-0.377-0.056-0.626-0.185-0.763c-0.127-0.134-0.359-0.223-0.716-0.271v-0.425h3.126v1.276
					c0.275-0.388,0.544-0.688,0.794-0.906c0.481-0.39,1.013-0.58,1.592-0.58c0.665,0,1.177,0.167,1.536,0.5
					c0.208,0.194,0.4,0.508,0.587,0.94h0.109c0.308-0.41,0.608-0.716,0.894-0.929c0.448-0.345,0.936-0.512,1.472-0.512
					c0.572,0,1.084,0.198,1.529,0.597c0.442,0.4,0.66,1.039,0.66,1.898v4.479c0,0.414,0.067,0.675,0.191,0.788
					c0.121,0.115,0.336,0.191,0.653,0.223v0.426h-3.914v-0.426c0.301-0.049,0.509-0.123,0.626-0.238
					c0.123-0.114,0.179-0.37,0.179-0.772v-4.315c0-0.458-0.06-0.818-0.19-1.078c-0.127-0.251-0.367-0.382-0.721-0.382
					c-0.282,0-0.58,0.138-0.897,0.424c-0.311,0.278-0.47,0.478-0.47,0.584v4.767c0,0.392,0.053,0.644,0.16,0.75
					c0.105,0.105,0.311,0.199,0.604,0.261v0.427h-3.853v-0.427c0.29-0.039,0.499-0.116,0.618-0.229
					c0.128-0.115,0.191-0.375,0.191-0.781v-4.314c0-0.451-0.064-0.811-0.18-1.068c-0.113-0.257-0.361-0.391-0.735-0.391
					c-0.333,0-0.653,0.153-0.936,0.446c-0.29,0.303-0.435,0.489-0.435,0.563v4.767c0,0.392,0.05,0.644,0.148,0.75
					c0.106,0.105,0.311,0.198,0.608,0.26v0.427h-3.949v-0.428L43.046,114.319L43.046,114.319z"/>
			</g>
			<g>
				<path fill="#41555D" d="M58.563,117.989c0.364-0.042,0.603-0.125,0.731-0.263c0.13-0.138,0.195-0.39,0.195-0.768v-8.953
					c0-0.379-0.064-0.626-0.18-0.76c-0.12-0.129-0.351-0.222-0.699-0.275v-0.425h3.147v1.174c0.222-0.408,0.44-0.703,0.663-0.898
					c0.382-0.332,0.872-0.5,1.477-0.5c0.865,0,1.583,0.344,2.151,1.055c0.576,0.697,0.858,1.745,0.858,3.136
					c0,1.295-0.308,2.363-0.922,3.212c-0.61,0.848-1.364,1.275-2.247,1.275c-0.445,0-0.876-0.143-1.275-0.429
					c-0.212-0.146-0.435-0.363-0.662-0.643v1.506c0,0.802,0.008,1.251,0.011,1.348c0.039,0.467,0.148,0.792,0.333,0.959
					c0.19,0.179,0.498,0.282,0.932,0.313v0.358h-4.514V117.989z M64.295,112.73c0.11-0.469,0.173-1.145,0.173-2.031
					c0-1.013-0.089-1.825-0.261-2.437c-0.169-0.605-0.52-0.905-1.045-0.905c-0.353,0-0.667,0.163-0.947,0.5
					c-0.279,0.337-0.414,0.58-0.414,0.733v4.331c0,0.177,0.128,0.398,0.396,0.673c0.261,0.277,0.562,0.412,0.894,0.412
					C63.688,114.006,64.087,113.582,64.295,112.73z"/>
			</g>
			<g>
				<path fill="#41555D" d="M69.462,114.319c0.286-0.072,0.495-0.176,0.618-0.297c0.116-0.128,0.18-0.384,0.18-0.775v-9.074
					c0-0.381-0.06-0.633-0.169-0.755c-0.109-0.113-0.321-0.206-0.627-0.282v-0.43h3.125v10.538c0,0.394,0.05,0.649,0.173,0.769
					c0.119,0.127,0.324,0.229,0.622,0.307v0.428h-3.92L69.462,114.319L69.462,114.319z"/>
			</g>
			<g>
				<path fill="#41555D" d="M75.798,114.319c0.29-0.051,0.496-0.129,0.596-0.229c0.163-0.161,0.243-0.443,0.243-0.844v-5.242
					c0-0.362-0.054-0.607-0.174-0.741c-0.109-0.13-0.328-0.226-0.667-0.294v-0.425h3.165v6.766c0,0.391,0.05,0.643,0.159,0.749
					c0.109,0.105,0.31,0.199,0.604,0.261v0.427h-3.928v-0.427L75.798,114.319L75.798,114.319z M76.901,102.845
					c0.248-0.267,0.551-0.405,0.904-0.405c0.349,0,0.649,0.139,0.896,0.405c0.248,0.268,0.375,0.592,0.375,0.974
					c0,0.386-0.127,0.715-0.375,0.982c-0.247,0.27-0.547,0.404-0.896,0.404c-0.353,0-0.657-0.135-0.904-0.404
					c-0.251-0.269-0.375-0.598-0.375-0.982C76.526,103.437,76.65,103.113,76.901,102.845z"/>
			</g>
			<g>
				<path fill="#41555D" d="M83.364,111.172c0.709-0.465,1.836-0.94,3.356-1.416v-1.296c0-0.527-0.11-0.925-0.311-1.172
					c-0.208-0.249-0.569-0.379-1.095-0.379c-0.297,0-0.54,0.061-0.732,0.18c-0.191,0.118-0.283,0.268-0.283,0.446
					c0,0.069,0.007,0.13,0.028,0.176c0.02,0.046,0.056,0.095,0.096,0.146l0.099,0.125c0.074,0.097,0.138,0.203,0.18,0.325
					c0.046,0.122,0.066,0.245,0.066,0.376c0,0.335-0.102,0.6-0.311,0.781c-0.2,0.18-0.445,0.271-0.717,0.271
					c-0.318,0-0.59-0.099-0.813-0.302c-0.212-0.202-0.332-0.491-0.332-0.873c0-0.688,0.296-1.229,0.894-1.628
					c0.597-0.398,1.329-0.596,2.2-0.596c0.929,0,1.714,0.19,2.338,0.58c0.622,0.393,0.933,1.124,0.933,2.176v4.317
					c0,0.126,0.028,0.232,0.095,0.324c0.053,0.088,0.128,0.132,0.204,0.132c0.064,0,0.121-0.016,0.169-0.041
					c0.05-0.022,0.129-0.095,0.233-0.21l0.254,0.374c-0.321,0.405-0.678,0.688-1.074,0.85c-0.244,0.106-0.502,0.16-0.777,0.16
					c-0.484,0-0.845-0.153-1.07-0.459c-0.127-0.18-0.223-0.435-0.279-0.781c-0.453,0.494-0.975,0.845-1.547,1.048
					c-0.344,0.129-0.688,0.191-1.028,0.191c-0.448,0-0.873-0.154-1.265-0.467c-0.392-0.31-0.587-0.794-0.587-1.447
					C82.294,112.279,82.651,111.646,83.364,111.172z M86.235,113.468c0.128-0.104,0.283-0.268,0.457-0.493v-2.604
					c-0.435,0.119-0.82,0.302-1.158,0.55c-0.558,0.428-0.84,0.963-0.84,1.627c0,0.386,0.081,0.681,0.247,0.878
					c0.163,0.199,0.339,0.307,0.547,0.307C85.755,113.731,86.005,113.642,86.235,113.468z"/>
			</g>
			<g>
				<path fill="#41555D" d="M92.137,114.319c0.304-0.037,0.519-0.129,0.665-0.268c0.142-0.133,0.216-0.404,0.216-0.805v-5.242
					c0-0.362-0.056-0.613-0.177-0.752c-0.112-0.141-0.351-0.233-0.704-0.282v-0.425h3.125v1.276
					c0.259-0.426,0.594-0.784,0.997-1.066c0.405-0.278,0.854-0.42,1.349-0.42c0.709,0,1.258,0.198,1.646,0.592
					c0.389,0.393,0.58,1.089,0.58,2.083v4.299c0,0.402,0.066,0.657,0.19,0.781c0.13,0.114,0.339,0.191,0.637,0.229v0.428H96.79
					v-0.428c0.296-0.06,0.495-0.154,0.604-0.26c0.109-0.107,0.159-0.358,0.159-0.75v-4.315c0-0.403-0.038-0.703-0.117-0.908
					c-0.128-0.367-0.375-0.551-0.76-0.551c-0.286,0-0.543,0.111-0.784,0.332c-0.236,0.229-0.42,0.45-0.551,0.677v4.767
					c0,0.391,0.056,0.644,0.163,0.75c0.102,0.105,0.303,0.199,0.601,0.26v0.427h-3.967L92.137,114.319L92.137,114.319z"/>
			</g>
			<g>
				<path fill="#41555D" d="M104.143,107.555c0.625-0.815,1.37-1.219,2.236-1.219c0.431,0,0.819,0.114,1.159,0.347
					c0.205,0.139,0.468,0.386,0.784,0.745v-3.253c0-0.451-0.078-0.737-0.233-0.845c-0.166-0.11-0.498-0.172-1.003-0.194v-0.429h3.55
					v10.259c0,0.364,0.064,0.62,0.191,0.765c0.128,0.136,0.382,0.226,0.756,0.26v0.413c-0.922,0.095-1.515,0.167-1.786,0.222
					c-0.266,0.046-0.738,0.167-1.412,0.374v-1.173c-0.314,0.35-0.597,0.605-0.851,0.775c-0.409,0.269-0.847,0.398-1.32,0.398
					c-0.802,0-1.505-0.371-2.103-1.104c-0.593-0.737-0.893-1.739-0.893-3.003C103.214,109.484,103.525,108.378,104.143,107.555z
					 M107.905,113.478c0.283-0.345,0.417-0.579,0.417-0.726v-4.33c0-0.145-0.114-0.36-0.361-0.646
					c-0.237-0.285-0.562-0.42-0.961-0.42c-0.586,0-0.984,0.433-1.194,1.311c-0.116,0.473-0.169,1.133-0.169,1.994
					c0,0.916,0.053,1.604,0.159,2.069c0.205,0.84,0.583,1.261,1.148,1.261C107.3,113.991,107.619,113.823,107.905,113.478z"/>
			</g>
			<g>
				<path fill="#41555D" d="M115.142,107.559c0.71-0.827,1.592-1.238,2.657-1.238c1.091,0,1.988,0.421,2.677,1.269
					c0.692,0.849,1.042,1.875,1.042,3.078c0,1.188-0.343,2.216-1.028,3.067c-0.688,0.856-1.579,1.279-2.691,1.279
					c-1.067,0-1.958-0.412-2.66-1.244c-0.699-0.834-1.049-1.867-1.049-3.103C114.089,109.429,114.44,108.39,115.142,107.559z
					 M116.678,113.284c0.194,0.768,0.565,1.158,1.12,1.158c0.53,0,0.883-0.297,1.049-0.883c0.169-0.593,0.255-1.555,0.255-2.893
					c0-1.329-0.096-2.282-0.264-2.883c-0.173-0.592-0.519-0.891-1.028-0.891c-0.554,0-0.928,0.383-1.119,1.158
					c-0.121,0.512-0.185,1.391-0.185,2.617C116.505,111.913,116.565,112.792,116.678,113.284z"/>
			</g>
		</g>
		<g>
			<g>
				<path fill="#41555D" d="M140.159,104.088c1.134,1.208,1.695,2.753,1.695,4.659c0,1.901-0.562,3.456-1.695,4.656
					c-1.099,1.181-2.476,1.769-4.136,1.769c-1.751,0-3.182-0.646-4.295-1.933c-1.025-1.212-1.543-2.678-1.543-4.396
					c0-1.895,0.537-3.452,1.622-4.668c1.094-1.238,2.497-1.854,4.217-1.854C137.687,102.321,139.064,102.908,140.159,104.088z
					 M138.566,112.149c0.247-0.871,0.37-2,0.37-3.403c0-1.925-0.266-3.38-0.791-4.35c-0.519-0.983-1.226-1.468-2.123-1.468
					c-1.24,0-2.094,0.817-2.553,2.445c-0.243,0.863-0.359,1.985-0.359,3.373c0,1.406,0.12,2.54,0.37,3.403
					c0.448,1.607,1.304,2.411,2.542,2.411C137.252,114.56,138.101,113.758,138.566,112.149z"/>
			</g>
			<g>
				<path fill="#41555D" d="M144.503,118.101c0.351-0.043,0.593-0.13,0.716-0.268c0.131-0.138,0.194-0.404,0.194-0.78v-9.082
					c0-0.384-0.061-0.64-0.181-0.776c-0.123-0.129-0.353-0.226-0.699-0.278v-0.432h3.14v1.188c0.226-0.409,0.446-0.711,0.661-0.902
					c0.389-0.344,0.879-0.512,1.473-0.512c0.866,0,1.582,0.359,2.151,1.062c0.576,0.711,0.858,1.781,0.858,3.19
					c0,1.31-0.307,2.398-0.922,3.258c-0.61,0.864-1.36,1.299-2.232,1.299c-0.448,0-0.88-0.148-1.275-0.435
					c-0.22-0.153-0.442-0.366-0.671-0.653v1.529c0.002,0.813,0.01,1.271,0.014,1.371c0.036,0.473,0.149,0.798,0.336,0.978
					c0.184,0.176,0.495,0.276,0.928,0.313v0.366h-4.493L144.503,118.101L144.503,118.101z M150.214,112.76
					c0.112-0.474,0.169-1.162,0.169-2.054c0-1.041-0.088-1.864-0.257-2.481c-0.17-0.612-0.52-0.919-1.041-0.919
					c-0.354,0-0.667,0.167-0.947,0.513c-0.282,0.339-0.419,0.591-0.419,0.741v4.392c0,0.179,0.134,0.403,0.391,0.686
					c0.272,0.279,0.566,0.422,0.901,0.422C149.603,114.06,150.01,113.623,150.214,112.76z"/>
			</g>
			<g>
				<path fill="#41555D" d="M156.52,107.512c0.706-0.833,1.593-1.253,2.656-1.253c1.081,0,1.981,0.425,2.671,1.284
					c0.688,0.862,1.038,1.902,1.038,3.127c0,1.206-0.339,2.243-1.028,3.109c-0.685,0.871-1.582,1.303-2.68,1.303
					c-1.07,0-1.953-0.419-2.656-1.268c-0.699-0.845-1.056-1.891-1.056-3.145C155.463,109.415,155.821,108.36,156.52,107.512z
					 M158.056,113.327c0.19,0.785,0.565,1.172,1.12,1.172c0.526,0,0.876-0.295,1.045-0.902c0.166-0.6,0.241-1.569,0.241-2.926
					c0-1.348-0.077-2.326-0.255-2.932c-0.176-0.604-0.512-0.904-1.027-0.904c-0.555,0-0.93,0.394-1.12,1.172
					c-0.113,0.528-0.177,1.414-0.177,2.662C157.881,111.936,157.942,112.822,158.056,113.327z"/>
			</g>
			<g>
				<path fill="#41555D" d="M165.384,114.381c0.314-0.046,0.534-0.126,0.653-0.253c0.123-0.122,0.194-0.358,0.205-0.711l0.014-0.531
					v-4.916c0-0.382-0.06-0.642-0.179-0.774c-0.114-0.134-0.351-0.233-0.693-0.279v-0.432h3.113v1.425
					c0.346-0.504,0.695-0.902,1.038-1.199c0.342-0.29,0.741-0.435,1.19-0.435c0.339,0,0.639,0.118,0.916,0.358
					c0.275,0.229,0.402,0.584,0.402,1.039c0,0.355-0.096,0.648-0.283,0.879c-0.191,0.229-0.435,0.344-0.747,0.344
					c-0.349,0-0.646-0.176-0.907-0.536c-0.255-0.359-0.428-0.541-0.53-0.541c-0.223,0-0.445,0.145-0.664,0.443
					c-0.223,0.301-0.333,0.729-0.333,1.282v3.421c0,0.598,0.078,0.968,0.233,1.116s0.474,0.244,0.939,0.298v0.432h-4.369
					L165.384,114.381L165.384,114.381z"/>
			</g>
			<g>
				<path fill="#41555D" d="M174.405,107.283v-0.508c0.148-0.149,0.321-0.32,0.543-0.516c0.279-0.289,0.544-0.587,0.795-0.896
					c0.498-0.601,0.953-1.242,1.355-1.929h0.421v3.051h1.567v0.798h-1.567v5.431c0,0.258,0.034,0.468,0.105,0.639
					c0.103,0.265,0.283,0.401,0.53,0.401c0.212,0,0.392-0.088,0.537-0.252c0.145-0.171,0.29-0.397,0.435-0.694l0.391,0.213
					c-0.19,0.493-0.42,0.898-0.691,1.202c-0.466,0.548-1.039,0.829-1.72,0.829c-0.389,0-0.724-0.084-1.01-0.24
					c-0.554-0.309-0.836-0.866-0.836-1.668v-5.859L174.405,107.283L174.405,107.283z"/>
			</g>
			<g>
				<path fill="#41555D" d="M184.74,106.485v6.129c0,0.375,0.035,0.644,0.12,0.811c0.138,0.298,0.414,0.447,0.827,0.447
					c0.266,0,0.518-0.092,0.77-0.275c0.145-0.095,0.329-0.263,0.551-0.501v-5.125c0-0.382-0.078-0.648-0.212-0.797
					c-0.134-0.154-0.413-0.24-0.819-0.256v-0.433h3.271v6.514c0,0.377,0.071,0.633,0.202,0.778c0.12,0.142,0.375,0.229,0.749,0.268
					v0.412c-1.017,0.104-1.652,0.184-1.921,0.237c-0.266,0.05-0.689,0.167-1.268,0.374v-1.196c-0.396,0.37-0.721,0.632-0.976,0.783
					c-0.448,0.275-0.919,0.412-1.402,0.412c-0.533,0-1.021-0.187-1.483-0.557c-0.462-0.371-0.684-1.032-0.684-1.979v-4.561
					c0-0.391-0.054-0.643-0.169-0.765c-0.112-0.115-0.329-0.213-0.646-0.29v-0.432L184.74,106.485L184.74,106.485L184.74,106.485z"
					/>
			</g>
			<g>
				<path fill="#41555D" d="M192.545,114.381c0.296-0.046,0.523-0.134,0.661-0.275c0.141-0.137,0.216-0.412,0.216-0.821v-5.313
					c0-0.371-0.061-0.627-0.177-0.771c-0.116-0.139-0.35-0.238-0.7-0.283v-0.432h3.112v1.299c0.265-0.438,0.594-0.798,1.003-1.081
					c0.399-0.285,0.848-0.428,1.338-0.428c0.711,0,1.258,0.198,1.646,0.596c0.392,0.405,0.587,1.109,0.587,2.116v4.365
					c0,0.404,0.06,0.671,0.184,0.788c0.123,0.119,0.338,0.195,0.627,0.24v0.432h-3.857v-0.432c0.293-0.068,0.495-0.157,0.597-0.269
					c0.109-0.111,0.159-0.365,0.159-0.76v-4.38c0-0.408-0.032-0.718-0.11-0.92c-0.129-0.378-0.378-0.561-0.763-0.561
					c-0.283,0-0.544,0.114-0.785,0.343c-0.24,0.222-0.42,0.451-0.543,0.683v4.835c0,0.395,0.049,0.648,0.159,0.76
					c0.106,0.111,0.307,0.2,0.6,0.269v0.432h-3.956L192.545,114.381L192.545,114.381z"/>
			</g>
			<g>
				<path fill="#41555D" d="M203.445,114.381c0.295-0.06,0.491-0.136,0.595-0.24c0.162-0.162,0.247-0.447,0.247-0.856v-5.313
					c0-0.371-0.06-0.618-0.174-0.757c-0.111-0.129-0.333-0.229-0.667-0.297v-0.433h3.158v6.867c0,0.394,0.052,0.648,0.163,0.76
					c0.106,0.11,0.309,0.199,0.6,0.268v0.432h-3.921V114.381L203.445,114.381z M204.542,102.73c0.243-0.275,0.548-0.409,0.905-0.409
					c0.343,0,0.644,0.134,0.888,0.409c0.258,0.274,0.38,0.604,0.38,0.993c0,0.385-0.122,0.718-0.38,0.988
					c-0.244,0.279-0.544,0.418-0.888,0.418c-0.357,0-0.66-0.138-0.905-0.418c-0.25-0.271-0.373-0.604-0.373-0.988
					C204.169,103.334,204.292,103.005,204.542,102.73z"/>
			</g>
			<g>
				<path fill="#41555D" d="M210.855,107.512c0.619-0.828,1.357-1.237,2.229-1.237c0.432,0,0.817,0.119,1.155,0.351
					c0.206,0.146,0.47,0.394,0.783,0.757v-3.308c0-0.455-0.08-0.741-0.24-0.848c-0.166-0.106-0.495-0.176-0.993-0.197v-0.436h3.539
					v10.403c0,0.378,0.063,0.635,0.19,0.779c0.127,0.142,0.377,0.229,0.755,0.268v0.412c-0.922,0.1-1.515,0.172-1.786,0.222
					c-0.257,0.054-0.73,0.18-1.406,0.39v-1.197c-0.314,0.352-0.6,0.616-0.854,0.784c-0.402,0.275-0.844,0.412-1.312,0.412
					c-0.808,0-1.503-0.374-2.104-1.124c-0.586-0.745-0.886-1.764-0.886-3.047C209.926,109.468,210.234,108.342,210.855,107.512z
					 M214.599,113.524c0.281-0.347,0.423-0.593,0.423-0.734v-4.399c0-0.146-0.12-0.362-0.362-0.652
					c-0.238-0.286-0.558-0.432-0.954-0.432c-0.59,0-0.98,0.443-1.193,1.33c-0.109,0.481-0.167,1.157-0.167,2.024
					c0,0.932,0.049,1.634,0.16,2.1c0.202,0.855,0.58,1.282,1.141,1.282C214.004,114.043,214.32,113.867,214.599,113.524z"/>
			</g>
			<g>
				<path fill="#41555D" d="M221.897,111.183c0.708-0.477,1.825-0.957,3.345-1.44v-1.313c0-0.538-0.1-0.932-0.305-1.188
					c-0.215-0.257-0.575-0.386-1.098-0.386c-0.294,0-0.534,0.06-0.725,0.183c-0.19,0.115-0.29,0.271-0.29,0.452
					c0,0.068,0.015,0.133,0.037,0.179c0.021,0.047,0.049,0.095,0.095,0.149l0.095,0.122c0.077,0.1,0.134,0.215,0.184,0.332
					c0.038,0.118,0.071,0.248,0.071,0.387c0,0.335-0.109,0.604-0.311,0.786c-0.214,0.189-0.448,0.281-0.722,0.281
					c-0.319,0-0.58-0.106-0.802-0.309c-0.223-0.206-0.336-0.501-0.336-0.889c0-0.696,0.293-1.241,0.894-1.647
					c0.59-0.404,1.322-0.607,2.187-0.607c0.933,0,1.713,0.198,2.339,0.588c0.621,0.4,0.933,1.139,0.933,2.207v4.377
					c0,0.134,0.024,0.24,0.094,0.332c0.061,0.092,0.128,0.138,0.199,0.138c0.067,0,0.128-0.013,0.177-0.043
					c0.054-0.026,0.123-0.095,0.233-0.213l0.25,0.381c-0.321,0.408-0.678,0.699-1.063,0.864c-0.247,0.102-0.505,0.16-0.782,0.16
					c-0.487,0-0.844-0.16-1.065-0.474c-0.136-0.176-0.223-0.435-0.285-0.786c-0.448,0.503-0.965,0.856-1.537,1.061
					c-0.35,0.13-0.69,0.199-1.029,0.199c-0.451,0-0.868-0.16-1.257-0.474c-0.396-0.321-0.589-0.81-0.589-1.475
					C220.829,112.302,221.179,111.662,221.897,111.183z M224.761,113.512c0.131-0.11,0.282-0.273,0.462-0.493v-2.65
					c-0.441,0.119-0.825,0.302-1.158,0.559c-0.564,0.436-0.845,0.978-0.845,1.646c0,0.396,0.085,0.694,0.245,0.898
					c0.166,0.198,0.349,0.305,0.548,0.305C224.284,113.776,224.528,113.689,224.761,113.512z"/>
			</g>
			<g>
				<path fill="#41555D" d="M231.737,107.512c0.617-0.828,1.364-1.237,2.228-1.237c0.435,0,0.818,0.119,1.156,0.351
					c0.204,0.146,0.47,0.394,0.79,0.757v-3.308c0-0.455-0.091-0.741-0.242-0.848c-0.163-0.106-0.494-0.176-0.996-0.197v-0.436h3.535
					v10.403c0,0.378,0.063,0.635,0.198,0.779c0.131,0.142,0.386,0.229,0.75,0.268v0.412c-0.917,0.1-1.508,0.172-1.781,0.222
					c-0.266,0.054-0.734,0.18-1.408,0.39v-1.197c-0.313,0.352-0.594,0.616-0.852,0.784c-0.406,0.275-0.851,0.412-1.32,0.412
					c-0.798,0-1.501-0.374-2.091-1.124c-0.595-0.745-0.895-1.764-0.895-3.047C230.808,109.468,231.122,108.342,231.737,107.512z
					 M235.487,113.524c0.281-0.347,0.424-0.593,0.424-0.734v-4.399c0-0.146-0.127-0.362-0.371-0.652
					c-0.233-0.286-0.558-0.432-0.951-0.432c-0.592,0-0.982,0.443-1.196,1.33c-0.109,0.481-0.17,1.157-0.17,2.024
					c0,0.932,0.058,1.634,0.167,2.1c0.195,0.855,0.575,1.282,1.139,1.282C234.882,114.043,235.2,113.867,235.487,113.524z"/>
			</g>
			<g>
				<path fill="#41555D" d="M242.671,107.426c0.668-0.77,1.478-1.15,2.424-1.15c0.541,0,1.057,0.16,1.533,0.465
					c0.477,0.313,0.841,0.747,1.098,1.3c0.191,0.416,0.326,0.955,0.4,1.624c0.033,0.313,0.06,0.554,0.06,0.717h-4.2
					c0.041,0.721,0.142,1.349,0.322,1.88c0.32,0.996,0.89,1.493,1.698,1.493c0.389,0,0.742-0.137,1.092-0.4
					c0.211-0.157,0.469-0.427,0.78-0.802l0.378,0.257c-0.508,0.916-1.099,1.555-1.766,1.912c-0.43,0.227-0.933,0.349-1.498,0.349
					c-0.81,0-1.568-0.352-2.274-1.054c-0.71-0.704-1.059-1.818-1.059-3.353C241.658,109.278,241.997,108.194,242.671,107.426z
					 M246.16,109.708c-0.01-1.064-0.089-1.814-0.227-2.235c-0.144-0.428-0.416-0.638-0.839-0.638c-0.424,0-0.722,0.248-0.884,0.737
					c-0.16,0.489-0.246,1.199-0.268,2.135L246.16,109.708L246.16,109.708z"/>
			</g>
			<g>
				<path fill="#41555D" d="M250.768,112.073h0.46c0.158,0.861,0.459,1.481,0.896,1.832c0.441,0.353,0.892,0.536,1.356,0.536
					c0.417,0,0.723-0.106,0.93-0.32c0.193-0.203,0.293-0.482,0.293-0.818c0-0.328-0.106-0.604-0.322-0.832
					c-0.117-0.122-0.308-0.255-0.565-0.396l-1.226-0.648c-0.643-0.349-1.098-0.731-1.381-1.134
					c-0.281-0.405-0.427-0.884-0.427-1.437c0-0.698,0.225-1.311,0.67-1.815c0.446-0.511,1.064-0.764,1.862-0.764
					c0.35,0,0.714,0.061,1.109,0.188c0.385,0.132,0.632,0.188,0.727,0.188c0.142,0,0.227-0.031,0.285-0.086
					c0.054-0.063,0.103-0.152,0.146-0.263h0.361v2.608h-0.422c-0.159-0.61-0.409-1.1-0.759-1.471
					c-0.352-0.374-0.763-0.558-1.243-0.558c-0.359,0-0.634,0.11-0.808,0.336c-0.18,0.222-0.269,0.462-0.269,0.722
					c0,0.215,0.078,0.424,0.236,0.642c0.155,0.215,0.453,0.436,0.884,0.665l0.9,0.48c0.558,0.296,0.965,0.581,1.219,0.852
					c0.431,0.473,0.644,1.052,0.644,1.747c0,0.668-0.224,1.291-0.664,1.871c-0.438,0.58-1.103,0.87-1.985,0.87
					c-0.219,0-0.441-0.03-0.659-0.079c-0.231-0.048-0.498-0.135-0.824-0.257l-0.276-0.106c-0.104-0.043-0.171-0.066-0.193-0.068
					c-0.028-0.009-0.054-0.014-0.095-0.014c-0.089,0-0.163,0.039-0.233,0.12c-0.066,0.08-0.142,0.217-0.238,0.403h-0.389V112.073
					L250.768,112.073z"/>
			</g>
		</g>
		<g>
			<g>
				<path fill="#41555D" d="M264.376,107.47c0.675-0.752,1.488-1.134,2.437-1.134c0.547,0,1.059,0.153,1.533,0.463
					c0.484,0.309,0.848,0.732,1.109,1.279c0.186,0.412,0.328,0.945,0.4,1.604c0.036,0.306,0.058,0.538,0.058,0.699h-4.214
					c0.039,0.718,0.144,1.333,0.324,1.856c0.318,0.982,0.886,1.472,1.698,1.472c0.386,0,0.757-0.135,1.106-0.399
					c0.202-0.151,0.463-0.42,0.773-0.785l0.381,0.249c-0.511,0.904-1.104,1.538-1.771,1.891c-0.442,0.222-0.936,0.336-1.506,0.336
					c-0.812,0-1.571-0.345-2.28-1.039c-0.715-0.68-1.063-1.788-1.063-3.3C263.361,109.292,263.701,108.226,264.376,107.47z
					 M267.88,109.719c-0.009-1.046-0.085-1.783-0.223-2.2c-0.143-0.412-0.426-0.626-0.845-0.626c-0.435,0-0.724,0.24-0.884,0.725
					c-0.158,0.479-0.243,1.186-0.272,2.102H267.88L267.88,109.719z"/>
			</g>
			<g>
				<path fill="#41555D" d="M272.358,114.319c0.3-0.037,0.516-0.129,0.66-0.26c0.145-0.138,0.215-0.413,0.215-0.815v-5.239
					c0-0.359-0.061-0.608-0.173-0.753c-0.117-0.141-0.354-0.233-0.703-0.277v-0.43h3.121v1.276c0.271-0.425,0.599-0.779,1.006-1.064
					c0.408-0.28,0.858-0.422,1.344-0.422c0.718,0,1.266,0.199,1.651,0.592c0.395,0.394,0.589,1.09,0.589,2.083v4.301
					c0,0.401,0.06,0.665,0.188,0.78c0.121,0.114,0.337,0.191,0.632,0.229v0.427h-3.882v-0.427c0.305-0.061,0.501-0.145,0.61-0.261
					c0.11-0.107,0.165-0.359,0.165-0.749v-4.308c0-0.413-0.045-0.712-0.122-0.917c-0.124-0.366-0.378-0.551-0.762-0.551
					c-0.278,0-0.543,0.116-0.788,0.337c-0.236,0.225-0.423,0.446-0.546,0.672v4.768c0,0.391,0.055,0.643,0.162,0.749
					c0.105,0.116,0.31,0.199,0.607,0.261v0.427h-3.974L272.358,114.319L272.358,114.319z"/>
			</g>
			<g>
				<path fill="#41555D" d="M290.29,107.47c0.674-0.752,1.493-1.134,2.447-1.134c0.541,0,1.05,0.153,1.534,0.463
					c0.468,0.309,0.846,0.732,1.101,1.279c0.196,0.412,0.326,0.945,0.399,1.604c0.047,0.306,0.06,0.538,0.06,0.699h-4.214
					c0.043,0.718,0.145,1.333,0.326,1.856c0.323,0.982,0.893,1.472,1.701,1.472c0.392,0,0.757-0.135,1.094-0.399
					c0.217-0.151,0.475-0.42,0.789-0.785l0.382,0.249c-0.512,0.904-1.106,1.538-1.773,1.891c-0.44,0.222-0.944,0.336-1.509,0.336
					c-0.81,0-1.567-0.345-2.281-1.039c-0.71-0.68-1.063-1.788-1.063-3.3C289.283,109.292,289.622,108.226,290.29,107.47z
					 M293.805,109.719c-0.019-1.046-0.089-1.783-0.233-2.2c-0.131-0.412-0.414-0.626-0.834-0.626c-0.435,0-0.728,0.24-0.883,0.725
					c-0.159,0.479-0.254,1.186-0.275,2.102H293.805L293.805,109.719z"/>
			</g>
			<g>
				<path fill="#41555D" d="M298.275,114.319c0.29-0.072,0.498-0.176,0.619-0.297c0.119-0.124,0.183-0.384,0.183-0.775v-9.074
					c0-0.381-0.059-0.633-0.169-0.747c-0.117-0.121-0.325-0.214-0.633-0.29v-0.422h3.124v10.531c0,0.393,0.066,0.649,0.179,0.775
					c0.12,0.12,0.329,0.224,0.625,0.298v0.428h-3.928V114.319L298.275,114.319z"/>
			</g>
			<g>
				<path fill="#41555D" d="M310.475,114.297c0.63-0.005,1.04-0.131,1.23-0.364c0.188-0.232,0.279-0.584,0.279-1.051v-8.465
					c0-0.485-0.11-0.801-0.323-0.958c-0.214-0.154-0.596-0.247-1.144-0.293v-0.452h4.157l3.243,8.244h0.143l3.229-8.244h4.156v0.452
					c-0.555,0.046-0.941,0.153-1.144,0.328c-0.206,0.175-0.306,0.61-0.306,1.29v7.885c0,0.657,0.099,1.085,0.306,1.287
					c0.204,0.205,0.59,0.313,1.144,0.341v0.45h-5.479v-0.45c0.488-0.024,0.862-0.106,1.107-0.269c0.246-0.157,0.37-0.504,0.37-1.047
					v-8.708h-0.124l-4.044,10.473h-0.438l-4.092-10.26h-0.069v8.052c0,0.596,0.102,1.031,0.312,1.308
					c0.197,0.271,0.651,0.42,1.349,0.451v0.45h-3.861L310.475,114.297L310.475,114.297z"/>
			</g>
			<g>
				<path fill="#41555D" d="M330.964,106.546v6.043c0,0.363,0.039,0.63,0.124,0.79c0.134,0.297,0.409,0.447,0.83,0.447
					c0.262,0,0.52-0.092,0.766-0.268c0.151-0.096,0.337-0.263,0.551-0.493v-5.061c0-0.37-0.063-0.631-0.204-0.784
					c-0.134-0.153-0.412-0.229-0.831-0.246v-0.429h3.293v6.42c0,0.367,0.063,0.62,0.195,0.765c0.123,0.141,0.385,0.226,0.752,0.26
					v0.413c-1.018,0.1-1.656,0.18-1.926,0.226c-0.272,0.05-0.696,0.18-1.278,0.37v-1.173c-0.395,0.365-0.72,0.627-0.978,0.775
					c-0.45,0.268-0.916,0.398-1.41,0.398c-0.53,0-1.024-0.184-1.488-0.547c-0.459-0.361-0.685-1.011-0.685-1.947v-4.499
					c0-0.378-0.06-0.627-0.173-0.744c-0.11-0.116-0.325-0.215-0.646-0.286v-0.43L330.964,106.546L330.964,106.546z"/>
			</g>
			<g>
				<path fill="#41555D" d="M338.795,114.319c0.3-0.037,0.526-0.129,0.663-0.26c0.142-0.138,0.218-0.413,0.218-0.815v-5.239
					c0-0.359-0.063-0.608-0.172-0.753c-0.12-0.141-0.353-0.233-0.711-0.277v-0.43h3.13v1.276c0.258-0.425,0.59-0.779,1.006-1.064
					c0.4-0.28,0.849-0.422,1.347-0.422c0.707,0,1.255,0.199,1.65,0.592c0.385,0.394,0.578,1.09,0.578,2.083v4.301
					c0,0.401,0.064,0.665,0.194,0.78c0.125,0.114,0.336,0.191,0.625,0.229v0.427h-3.869v-0.427c0.297-0.061,0.495-0.145,0.6-0.261
					c0.11-0.107,0.162-0.359,0.162-0.749v-4.308c0-0.413-0.031-0.712-0.108-0.917c-0.128-0.366-0.385-0.551-0.767-0.551
					c-0.286,0-0.551,0.116-0.784,0.337c-0.237,0.225-0.424,0.446-0.556,0.672v4.768c0,0.391,0.055,0.643,0.16,0.749
					c0.11,0.116,0.313,0.199,0.604,0.261v0.427h-3.969L338.795,114.319L338.795,114.319z"/>
			</g>
			<g>
				<path fill="#41555D" d="M350.821,107.559c0.622-0.812,1.36-1.223,2.231-1.223c0.435,0,0.832,0.118,1.166,0.347
					c0.207,0.142,0.47,0.386,0.788,0.753v-3.263c0-0.45-0.082-0.732-0.238-0.84c-0.16-0.106-0.497-0.176-1.007-0.197v-0.422h3.552
					v10.251c0,0.367,0.072,0.62,0.197,0.765c0.133,0.141,0.38,0.226,0.757,0.26v0.413c-0.929,0.095-1.521,0.167-1.79,0.223
					c-0.266,0.05-0.742,0.175-1.421,0.373v-1.173c-0.307,0.351-0.597,0.605-0.851,0.775c-0.409,0.268-0.845,0.398-1.317,0.398
					c-0.806,0-1.508-0.366-2.103-1.104c-0.6-0.737-0.896-1.729-0.896-3.003C349.893,109.484,350.203,108.378,350.821,107.559z
					 M354.586,113.478c0.278-0.345,0.422-0.579,0.422-0.726v-4.323c0-0.151-0.124-0.358-0.364-0.646
					c-0.24-0.285-0.565-0.427-0.965-0.427c-0.582,0-0.979,0.438-1.194,1.317c-0.109,0.465-0.163,1.13-0.163,1.986
					c0,0.916,0.05,1.604,0.159,2.069c0.194,0.844,0.579,1.261,1.146,1.261C353.982,113.991,354.299,113.823,354.586,113.478z"/>
			</g>
			<g>
				<path fill="#41555D" d="M361.838,107.566c0.706-0.834,1.59-1.245,2.662-1.245c1.088,0,1.978,0.42,2.679,1.268
					c0.691,0.849,1.041,1.875,1.041,3.083c0,1.188-0.338,2.211-1.026,3.063c-0.688,0.856-1.586,1.279-2.691,1.279
					c-1.074,0-1.967-0.412-2.67-1.244c-0.7-0.834-1.054-1.864-1.054-3.098C360.777,109.429,361.132,108.39,361.838,107.566z
					 M363.378,113.289c0.189,0.771,0.565,1.161,1.123,1.161c0.528,0,0.881-0.299,1.049-0.89c0.159-0.592,0.244-1.555,0.244-2.889
					c0-1.325-0.086-2.287-0.257-2.888c-0.177-0.591-0.521-0.889-1.029-0.889c-0.558,0-0.928,0.389-1.119,1.157
					c-0.124,0.516-0.18,1.391-0.18,2.621C363.208,111.922,363.265,112.792,363.378,113.289z"/>
			</g>
		</g>
	</g>
	<g>
		<g>
			<polyline fill="#0092A7" points="380.981,85.099 380.977,23.282 11.153,23.296 11.153,85.104 380.981,85.099 			"/>
		</g>
		<g>
			<path fill="#41555D" d="M382.943,87.05H10.614V21.22h372.33V87.05L382.943,87.05z M12.941,84.531h367.672V23.739H12.941V84.531z"
				/>
		</g>
		<g>
			<polyline fill="#41555D" points="202.197,80.665 202.197,27.376 377.439,27.376 377.439,80.665 202.197,80.665 			"/>
		</g>
		<g>
			<path fill="#41555D" d="M377.568,80.805h-175.5V27.237h175.499L377.568,80.805L377.568,80.805z M202.327,80.525h174.981V27.516
				H202.327V80.525z"/>
		</g>
		<g>
			<polyline fill="#FFFFFF" points="16.829,80.665 16.829,27.376 197.007,27.376 197.007,80.665 16.829,80.665 			"/>
		</g>
		<g>
			<path fill="#FFFFFF" d="M192.708,14.648c-19.984,0-36.179,17.521-36.179,39.119c0,21.617,16.195,39.129,36.179,39.129
				c19.976,0,36.174-17.514,36.174-39.129C228.882,32.168,212.684,14.648,192.708,14.648"/>
		</g>
		<g>
			<path fill="#FFFFFF" d="M192.708,14.323c-20.115,0-36.479,17.702-36.479,39.442c0,10.545,3.794,20.449,10.688,27.905
				c6.887,7.447,16.046,11.549,25.792,11.549c9.744,0,18.899-4.102,25.795-11.549c6.887-7.455,10.683-17.36,10.683-27.905
				c0-10.525-3.796-20.436-10.683-27.878C211.607,18.431,202.452,14.323,192.708,14.323"/>
		</g>
		<g>
			<g>
				<path fill="#0092A7" d="M192.708,94.549c-10.072,0-19.54-4.24-26.66-11.938C158.923,74.905,155,64.66,155,53.765
					c0-22.481,16.916-40.771,37.708-40.771c10.066,0,19.534,4.245,26.663,11.953c7.122,7.695,11.045,17.93,11.045,28.817
					c0,10.891-3.923,21.135-11.045,28.844C212.244,90.308,202.774,94.549,192.708,94.549z M192.708,15.652
					c-19.438,0-35.249,17.099-35.249,38.114c0,10.188,3.667,19.763,10.327,26.964c6.656,7.198,15.506,11.162,24.923,11.162
					c9.411,0,18.264-3.964,24.926-11.162c6.658-7.205,10.324-16.782,10.324-26.964c0-10.179-3.666-19.745-10.324-26.938
					C210.97,19.62,202.119,15.652,192.708,15.652z"/>
			</g>
		</g>
		<g>
			<path fill="#0092A7" d="M209.565,25.532c0.304-0.057,0.53,0.085,0.736,0.258c0.325-0.058,0.722-0.035,1.007,0.239
				c0.96,0,1.793,0.301,2.44,1.087c0.035,0.224-0.198,0.355-0.322,0.491c-0.308-0.023-0.806-0.187-1.036,0.135
				c-0.073,0.19,0.106,0.327,0.23,0.411c0.627-0.33,1.281,1.227,1.535,0.028c0.223-0.169,0.103-0.626,0.455-0.739
				c0.302-0.485-0.955-0.786,0-0.923c0.434-0.033,0.482,0.405,0.831,0.542c0.148-0.215-0.127-0.353-0.112-0.597
				c0.634-0.188,0.793,0.74,1.374,0.842c0.048-0.138,0.048-0.325,0.177-0.383c0.147,0,0.275,0.167,0.402,0.035l0.1-0.25l0.903,0.296
				v-0.183c1.039,0.981,2.3,2.044,2.901,3.377c1.589,1.852,2.571,3.982,3.679,6.048c0.329,1.231,1.19,2.233,1.364,3.522
				c0.579,0.575,0.305,1.526,0.957,2.066c0.18,1.748,0.91,3.497,0.965,5.241l0.168,0.46c0.276,1.311,0.205,2.836,0.407,4.119
				c-0.131,1.115,0.276,2.204,0,3.324c0.46,0.788-0.53,1.227-0.177,2.016c-0.282,1.824-0.353,3.758-0.832,5.502l-0.13,0.142
				c-0.549-0.3-0.046-0.952-0.126-1.468c0.381-0.279-0.047-0.962,0.356-1.231c0.205-1.037,0-2.011,0-3.053
				c-0.128-0.056-0.23,0.108-0.276,0.223c-0.304-0.525,0.352-0.873-0.127-1.344c0.326-0.707-0.353-1.255-0.177-1.955
				c-0.401-0.114,0.025-0.741-0.373-0.741c-0.081,0.382-0.36,0.498-0.683,0.498c-0.4-0.583-0.229-1.446-0.858-1.865
				c0.021-0.164-0.048-0.273-0.103-0.405c-0.307,0.104-0.307,0.625-0.707,0.542c-0.303-0.138-0.232-0.519-0.232-0.843
				c-0.474-0.359-0.604-0.844-0.604-1.413c-0.066-0.093-0.169-0.036-0.272-0.058c-0.255,0.405,0.078,0.813,0.225,1.145
				c0.074,0.302-0.18,1.146,0.456,0.923c-0.021,0.626,0,1.475,0.498,1.771c0.483-0.159,0.205-0.958,0.607-1.283
				c0.354,0.279-0.222,0.684,0.028,1.1c0.833,0.325,0.448,1.378,0.883,1.975c0,1.158-0.707,1.834-0.961,2.873
				c-0.098,0.459-0.706,0.787-0.559,1.422c-0.455,0-0.304,0.707-0.797,0.591c-0.759,0.462-1.088,1.065-1.869,1.418
				c-0.484-0.055-0.763,0.515-1.187,0.626c0.282-0.648,0.282-1.502,0.174-2.264c-0.375-0.163-0.019-0.485-0.075-0.765
				c0.024-0.894-0.802-1.414-0.5-2.421c-0.508-0.138,0.124-1.035-0.579-0.98c-0.031-0.524,0.048-1.259-0.23-1.668
				c0-0.923-0.678-1.447-0.882-2.29c-0.301-0.301-0.531-0.705-0.482-1.189c0.047-0.198,0.251-0.359,0.181-0.638
				c-0.134-0.184-0.399-0.268-0.509,0c-0.199,0.092,0.028,0.465-0.272,0.358c-0.208-0.192-0.106-0.683-0.508-0.598l-0.175,0.495
				c0.776,0.209,0.704,1.167,1.134,1.708c0.076,0.417,0.05,1.008,0.501,1.116c-0.046,0.855,0.83,1.396,0.455,2.263
				c0.029,0.141-0.049,0.3,0.095,0.357h0.234c-0.052,0.353-0.301,0.792,0,1.174c0.275,0.329,0.402,0.842,0.225,1.281
				c-0.106,0.438,0.48,0.685,0.53,1.124c0.17,0.323-0.177,1.224,0.333,1.086c0.198,0.439,0.169,0.928,0.047,1.41
				c0.204,0.492,0.348,1.181,0.984,1.181c0.278-0.546,0.721-0.495,1.083-0.876c0.397,0.188,1.007-0.919,0.95,0.079
				c-0.19,0.166-0.398,0.251-0.299,0.604c-0.696,0.331-0.28,1.39-1.138,1.361c-0.76,0.301,0,1.471-0.905,1.471
				c-0.653,0.494-0.377,1.48-1.233,1.725c-0.654,0.045-0.579,1.168-1.313,0.786c-0.478,0.189-0.152,1.089-0.833,1.036
				c-0.095,0.599-0.851,0.547-0.756,1.231c-1.203,1.195-1.405,2.939-2.141,4.408c-0.607,1.016-0.648,2.569-1.992,2.948
				c-0.978,0.542-1.945,1.413-2.543,2.339c-0.18,0.984-1.083,1.89-1.939,2.184c-0.458,0.787-1.063,1.452-1.925,1.666
				c-0.297,0.795-1.176,0.435-1.539,1.114c-0.595,0.115-1.125-0.052-1.633,0.359c-0.278-0.052-0.629-0.052-0.758-0.411
				c0.836-1.337-0.206-2.941,0.709-4.252c0.559-0.742-0.278-1.584,0.205-2.266c0.021-0.647-0.124-1.39,0.3-1.853
				c-0.078-0.52,0.102-0.952,0.451-1.285c0.055-0.544,0.833-0.731,0.724-1.332c0.489-0.301-0.017-0.905,0.457-1.23
				c-0.022-0.925-0.457-1.719-0.626-2.584c0.151-0.491-0.229-0.77-0.378-1.152c-0.073-0.563-0.431-1.117-0.023-1.663l0.304-0.131
				c-0.279-0.329,0.025-1.145-0.632-1.224c-0.353-0.82-1.433-0.382-1.813-1.151c-0.333-0.244-0.657-0.952-1.237-0.813l-0.532,0.547
				l-2.547,0.134c-0.499,0.215-0.682,0.868-1.308,0.542c-0.328-0.542-1.088-0.382-1.186-1.037c-0.223-0.295-0.478-0.051-0.781-0.131
				c-0.251-0.854-1.738-1.063-1.313-2.267c-0.933-0.113-1.61-1.202-1.89-2.072c-0.272-0.216-0.428-0.483-0.428-0.819
				c0.103-0.326,0.357-0.598,0.604-0.844c-0.403-0.979,0.257-2.046-0.551-2.838c-0.656-0.705,0.653-0.653,0.272-1.44
				c0.18-0.359-0.146-0.77,0.13-1.063c0.65,0,0.382-0.98,0.955-1.093c0.405-0.16-0.05-0.563,0.328-0.735
				c-0.018-0.514,0.805-0.166,0.858-0.673c0.282-0.222,0.501-0.639,0.555-1.042c0.127-0.08,0.324,0.023,0.399-0.188
				c0.41-0.608-0.018-1.259,0.23-1.856c0.455-0.224,0.911-0.491,0.988-1.037c0.375-0.215,0.756-0.158,1.056-0.438
				c-0.681-1.008,1.106-1.008,0.346-1.931l-0.858-0.023c-0.12-0.437-0.574-0.495-0.774-0.854c0.35-0.57-0.103-1.169,0.05-1.771
				c-0.128-0.484,0.028-1.007,0.102-1.471c0.428-0.216,0.58-0.762,1.183-0.819l1.61-0.058c0-0.289,0.226-0.511,0.504-0.489
				c-0.225-0.349,0.305-0.542,0.05-0.924c-0.255-0.705-0.957-0.055-1.134-0.742c0.075-0.21,0.333-0.243,0.505-0.158
				c0.354-0.514,1.011-0.546,1.536-0.736c-0.325-0.552,0.76-0.302,0.333-0.923c0.475,0.104,1.157,0.046,1.583-0.359v-0.193
				c0.408,0.193,0.784-0.057,0.758-0.49c0.458-0.13,0.428-0.684,0.682-1.035c0.031-0.354-0.224-0.571-0.127-0.985
				c0.537,0.135,0.183-0.788,0.686-0.514c0.35,0.547,0.88,0.874,1.437,1.008c0.302-0.728-0.587-1.121-0.912-1.664
				c-0.024-0.186-0.047-0.405-0.255-0.488c-0.653-0.297-0.32,0.627-0.879,0.604c-0.427-0.034-0.785-0.301-1.137-0.604
				c-0.172-0.461-0.481-0.922-0.399-1.476c0.376-0.295,0.827-0.325,1.236-0.569l-0.378-0.74c0.4-0.244,0.4,0.496,0.785,0.387
				c0.099-0.295,0.621-0.821,0-0.928c-0.211-0.051-0.16-0.244-0.107-0.41c0.481-0.325,0.933,1.338,1.011,0.115l0.321-0.196
				c0-0.165-0.147-0.299-0.273-0.299c-0.536-0.247-0.102,0.626-0.555,0.38c-0.151-0.301,0.375-0.426,0.326-0.762
				c0.229-0.056,0.373,0.626,0.681,0.244c0.103-0.268,0.079-0.986,0.533-0.729c0.018,0.271,0.124,0.592,0.453,0.508
				c0.275,0,0.497-0.138,0.678-0.326c0.579-0.216,1.463,0.247,1.819-0.403C208.51,25.453,209.312,24.77,209.565,25.532"/>
		</g>
		<g>
			<path fill="#0092A7" d="M168.273,25.97c-0.152,0.11-0.248,0.302-0.248,0.491c-0.105-0.023-0.128,0.055-0.205,0.113
				c0.155,0.08,0.1,0.292,0.049,0.382c-0.226,0.685-1.003,0.685-1.438,1.09c-0.099-0.139-0.375-0.224-0.504,0
				c-0.202,0.243,0.032,0.681-0.375,0.783c0.753,0.224,1.085-1.007,1.911-0.842c0.385-0.461,1.084-0.569,1.194-1.281
				c0.448,0.078,0.5-0.626,0.953-0.626l0.226,0.495h0.478c0,0.051,0.052,0.158-0.025,0.188c0.283,0.159,0.731,0.159,1.036,0
				c0.077,1.337-1.463,1.283-2.166,1.909c-0.483,0.654-1.084,1.223-1.818,1.281c-0.378,0.44-0.473,1.111-1.007,1.282
				c-0.148,0.408-0.478,0.848-0.276,1.276c0.225-0.057,0.555-0.103,0.728,0.056c-0.071,0.084-0.025,0.222-0.049,0.336
				c0.332,0.104,0.907-0.359,1.014,0.291c0.275,0.381,0.6-0.08,0.954,0c0.226,0.414-0.709,0.819-0.046,1.099
				c-0.085,0.269-0.16,0.507-0.18,0.81c0.374,0.221,0.374-0.325,0.481-0.541c0.103-0.686,0.932-0.468,1.108-1.176
				c0.604-0.761,0.526-1.826,0.858-2.749c0.678-1.037,1.586-1.773,2.945-1.562c0.078,0.66,1.035,0,0.81,0.82
				c-0.177,0.243-0.533,0.164-0.636,0.497c-0.018,0.432,0.36,0.46,0.636,0.345c0.678-0.1,1.084-0.887,1.512-1.339h0.125
				c0,0.257-0.177,0.474-0.054,0.718c0.328,0.161-0.071,0.521,0.181,0.736c0.148,0.189,0.477,0.325,0.427,0.627
				c0.201,0.164,0.628-0.139,0.682,0.243c-0.096,0.247-0.021,0.547,0.084,0.787c0.37-0.324,0.671,0,1.053,0.087
				c0.23,0.387,0.099,0.733,0.301,1.138c0.382,0.358,1.106,0.388,0.833,1.065c-0.328,0.604,0.583,0.986,0.127,1.646
				c-0.681,0.512-1.512,0.182-2.271,0.483c-0.148,0.029-0.254-0.08-0.356-0.187c0.229-0.497,0-1.173,0.714-1.2
				c0.352-0.327,0.377-0.924,0.954-0.822c0.248-0.246-0.053-0.461-0.071-0.683c-0.557,0.087-0.459,1.146-1.239,0.683
				c-0.759-0.706-1.162,0.719-1.942,0.081c-0.333,0.141-0.883,0.112-0.883,0.551c0.279,0.513,0.678-0.169,1.011,0.19
				c0.102,0.603,1.208,0.848,0.727,1.633c-0.555,0.135-1.257,0.438-1.405,1.064c-0.76,0.057-1.265,0.821-1.82,1.224
				c-0.124,0-0.225-0.047-0.18-0.245c0.432-0.158,0.534-0.648,0.534-1.123c0.025-0.159-0.025-0.346-0.174-0.381
				c-0.279,0.091-0.159,0.523-0.534,0.523c-0.501,0.684-0.904,1.419-1.638,1.686c-0.296,0.244-0.325,0.741-0.781,0.684
				c-0.303,0.381-0.78,0.707-0.957,1.166c-0.678,0.279-0.477,1.179-0.932,1.588c-0.205,0.441,0.095,1.003-0.431,1.363
				c0,0.74-0.703,1.145-0.858,1.828c-0.374-0.136-0.533,0.223-0.851,0.243c-0.23,0.577-0.23,1.307-0.735,1.721
				c0.784,0.594-0.244,1.75,0.735,2.204c0.223,0.434-0.028,0.979-0.23,1.26c-0.257-0.33-0.635-0.687-0.555-1.233
				c-0.375-0.192-0.351-0.655-0.351-1.059c-0.332-0.301-1.01,0.022-1.087-0.603c-0.356,0.136-1.082-0.303-1.059,0.402
				c-0.056,0.383,0.081,0.929-0.351,1.066c-0.081-0.347-0.58-0.428-0.735-0.815c-0.275,0.086-0.546,0.167-0.759,0.49
				c-0.046,0.359-0.243,0.682-0.555,0.876c0.311,1.054,0.229,2.205-0.091,3.241c0.322,0.784,0.374,1.792,1.13,2.29
				c0.382-0.08,1.031,0.353,1.109-0.274c0.151-0.381-0.18-1.064,0.25-1.231c-0.021-0.403,0.385-0.517,0.678-0.46
				c0.312-0.022,0.531,0.214,0.562,0.483l-0.18,2.456c0.148,1.316,1.486,0.093,1.585,1.403c-0.021,1.029,0.989,1.606,0.954,2.635
				c0.558,0.082,0.286,0.822,0.813,0.879c0.3,0.08,0.554-0.057,0.784-0.244c0.021-0.33,0.357-0.473,0.583-0.634
				c-0.033-1.273,1.533-0.646,1.579-1.908c0.205,0.036,0.381,0.416,0.628,0.195c0.081-0.485,0.636-0.461,0.915-0.301
				c0.481,1.88,2.399,0.055,3.274,1.173c0.912-0.082,0.858,0.979,1.483,1.441c0.919-0.273,1.449,0.443,2.271,0.331
				c0.308,0.792,1.167,0.539,1.749,0.598c0.505,0.518,1.024,1.086,1.303,1.806c0.229,0.267,0.709,0.597,0.279,0.945
				c0.049,0.223,0.225,0.388,0.456,0.526c0.809,0.057,1.84,0,2.271,0.977c0.675,0.389,1.587,0.389,2.342,0.303
				c0.958,1.493,3.454,0.742,3.327,2.94c0.024,0.679-0.809,0.717-0.678,1.421c-0.682,0.244-0.029,0.981-0.555,1.336
				c-0.205,0.412,0.049,1.223-0.632,1.177c-0.05,0.542,0.53,1.111,0,1.573v1.123c-0.526,0.436-0.505,1.116-0.858,1.636
				c-0.423,0.378-1.359-0.088-1.409,0.76c-0.205,0.088-0.385,0.275-0.555,0.407c-0.029,0.379,0.35,0.574,0.406,0.932
				c0.095,0.818-0.537,1.28-0.18,2.094c-0.533,0.52-0.653,1.254-1.314,1.696l-0.105,0.076c0.434,0.138,0.339,0.688,0.456,1.039
				c-0.148,0.137-0.4-0.06-0.531,0.137c0.057,0.299,0.335,0.605-0.046,0.833c0.155,0.58,0.381,1.023,0.682,1.539
				c0.932,0.521,1.388,1.692,2.399,2.018l0.046-0.224c0.333,0.494,1.009-0.137,1.084,0.662c-0.254,0.046-0.428-0.359-0.752-0.2
				l-0.056,0.246c-0.576-0.512-1.332-0.593-1.918-1.09c-0.321-0.021-0.522-0.302-0.678-0.604c-0.424,0.172-0.805-0.699-1.035-0.181
				c0.078,0.134,0.23,0.181,0.275,0.295c-0.197,0.107-0.444-0.136-0.546-0.354c0.048-0.681-0.731-0.727-0.954-1.308
				c-0.608,0.026-0.81-0.849-1.371-0.925c-0.173-0.197,0.025-0.525-0.173-0.711c-0.275-0.332-1.06-0.378-0.855-0.98
				c-0.385-0.416-0.759-1.035-1.242-1.311c-0.547-0.275,0.286-1.222-0.572-1.092c0.103-0.512-0.653-0.648-0.407-1.227l-1.003-0.79
				c0.021-0.081,0.449,0,0.449-0.24c-0.028-0.547-0.628-0.547-0.851-0.929c0.452-0.765-0.808-0.818-0.517-1.528
				c-0.321-0.657-1.101-0.84-1.408-1.367c-0.251-0.135-0.523-0.135-0.806-0.19c-0.759-0.463-1.082-1.472-1.865-1.903
				c-0.453-0.519-0.653-1.397-1.412-1.526c-0.18-0.19-0.18-0.463-0.18-0.742c-0.696-0.275-0.852-1.384-1.656-1.384
				c-0.197-0.464-0.124-1.332-0.833-1.309c-0.173-0.223-0.025-0.518,0.056-0.742c0.226-0.022,0.096-0.301,0.125-0.438
				c-0.18-0.541-0.354-1.09-0.411-1.685c0.36-0.411,0.513-1.094,0.23-1.612c-0.576-0.382-0.074-1.333-0.675-1.605
				c-0.607-0.167-1.438-0.189-1.646-0.951c-0.731-0.137-0.449-1.448-1.384-1.067c-0.1-0.574-0.533-0.841-0.834-1.281
				c-0.476,0.243-0.957-0.325-1.438-0.381c-0.046-0.461-0.399-0.901-0.735-1.146c-0.469,0.139-0.798-0.027-1.275-0.055
				c-0.435-0.244-0.941-0.41-1.261-0.814c0.119-0.575-0.078-0.956-0.357-1.395c-0.176-0.673-0.151-1.471-0.731-1.988
				c-0.095-0.353,0.05-0.836-0.329-1.088c-0.073,0.217,0.173,0.621-0.18,0.677c0.107-0.38-0.219-0.899,0.286-1.166
				c0.099-0.462-0.459-0.521-0.179-0.986c-0.127-0.244-0.357,0.084-0.432-0.187c0.432-0.411-0.254-0.77,0.23-1.141
				c0.074-0.173-0.078-0.336-0.23-0.336c0.107-0.626-0.326-1.032-0.304-1.634c0.125-0.541-0.243-1.259-0.049-1.852
				c-0.177-0.597,0.329-1.064,0.279-1.664c0.784-1.493,0.628-3.407,1.412-4.904c-0.205-0.764,0.457-1.043,0.685-1.646
				c0.322-0.483,0.396-1.086,0.803-1.55c-0.427-1.111,1.13-1.304,0.957-2.367c0.756-0.793,1.363-1.75,1.491-2.896
				c0.399-0.405,0.88-0.705,0.831-1.354c0.858-1.503,2.214-2.759,3.356-4.039c0.307-0.193,0.731-0.193,0.956-0.575
				C168.121,25.732,168.352,25.756,168.273,25.97"/>
		</g>
		<g>
			<path fill="#FFFFFF" d="M208.76,28.046c-0.483,0-0.176,0.517-0.451,0.783c-0.1,0.905,0.706,1.482,1.257,2.023
				c0.28,0.028,0.556-0.114,0.604-0.411l-0.048-0.129c0.53-0.057,1.284-0.171,1.595,0.291v0.088
				c-0.531,0.133-1.242-0.111-1.595,0.406c-0.35,0.138-0.68-0.113-1.011,0.187c-0.121,0.248-0.17,0.549-0.224,0.821
				c-0.127-0.023-0.176,0.08-0.255,0.164l-0.048,0.382c-0.402-0.056-0.879-0.301-1.236,0c-0.678,0.923-1.94,0.295-2.893,0.355
				c-0.08-0.299-0.229-0.658-0.18-0.924c0.427,0.131,0.622,0.729,1.133,0.569c0.126-0.056,0.305-0.209,0.177-0.382l-0.111-0.106
				c0.54-0.417,0.842,1.064,1.474,0.405c-0.2-0.543,0.501-0.297,0.326-0.844c0.455-0.112,0.229-0.681,0.579-0.87
				c0.049-0.923-1.463-0.957-0.778-1.938c0.331-0.028,0.453-0.489,0.829-0.381c-0.274-0.268,0-0.383,0.052-0.683
				C208.209,27.764,208.566,27.764,208.76,28.046"/>
		</g>
		<g>
			<path fill="#FFFFFF" d="M165.829,37.75c0.18,0.079,0.283-0.195,0.41-0.081c0.139,0.268-0.31,0.627,0.095,0.627
				c0.279-0.201,0.152-0.905,0.628-0.627c0.078,0.57-0.025,1.391,0.453,1.659c0.356-0.268,0.434-0.874,0.858-1.032
				c0.127,0.216,0.385,0.485,0.156,0.734c-0.859-0.351-0.53,1.119-1.465,0.599c0.106-0.548-0.428-0.524-0.628-0.848
				c-0.375,0.359-0.35,1.122-0.904,1.423c0.194,0.405-0.23,0.678-0.275,1.032h-0.13c0.025-0.923,0.381-1.988,1.088-2.758
				c0.046-0.382-0.46-0.21-0.414-0.505c-0.473-0.115-0.498,0.753-1.076,0.428c-0.05-0.765,0.904-0.428,0.904-1.088
				C165.879,37.116,165.727,37.614,165.829,37.75"/>
		</g>
		<g>
			<path fill="#FFFFFF" d="M207.177,37.994c0.196,0.649,1.184,0.597,1.032,1.446c0.597,0.023,0.454,0.815,1.057,0.873
				c0.279-0.03,0.603,0.054,0.681,0.375c-0.226,0.382,0.354,0.416,0.354,0.741c0.484,0.546,0.148,1.471,0.85,1.83
				c0.079,0.3,0.234,0.546,0.435,0.785c0.278,0.112,0.245-0.239,0.3-0.405v-0.136c0.073,0.302,0.198,0.621,0.504,0.676
				c0.23-0.101,0.654,0.053,0.678-0.331c-0.047-0.313-0.398-0.59-0.571-0.728c0.042-0.49-0.229-1.089,0.4-1.201
				c0.605-0.108,0.558-1.123,1.31-0.815c-0.021,0.435-0.279,0.708-0.46,1.055c0.23,0.58-0.127,1.502,0.632,1.689
				c0.048,0.308,0.809,0.52,0.509,1.016c0.204,0.244,0.476,0.222,0.681,0c0.324-0.114,0.071-0.634,0.505-0.52
				c0.65-0.244,0.575,0.787,1.208,0.627c0.151-0.41,0.578-0.815,0.954-0.434c0.131,0.109,0.15,0.355,0.15,0.571
				c-0.18,0-0.374,0.222-0.427,0.405c0.531,0.825-0.985,1.156-0.753,1.971c-0.757,0.192-1.083-1.175-1.74-0.549
				c-0.026,0.244-0.231,0.439-0.359,0.627c-0.73-0.164-1.055-1.224-1.942-0.819c-0.575-0.052-0.604-0.974-1.282-0.793
				c-0.562,0.244-0.785,1.094-1.439,1.043c-1.107-0.036-1.938-0.472-2.719-1.145c-0.611-0.037-1.338-0.195-1.519-0.934
				c0.05-0.571-0.4-0.93-0.351-1.527c-0.582-0.677-1.404,0.114-2.087-0.267c-0.352,0.267-1.137-0.222-1.19,0.438
				c-0.555,0.542-1.414-0.078-1.938,0.542c-0.94,0.591-1.719-0.137-2.72,0.244c-0.131-0.188,0.018-0.359,0.053-0.54
				c0.349,0.352,0.748-0.086,1.154,0c0.156-0.467,0.735-0.583,0.777-1.093c0.786-0.029,0-0.848,0.506-1.118
				c-0.173-0.38,0.253-0.277,0.352-0.489c0.079-0.356,0.579-0.546,0.456-0.979c0.703,0.08,1.163-0.165,1.762-0.165
				c0.28-0.169,0.178-0.358,0.206-0.631c0.23,0.415,0.631,0.057,0.933,0.111c0.25-0.192,0.102-0.38,0.15-0.659
				c0.199,0.084,0.326,0.221,0.401,0.438c0.459,0.359,1.465,0,1.364,0.985c0.398-0.08,0.512,0.484,0.681,0.736
				c0.374,0.243,1.036,0.352,1.036,0.95c0.201,0.82-0.859,0.411-0.577,1.173c0.227,0.159,0.502,0.598,0.805,0.301
				c0.294-0.352,0.351-0.893,0.824-0.984l-0.097-0.406c0.195,0.057,0.333-0.055,0.506-0.084c-0.311-0.574-0.607-1.118-1.188-1.28
				l-0.126-1.09c-0.453-0.44-1.311-0.819-1.234-1.607C206.593,37.536,207.373,37.555,207.177,37.994"/>
		</g>
		<g>
			<path fill="#FFFFFF" d="M217.784,38.24c-0.127,0.057-0.249,0.115-0.349,0.239c0.551,0.604,0.803,1.561,1.583,1.891l0.18,0.542
				c-0.274,0.216-0.529,0.575-0.96,0.438c0-0.842-0.78-0.164-1.081-0.66c-0.682-0.021-1.688-0.375-1.997,0.303h-0.604
				c-0.1-0.462-0.679-0.57-0.755-0.98c1.035-0.106-0.251-1.389,0.508-1.554c0.219-0.359,0.784-0.383,1.16-0.359
				c0,0.201,0.172,0.303,0.278,0.439c0.3,0.109,0.273-0.352,0.548-0.326c0.257,0,0.483,0.029,0.634,0.268
				c-0.023,0.144,0.048,0.246,0.1,0.359c0.354-0.245,0.18-1.031,0.682-1.122C217.731,37.88,217.833,38.04,217.784,38.24"/>
		</g>
		<g>
			<path fill="#FFFFFF" d="M221.971,38.781c0.533,0.438-0.074,1.041,0.17,1.586c0.635,0.161,0.317,1.061,0.916,1.224
				c-0.099,0.439,0.854,0.566,0.326,1.06c-0.1,0.736,0.56,1.151,0.458,1.884c-0.386-0.136-1.187-0.055-1.013-0.653
				c-0.3-0.627,0.455-1.284-0.227-1.795c-0.169-0.497-0.9-0.773-0.858-1.423c-0.657-0.542-0.452-1.249-0.377-1.942L221.971,38.781"
				/>
		</g>
		<g>
			<path fill="#FFFFFF" d="M224.313,39.277l0.385,1.171l-0.508-0.324c0.023-0.357-0.122-0.604-0.28-0.905
				C224.068,39.248,224.188,39.418,224.313,39.277"/>
		</g>
		<g>
			<path fill="#FFFFFF" d="M215.16,68.145c-0.525,0.025-0.653,0.656-0.78,1.06c-0.223-0.022-0.7,0.138-0.58-0.325
				c-0.077-0.324,0.279-0.034,0.357-0.248c0.527-0.154,0.399-0.846,0.83-1.089l0.023-0.189
				C215.16,67.624,215.291,67.763,215.16,68.145"/>
		</g>
		<g>
			<g>
				<path fill="#0092A7" d="M191.518,20.06c1.134-0.467,1.716,0.677,2.825,0.13c0.223-0.189,0.58-0.244,0.855-0.13
					c0.033,0.107,0.123,0.187,0.081,0.322c-0.307-0.055-0.278,0.248-0.406,0.434c0.07,0.388,0.501,0.713,0.279,1.094
					c-0.887-0.058-0.932,1.173-1.77,1.116c-0.102,0.217-0.225,0.273-0.381,0.461l-0.522,0.033c-0.106,0.327,0.248,0.327,0.399,0.405
					l0.329,0.058c0.237,0.405-0.279,0.485-0.226,0.872c-0.583,0-0.932,0.273-1.179,0.843c-0.608,0.058-1.236-0.166-1.865,0
					c-0.028,0.272-0.385,0.301-0.332,0.632c-0.657,0.873-2.07-0.331-2.493,0.836c-0.533,0.497-0.911,0.956-1.367,1.561
					c0.081,0.652-0.703,0.708-0.703,1.333c-1.01,0.355-0.805-1.333-1.738-0.894h-0.18c0.106-0.69-0.879-0.763-0.78-1.479
					c-0.254-0.244-0.632-0.405-0.678-0.866c-0.304-0.877,0.707-0.438,0.773-1.088c0.333,0,0.537-0.336,0.508-0.685
					c0.053-0.382-0.352-0.546-0.451-0.878l-0.51,0.059c0.024-0.109-0.046-0.144-0.096-0.224c-0.254,0.114-0.477,0.301-0.752,0.359
					c-0.053-0.685,1.356-0.417,0.727-1.18c-0.346-0.239-0.653,0.246-0.96-0.044v-0.138c-0.605-0.111-1.361-0.222-1.915,0.024
					c-0.276,0-0.531-0.381-0.682,0.056c-0.128,0.022-0.226-0.022-0.301-0.138c-0.099-0.652,0.628-0.569,0.751-1.149
					c-0.85-0.239-1.278,1.613-2.274,0.905c-0.368,0.244-1.003,0.382-1.08,0.866c0.939,0.338,2.02-0.95,2.55,0.359
					c0.435-0.243,0.504,0.439,0.981,0.195c0.333,0.292-0.321,0.49-0.018,0.848c-0.328,0.104-0.787,0.104-0.883,0.508
					c-0.176-0.238-0.555-0.37-0.815-0.08l-0.096,0.08c0.785,0.604,1.106,1.391,1.465,2.21c-0.201,0.166-0.41,0.325-0.682,0.244
					c-0.127-0.167-0.208-0.376-0.453-0.267c-0.434,0.188,0.096,0.841-0.46,0.928c0.025,0.136,0.326,0.136,0.223,0.383
					c-0.095,0.08-0.223,0.057-0.35,0.057c-0.098-0.58-0.858-0.167-1.232-0.144l-0.279,0.382c-0.226-0.325,0.481-0.483,0.046-0.793
					c-0.219-0.295-0.65,0.218-0.724-0.243c-0.43-0.165-1.015-0.108-1.495-0.052c-0.275,0.052-0.172,0.491-0.498,0.468
					c-0.124-0.326,0.275-0.638,0-0.962c0.554-0.428,1.108-1.146,1.91-1.223c0.177-0.435,0.806-0.024,0.859-0.572
					c-0.501-0.021-0.859-0.653-1.413-0.358c-0.427,0.085-0.678-0.621-1.03-0.078c-0.287,0.414-0.628,0.875-0.424,1.467
					c-0.078,0.035-0.156,0.138-0.257,0.081c-0.029-0.27-0.099-0.62-0.448-0.485l-0.379,0.16c0.169,0,0.05-0.216,0.099-0.295
					c-0.13-0.052-0.554,0.158-0.554-0.187c-0.049-0.305-0.379-0.082-0.537-0.225c0.257-0.923,1.392-0.135,1.617-1.166
					c0.255-0.058,0.357,0.106,0.333,0.301c0.325,0.021,0.325-0.524,0.678-0.439c0.128,0.244-0.229,0.439-0.229,0.672
					c0.229,0,0.409-0.325,0.558-0.483c-0.103-0.548,0.577-0.736,0.534-1.289c0.321-0.267,0.551-0.762,1.006-0.675l0.177,0.386
					c0.272-0.274,0.728-0.386,0.809-0.821l-0.308-0.114l0.049-0.243c-0.205-0.022-0.35-0.138-0.551-0.081
					c-0.229,0.359-0.459,0.765-0.862,0.874l0.229-0.243c-0.526-0.794-0.887,0.459-1.285,0.629c-0.026,0.103-0.099,0.188-0.18,0.243
					h-0.177c-0.025-0.198,0.177-0.141,0.229-0.276c-0.279,0.113-0.607-0.462-0.731,0.078c-0.3-0.101-0.202,0.278-0.359,0.417h0.413
					c-0.053,0.649-0.683,0.842-1.088,1.172c-0.229,0.08-0.243,0.353-0.504,0.327c0-0.41,0.504-0.954,0.783-1.233l0.128-0.135
					c-0.057-0.057-0.128-0.109-0.106-0.19l0.155-0.16c-0.05-0.033-0.074-0.111-0.155-0.089c0.209-0.405,0.709-0.591,1.014-0.836
					c0.099-0.115-0.05-0.252-0.124-0.332c0.272-0.467,0.876-0.93,1.307-1.088c0.173,0.295,0.378-0.167,0.632-0.106
					c-0.501,0.51-1.138,1.166-1.777,1.526l0.085,0.296c0.555-0.275,1.035-0.931,1.592-1.221c0.194,0.267-0.685,0.52-0.029,0.623
					c0.223-0.332,0.428-0.519,0.756-0.678l0.226,0.158c0.58-0.268,1.112-0.705,1.819-0.597c0.622-0.524,1.438-0.607,2.215-0.684
					c0.021,0.078-0.124,0.114-0.081,0.244c0.185,0.295,0.434-0.188,0.689,0.051v0.491c-0.271,0.136-0.83-0.349-0.911,0.28
					c0.283,0.112,0.678,0.239,0.989,0.057c0.646-0.144,0.776-1.175,1.557-0.879c0.537-0.085,1.261-0.713,1.713-0.051
					c0.858,0.022,1.211-1.261,2.225-0.797c0.168,0.574,0.928,0.055,1.059,0.66c0.678,0.188,1.028-0.359,1.476-0.718
					c0.989,0.035,2.049-0.347,2.597,0.662C191.064,20.709,191.21,20.109,191.518,20.06"/>
			</g>
			<g>
				<path fill="#0092A7" d="M204.398,20.874c0.148-0.028,0.381,0.055,0.555,0.158c-0.279,0.144-0.226,0.496-0.406,0.684
					c0.3,0.114,0.784,0.138,0.861,0.548c0,0.136-0.023,0.271-0.147,0.381c-0.413,0-0.501-0.49-0.937-0.434
					c-0.022-0.462-0.278-0.764-0.651-0.986c-0.23,0.106-0.563-0.104-0.818-0.24c0.241-0.251,0.411-0.606,0.818-0.438
					C203.823,20.816,204.123,21.01,204.398,20.874"/>
			</g>
			<g>
				<path fill="#0092A7" d="M203.894,22.052c0.201,0.457-0.473,0.457-0.298,0.839c-0.68,0.597-0.742-0.678-1.364-0.626
					c-0.175-0.212-0.407-0.593-0.79-0.468c-0.043-0.081-0.094-0.291,0.057-0.382C202.284,21.557,203.443,21.033,203.894,22.052"/>
			</g>
			<g>
				<path fill="#0092A7" d="M171.78,22.89l0.124,0.056c-0.456,0.519-1.265,0.734-1.536,1.465c0.176,0,0.428-0.153,0.558-0.347
					c0.478,0.405-0.332,0.438-0.413,0.792c0,0.056,0.081,0.056,0.127,0.056c0.131,0.194-0.271,0.298,0,0.427l-0.547,0.856
					l-0.078-0.305c-0.077-0.022-0.099,0.08-0.177,0.052c-0.048-0.244,0.256-0.383,0.403-0.547c0.128,0.057,0.151-0.104,0.128-0.186
					c0-0.082,0.048-0.162-0.053-0.219c-0.248,0-0.248,0.405-0.478,0.405c-0.071-0.29,0.435-0.518,0.304-0.844h-0.179l-1.303,1.145
					c0.93-0.65,1.533-2.232,2.772-2.615c0.1-0.192,0.273-0.438,0.474-0.489L171.78,22.89"/>
			</g>
			<g>
				<path fill="#0092A7" d="M215.793,24.258c-0.35,0.454,0.557,0.454,0.172,0.848c0.054,0.454,0.234,0.895,0.559,1.167v0.109
					c-0.628,0.135-0.851-0.684-1.413-0.65c-0.302-0.223,0.049-0.583-0.324-0.764c-0.075-0.222,0.176-0.198,0.226-0.358
					c-0.226-0.244-0.353-0.57-0.353-0.848C215.045,23.796,215.673,23.68,215.793,24.258"/>
			</g>
			<g>
				<path fill="#0092A7" d="M169.513,25.647c-0.226,0.323-0.678,0.189-0.785,0.683c-0.125,0.052-0.229-0.115-0.25-0.195
					c0.096-0.438,0.604-0.488,0.809-0.843C169.464,25.293,169.657,25.453,169.513,25.647"/>
			</g>
			<g>
				<path fill="#0092A7" d="M194.566,26.922c0.279,0.222,0.558,0.52,0.632,0.879c-0.124,0.106-0.325,0-0.455,0.106
					c0.032,0.417-0.453,0.52-0.728,0.383c-0.23-0.19-0.353,0.214-0.572,0.137c-0.614,0.489-0.791-0.416-1.346-0.381l-0.223-0.305
					c0.268-0.403,0.883,0.023,1.126-0.381l-0.522-0.493c0.145-0.242,0.424-0.188,0.678-0.188c0.125,0.465,0.402-0.082,0.628-0.053
					C194.114,26.706,194.549,26.382,194.566,26.922"/>
			</g>
			<g>
				<path fill="#0092A7" d="M172.184,27.662c0,0.268-0.46,0.518-0.134,0.741c0,0.322-0.145,0.649-0.444,0.763
					c-0.473-0.058-0.173,0.787-0.735,0.649c0.399-0.461-0.173-0.929-0.05-1.389C171.35,28.404,171.625,27.496,172.184,27.662"/>
			</g>
			<g>
				<path fill="#0092A7" d="M197.748,30.392l0.625,0.049c0.156,0.411-0.395,0.196-0.448,0.439l0.223,0.103
					c-0.168,0.081-0.052,0.251-0.102,0.395c0.204,0.21,0.402,0.402,0.682,0.402c0.382,0.519,0.603,1.032,0.961,1.526
					c0,0.462,1.461,0.195,0.677,0.928c-0.373-0.222-0.35,0.565-0.78,0.485c-0.399-0.301-0.806,0.136-1.212,0
					c-0.074,0.383-0.504,0.406-0.776,0.576c-0.282-0.029-0.381-0.273-0.462-0.518c0-0.216,0.18-0.216,0.335-0.216
					c0.152-0.109,0.399-0.109,0.575-0.246c-0.066-0.165-0.594-0.358-0.275-0.626c0.123-0.135,0.324-0.113,0.431-0.302
					c-0.222-0.295-0.205-0.899-0.658-0.933c-0.23-0.347-0.377-1.076-0.932-1.111c-0.225-0.299-0.098-1.087-0.653-0.842
					c-0.13-0.058-0.106-0.359-0.025-0.495c0.377,0.655,0.777-0.462,1.159,0.192l0.042-0.244
					C197.37,30.038,197.851,29.953,197.748,30.392"/>
			</g>
			<g>
				<path fill="#0092A7" d="M196.61,32.812c-0.099,0.335,0.125,0.632,0.125,1.008c-0.424,0.055-0.477,0.764-1.003,0.552
					c-0.257,0.244-0.501,0.46-0.858,0.428c-0.307-0.348-0.205-0.866-0.13-1.3c0.201-0.274,0.18-0.574,0.504-0.793
					C195.551,32.214,196.384,32.35,196.61,32.812"/>
			</g>
			<g>
				<path fill="#0092A7" d="M168.605,54.294c0.403,0.138,0.148-0.483,0.501-0.438c-0.148,0.741,0.452,0.98,0.682,1.475
					c-0.301,0-0.628,0.411-0.912,0.052c-0.042-0.326-0.423-0.225-0.628-0.301c-0.028-0.811-1.311,0.035-1.105-0.923
					c-0.504-0.269-0.275-0.873-0.858-0.975c-0.324-0.091-0.208,0.382-0.406,0.483c-0.152,0.244-0.431,0.549-0.724,0.44
					c-0.156-0.114-0.107-0.353,0-0.44c0.601-0.026,0.47-0.979,1.18-0.899C167.242,52.906,167.952,53.59,168.605,54.294"/>
			</g>
			<g>
				<path fill="#0092A7" d="M172.688,56.37c-0.678,0.022-1.314,0.08-1.942,0.33l-0.329-0.137c0-0.461,0.714-0.279,0.453-0.901
					c0.734-0.387,1.015,0.325,1.695,0.348C172.664,56.1,172.713,56.204,172.688,56.37"/>
			</g>
			<g>
				<path fill="#0092A7" d="M174.504,56.504c0.078,0.161,0.324,0.359,0.223,0.549c-0.145-0.057-0.478,0.113-0.453-0.189
					c0.05-0.523-0.608-0.222-0.854-0.472c-0.127-0.074-0.177-0.188-0.177-0.326c0.177-0.166,0.453-0.108,0.678-0.188
					C173.95,56.204,174.274,56.34,174.504,56.504"/>
			</g>
			<g>
				<path fill="#0092A7" d="M217.657,74.356c0.026,0.522-0.402,1.008-0.681,1.333c-0.271,0.992-1.055,1.808-1.532,2.65
					c-0.887,0.085-0.634,1.279-1.413,1.58c-0.333,0.439-0.962,0.41-1.083,1.011c-0.785,0.113-0.929,1.309-1.796,1.043
					c0.759-0.36,0.233-1.506,1.116-1.717c0.297-0.146,0.526-0.527,0.68-0.817c0.426-0.382,1.239-0.687,1.162-1.451
					c0.32-0.222,0.854-0.492,0.878-0.986C216.273,76.659,216.508,75.016,217.657,74.356"/>
			</g>
		</g>
		<g>
			<path fill="#41555D" d="M37.659,58.162c0.551,0,1.449,0.058,2.886,0.058c1.592,0,2.487,0,3.73-0.058
				c0.498,0,0.844-0.488,0.798-0.649c-1.791-5.916-2.839-8.917-3.683-11.229c-0.148-0.331-0.448-0.388-0.547-0.165
				c-1.688,4.038-2.331,5.868-4.324,11.396c-0.102,0.275,0.399,0.648,1.092,0.648L37.659,58.162L37.659,58.162z M44.028,36.969
				c0.498,0,0.543,0.114,0.791,0.917c1.499,4.728,2.537,7.694,4.285,12.695c1.689,4.838,5.072,13.608,5.867,15.481
				c1.285,2.957,2.045,4.358,4.923,5.008c0.05-0.111-0.3,1.718-0.7,1.776c-5.067-0.058-6.014-0.116-7.704-0.116
				c-1.593,0-3.729,0.165-4.28,0.165c-0.197,0-0.299-0.05-0.35-0.21c-0.095-0.275-0.544-1.406-0.448-1.512
				c2.041-0.58,2.338-0.907,2.338-1.99c0-1.294-1.839-6.344-2.087-6.937c-0.396-1.021-0.798-1.34-1.088-1.34
				c-1.797,0-7.17-0.056-9.452,0.159c-0.85,0.051-1.095,0.48-1.447,1.447c-0.496,1.408-1.693,4.363-1.693,5.97
				c0,1.349,0.75,1.889,3.09,2.422c0.395,0.107-0.148,1.727-0.399,1.78c-3.129-0.054-5.966-0.054-6.962-0.054
				c-0.897,0-1.642,0.054-1.839,0c-0.25,0-0.3-0.061-0.35-0.222c-0.148-0.27-0.551-1.397-0.292-1.505
				c2.578-0.754,3.178-3.016,4.271-5.538c1.141-2.632,7.061-17.156,9.649-23.935c0.444-1.23,0.848-2.522,1.141-3.172
				c0.099-0.376,0.25-0.643,0.448-0.746c0.543-0.268,1.494-0.546,2.235-0.546L44.028,36.969"/>
		</g>
		<g>
			<path fill="#41555D" d="M59.742,55.519c0-3.758,0.848-8.436,4.03-12.251c2.631-3.171,6.764-4.791,10.444-5.649
				c2.235-0.535,4.376-0.649,6.415-0.649c2.239,0,4.623,0.326,5.62,0.759c0.441,0.158,1.49-0.327,1.841-0.479
				c0.197-0.057,0.438-0.057,1.193,0.268c0.393,0.104,0.393,0.267,0.342,0.479c-0.993,2.9-1.046,5.485-0.844,9.147
				c0,0.101-0.148,0.209-0.691,0.209c-0.898,0.057-1.202-0.165-1.293-0.434c-0.152-0.591-0.7-2.255-1.099-3.224
				c-0.346-0.915-0.59-1.662-1.491-2.529c-0.898-0.911-3.229-2.046-5.714-2.046c-2.787,0-5.82,1.408-8.007,4.414
				c-2.494,3.384-3.334,7.748-3.334,11.983c0,6.135,3.081,15.655,12.136,15.655c3.334,0,5.871-2.469,7.258-4.188
				c0.944-1.237,1.442-2.587,1.787-3.287c0.054-0.105,0.248-0.21,0.798,0.33c0.601,0.371,0.692,0.538,0.643,1.019
				c-0.491,3.168-1.587,5.857-2.285,7.092c-0.346,0.492-0.498,0.492-1.043,0.545c-1.448,0-4.128,0.906-7.653,0.906
				c-13.733,0-19.052-9.669-19.052-18.016v-0.055"/>
		</g>
		<g>
			<path fill="#41555D" d="M107.287,39.716c-0.753,0-2.988,0.381-3.531,0.916c-0.251,0.154-0.4,0.591-0.449,1.077
				c-0.148,1.887-0.296,6.989-0.296,11.403c0,7.797,0,13.067,0.746,16.175c0.098,0.493,0.25,0.713,0.699,0.867
				c1.087,0.44,2.133,0.691,3.277,0.691c1.894,0,4.273-0.637,7.114-2.52c3.977-2.691,6.011-8.01,6.011-13.665
				c0-5.751-2.385-9.728-4.872-11.822c-3.086-2.581-6.615-3.121-8.653-3.121h-0.045L107.287,39.716L107.287,39.716z M128.323,55.309
				c0,2.91-1.202,7.637-4.776,11.243c-3.433,3.548-5.87,4.461-8.504,5.32c-2.692,0.859-4.479,0.976-7.958,0.976
				c-2.631,0-7.509-0.215-8.41-0.215c-1.787,0-3.529,0-4.867,0.054c0-0.489-0.109-1.513,0-1.78c1.989-0.863,2.582-1.188,2.631-2.156
				c0.255-4.026,0.203-13.174,0.203-19.679c0-5.433-0.046-6.668-0.099-7.315c-0.054-0.804-0.453-1.387-2.787-1.83
				c-0.152-0.046-0.152-0.313-0.202-1.281l-0.045-0.701c1.844,0,4.475-0.114,7.314-0.16c3.229-0.054,4.97-0.164,7.459-0.164
				c3.571,0,9.988,0.536,14.574,4.95c3.673,3.548,5.468,7.795,5.468,12.682V55.309"/>
		</g>
		<g>
			<path fill="#41555D" d="M147.862,39.669c-4.225,0.587-4.574,1.014-4.771,1.988c-0.201,0.957-0.349,3.007-0.349,8.497v8.436
				c0,4.147,0.148,8.288,0.44,10.27c0.157,0.919,0.404,1.349,1.05,1.451c0.35,0.06,1.444,0.282,2.486,0.489
				c0.243,0,0.35,0.106,0.35,0.271c0,0.324-0.154,1.393-0.243,1.718c-3.643-0.103-5.725-0.156-7.82-0.156
				c-3.923,0-6.46,0.214-6.608,0.214c-0.351,0-0.549-0.214-0.601-0.436c-0.05-0.383-0.244-1.184-0.198-1.505
				c2.787-0.267,3.829-0.535,4.277-2.1c0.202-0.801,0.551-2.578,0.551-9.726V48.427c0-7.261-0.054-8.013-1.844-8.33
				c-0.692-0.115-1.541-0.218-2.186-0.218c-0.296,0-0.396-0.109-0.396-0.434c0-0.158,0.046-0.535,0.243-1.023
				c0.203-0.327,0.25-0.429,0.402-0.429c0.396-0.051,0.84-0.051,1.536-0.051c0.748,0,2.039,0.109,6.421,0.051
				c2.43,0,5.464-0.108,6.014-0.108c0.65,0,0.701,0.057,0.75,0.21L147.862,39.669"/>
		</g>
		<g>
			<path fill="#FFFFFF" d="M271.909,39.613c-0.444,0.046-0.699,0.154-1.145,0.536c-0.596,0.478-1.54,2.521-2.988,5.592
				c-1.437,3.008-6.961,15.913-9.444,22.583c-0.243,0.649-0.495,1.185-0.891,1.943c-0.397,0.693-0.797,1.716-1.302,2.58
				c-0.096,0.213-0.293,0.373-0.789,0.373c-0.844,0-1.292-0.16-1.437-0.488c-0.202-0.269-0.756-1.452-1.948-4.734
				c-4.37-12.097-8.057-20.378-9.445-23.711c-1.787-4.408-2.19-4.732-4.871-5.266l0.545-1.401c0.099-0.325,0.3-0.325,0.497-0.325
				c2.381,0.222,5.916,0.267,6.958,0.267c1.695,0,3.384-0.102,5.072-0.102c0.251,0,0.406,0.102,0.308,1.014
				c-0.107,0.815-0.155,0.974-0.4,1.025c-2.094,0.27-2.342,0.591-1.893,2.258c0.351,1.292,0.844,2.64,3.08,8.444
				c2.098,5.485,3.683,9.465,5.325,13.231c0.146,0.377,0.544,0.21,0.747-0.158c0.946-1.988,3.125-7.206,5.771-14.144
				c0.788-2.045,1.829-5.108,3.08-8.815c0.149-0.492-0.452-0.758-1.444-0.815l-2.088-0.109c-0.202,0-0.347-0.21-0.247-0.323
				c0.496-1.397,0.543-1.666,0.887-1.666c1.193,0,3.836,0.16,5.129,0.16c0.991,0,2.584-0.16,3.682-0.16
				c0.943,0,1.045,0.811,1.045,1.72c0,0.325-0.053,0.434-0.401,0.377L271.909,39.613"/>
		</g>
		<g>
			<path fill="#FFFFFF" d="M285.49,38.638c-2.544,0-4.874,1.4-6.564,3.663c-2.191,2.954-2.937,6.663-2.937,11.611
				c0,5.212,1.644,9.729,3.928,12.476c2.881,3.495,5.521,4.626,8.452,4.626c3.924,0,8.451-5.218,8.451-14.679
				c0-4.899-0.795-10.054-3.779-13.721c-1.592-1.933-4.224-3.977-7.51-3.977H285.49L285.49,38.638z M286.726,36.599
				c9.254,0,17.409,7.688,17.409,17.479c0,6.608-2.691,11.556-5.869,14.46c-3.681,3.444-7.955,4.681-10.539,4.681
				c-5.668,0-11.344-2.313-14.876-6.616c-2.486-3.018-4.223-7.805-4.223-12.153c0-4.62,1.791-9.25,5.318-12.694
				c3.383-3.39,8.154-5.157,12.735-5.157H286.726"/>
		</g>
		<g>
			<path fill="#FFFFFF" d="M306.622,55.151c0-3.765,0.844-8.442,4.025-12.257c2.632-3.178,6.761-4.798,10.445-5.646
				c2.232-0.546,4.376-0.649,6.417-0.649c2.23,0,4.628,0.325,5.609,0.753c0.451,0.164,1.497-0.326,1.85-0.486
				c0.19-0.054,0.438-0.054,1.187,0.268c0.403,0.115,0.403,0.268,0.342,0.486c-0.983,2.904-1.038,5.484-0.835,9.141
				c0,0.112-0.148,0.216-0.692,0.216c-0.907,0.052-1.2-0.16-1.3-0.427c-0.148-0.598-0.693-2.262-1.095-3.224
				c-0.343-0.923-0.594-1.672-1.487-2.539c-0.894-0.905-3.231-2.032-5.715-2.032c-2.787,0-5.824,1.396-8.007,4.409
				c-2.494,3.388-3.339,7.74-3.339,11.99c0,6.134,3.088,15.649,12.138,15.649c3.326,0,5.865-2.476,7.254-4.195
				c0.944-1.237,1.444-2.574,1.798-3.275c0.047-0.115,0.242-0.222,0.787,0.313c0.601,0.388,0.7,0.542,0.65,1.026
				c-0.499,3.177-1.593,5.865-2.293,7.103c-0.338,0.484-0.499,0.484-1.039,0.527c-1.439,0-4.122,0.924-7.656,0.924
				c-13.723,0-19.045-9.681-19.045-18.016v-0.056"/>
		</g>
		<g>
			<path fill="#FFFFFF" d="M347.3,57.787c0.543,0,1.441,0.051,2.878,0.051c1.593,0,2.491,0,3.733-0.051
				c0.495,0,0.841-0.484,0.796-0.649c-1.787-5.912-2.841-8.925-3.677-11.245c-0.148-0.313-0.452-0.37-0.552-0.152
				c-1.69,4.03-2.335,5.854-4.322,11.396c-0.1,0.268,0.395,0.649,1.098,0.649L347.3,57.787L347.3,57.787z M353.664,36.599
				c0.495,0,0.543,0.104,0.794,0.917c1.493,4.727,2.53,7.685,4.278,12.685c1.687,4.842,5.076,13.608,5.864,15.494
				c1.294,2.955,2.043,4.351,4.923,4.999c0.056-0.115-0.289,1.719-0.689,1.771c-5.076-0.053-6.024-0.106-7.714-0.106
				c-1.598,0-3.726,0.166-4.273,0.166c-0.202,0-0.305-0.059-0.351-0.228c-0.098-0.267-0.547-1.39-0.459-1.496
				c2.052-0.592,2.349-0.917,2.349-1.992c0-1.285-1.845-6.339-2.089-6.937c-0.402-1.02-0.795-1.345-1.098-1.345
				c-1.783,0-7.152-0.051-9.441,0.16c-0.851,0.056-1.099,0.489-1.452,1.458c-0.491,1.396-1.682,4.351-1.682,5.971
				c0,1.337,0.742,1.884,3.079,2.418c0.399,0.108-0.146,1.722-0.406,1.764c-3.124-0.042-5.958-0.042-6.952-0.042
				c-0.895,0-1.644,0.042-1.849,0c-0.239,0-0.292-0.057-0.343-0.227c-0.15-0.26-0.548-1.389-0.296-1.496
				c2.582-0.754,3.179-3.011,4.271-5.54c1.148-2.638,7.068-17.155,9.657-23.938c0.445-1.229,0.839-2.522,1.14-3.167
				c0.103-0.37,0.25-0.638,0.448-0.752c0.544-0.268,1.492-0.535,2.232-0.535L353.664,36.599"/>
		</g>
	</g>
</g>
</svg>
