<?xml version="1.0" encoding="utf-8"?>
<!-- Generator: Adobe Illustrator 16.0.0, SVG Export Plug-In . SVG Version: 6.00 Build 0)  -->
<!DOCTYPE svg PUBLIC "-//W3C//DTD SVG 1.1//EN" "http://www.w3.org/Graphics/SVG/1.1/DTD/svg11.dtd">
<svg version="1.1" id="Layer_1" xmlns="http://www.w3.org/2000/svg" xmlns:xlink="http://www.w3.org/1999/xlink" x="0px" y="0px"
	 width="505.5px" height="146px" viewBox="0 0 505.5 146" enable-background="new 0 0 505.5 146" xml:space="preserve">
<g>
	<g>
		<g>
			<g>
				<path fill="#41555D" d="M35.037,134.572c0.509-0.032,0.926-0.266,1.237-0.696c0.207-0.271,0.491-0.867,0.867-1.797l4.749-11.704
					h0.596l4.776,11.24c0.532,1.257,0.931,2.072,1.197,2.43c0.266,0.371,0.637,0.541,1.123,0.527v0.546h-6.913v-0.546
					c0.692-0.027,1.146-0.087,1.366-0.179c0.22-0.087,0.331-0.32,0.331-0.684c0-0.169-0.06-0.421-0.17-0.766
					c-0.068-0.196-0.16-0.444-0.279-0.732l-0.541-1.288h-4.804c-0.316,0.848-0.509,1.397-0.6,1.664
					c-0.197,0.54-0.285,0.943-0.285,1.191c0,0.312,0.197,0.532,0.61,0.67c0.243,0.077,0.61,0.118,1.104,0.123v0.546h-4.364V134.572z
					 M43.059,130.075l-2.063-4.951h-0.17l-1.935,4.951H43.059z"/>
			</g>
			<g>
				<path fill="#41555D" d="M52.708,134.604c0.399-0.046,0.669-0.133,0.812-0.248c0.238-0.188,0.357-0.536,0.357-1.04v-6.29
					c0-0.453-0.073-0.752-0.239-0.916c-0.165-0.161-0.467-0.267-0.93-0.326v-0.509h4.057v1.531c0.357-0.463,0.706-0.825,1.031-1.086
					c0.624-0.468,1.316-0.697,2.067-0.697c0.862,0,1.527,0.201,1.994,0.601c0.271,0.233,0.519,0.61,0.761,1.128h0.142
					c0.399-0.491,0.789-0.857,1.16-1.114c0.582-0.413,1.215-0.614,1.911-0.614c0.743,0,1.408,0.238,1.985,0.715
					c0.573,0.481,0.857,1.247,0.857,2.278v5.377c0,0.496,0.087,0.808,0.248,0.945c0.156,0.138,0.436,0.229,0.848,0.266v0.514h-5.08
					v-0.514c0.39-0.056,0.661-0.146,0.812-0.284c0.16-0.138,0.233-0.444,0.233-0.927v-5.18c0-0.55-0.078-0.981-0.247-1.293
					c-0.166-0.302-0.477-0.458-0.936-0.458c-0.367,0-0.752,0.165-1.165,0.509c-0.403,0.335-0.61,0.573-0.61,0.701v5.721
					c0,0.469,0.069,0.771,0.207,0.899c0.137,0.128,0.403,0.238,0.783,0.312v0.514h-5.001v-0.514
					c0.376-0.046,0.647-0.138,0.802-0.274c0.166-0.138,0.248-0.449,0.248-0.937v-5.18c0-0.541-0.083-0.972-0.234-1.283
					c-0.146-0.308-0.467-0.468-0.953-0.468c-0.431,0-0.848,0.184-1.215,0.536c-0.375,0.362-0.564,0.587-0.564,0.674v5.721
					c0,0.469,0.064,0.771,0.192,0.899c0.138,0.128,0.404,0.238,0.789,0.312v0.514h-5.125V134.604z"/>
			</g>
			<g>
				<path fill="#41555D" d="M72.847,139.01c0.473-0.05,0.784-0.151,0.949-0.316c0.169-0.165,0.252-0.468,0.252-0.921v-10.746
					c0-0.453-0.083-0.752-0.233-0.912c-0.156-0.155-0.454-0.266-0.908-0.33v-0.509h4.085v1.407c0.289-0.49,0.573-0.843,0.862-1.077
					c0.495-0.398,1.132-0.601,1.917-0.601c1.123,0,2.054,0.413,2.792,1.266c0.748,0.839,1.114,2.095,1.114,3.764
					c0,1.554-0.399,2.838-1.197,3.855c-0.793,1.018-1.77,1.531-2.916,1.531c-0.578,0-1.137-0.17-1.655-0.514
					c-0.275-0.175-0.564-0.436-0.858-0.771v1.807c0,0.963,0.01,1.503,0.014,1.618c0.05,0.56,0.193,0.949,0.431,1.15
					c0.247,0.216,0.646,0.339,1.21,0.376v0.431h-5.859V139.01z M80.287,132.697c0.143-0.563,0.225-1.375,0.225-2.438
					c0-1.215-0.115-2.191-0.339-2.925c-0.22-0.725-0.674-1.087-1.357-1.087c-0.458,0-0.866,0.197-1.229,0.601
					c-0.362,0.404-0.537,0.697-0.537,0.881v5.198c0,0.211,0.166,0.477,0.514,0.807c0.339,0.335,0.729,0.495,1.16,0.495
					C79.499,134.229,80.017,133.72,80.287,132.697z"/>
			</g>
			<g>
				<path fill="#41555D" d="M86.994,134.604c0.371-0.087,0.642-0.211,0.802-0.357c0.151-0.151,0.234-0.459,0.234-0.931v-10.888
					c0-0.458-0.078-0.761-0.22-0.907c-0.142-0.134-0.417-0.248-0.815-0.34v-0.514h4.057v12.648c0,0.472,0.064,0.779,0.224,0.921
					c0.156,0.152,0.422,0.275,0.807,0.367v0.514h-5.088V134.604z"/>
			</g>
			<g>
				<path fill="#41555D" d="M95.218,134.604c0.375-0.06,0.642-0.155,0.774-0.274c0.211-0.193,0.316-0.532,0.316-1.014v-6.29
					c0-0.436-0.069-0.729-0.225-0.89c-0.142-0.155-0.426-0.27-0.866-0.353v-0.509h4.107v8.118c0,0.469,0.064,0.771,0.206,0.899
					c0.142,0.128,0.403,0.238,0.784,0.312v0.514h-5.098V134.604z M96.648,120.834c0.321-0.321,0.715-0.486,1.174-0.486
					c0.453,0,0.843,0.165,1.164,0.486c0.321,0.32,0.486,0.71,0.486,1.169c0,0.462-0.165,0.856-0.486,1.178
					c-0.321,0.325-0.711,0.486-1.164,0.486c-0.458,0-0.853-0.161-1.174-0.486c-0.326-0.321-0.486-0.716-0.486-1.178
					C96.162,121.544,96.323,121.154,96.648,120.834z"/>
			</g>
			<g>
				<path fill="#41555D" d="M105.038,130.827c0.921-0.56,2.384-1.128,4.355-1.7v-1.555c0-0.633-0.142-1.109-0.403-1.407
					c-0.271-0.298-0.738-0.454-1.421-0.454c-0.385,0-0.701,0.073-0.949,0.216c-0.248,0.142-0.367,0.32-0.367,0.536
					c0,0.083,0.009,0.156,0.037,0.211c0.027,0.055,0.073,0.114,0.124,0.174l0.128,0.151c0.096,0.115,0.179,0.243,0.234,0.39
					c0.06,0.146,0.087,0.294,0.087,0.45c0,0.402-0.133,0.719-0.403,0.938c-0.261,0.216-0.577,0.326-0.93,0.326
					c-0.413,0-0.766-0.119-1.055-0.362c-0.275-0.243-0.431-0.591-0.431-1.05c0-0.825,0.385-1.472,1.16-1.953
					c0.775-0.477,1.724-0.715,2.856-0.715c1.206,0,2.224,0.229,3.035,0.697c0.807,0.472,1.21,1.348,1.21,2.612v5.181
					c0,0.151,0.037,0.279,0.124,0.39c0.069,0.105,0.165,0.16,0.266,0.16c0.083,0,0.156-0.019,0.22-0.05
					c0.064-0.028,0.169-0.115,0.303-0.253l0.33,0.449c-0.417,0.486-0.88,0.825-1.394,1.019c-0.316,0.128-0.651,0.192-1.009,0.192
					c-0.628,0-1.096-0.184-1.389-0.551c-0.165-0.215-0.289-0.522-0.362-0.935c-0.587,0.591-1.265,1.013-2.008,1.256
					c-0.445,0.156-0.894,0.229-1.334,0.229c-0.582,0-1.132-0.184-1.641-0.56c-0.509-0.372-0.761-0.954-0.761-1.737
					C103.648,132.156,104.111,131.396,105.038,130.827z M108.764,133.582c0.166-0.124,0.367-0.321,0.592-0.591v-3.127
					c-0.564,0.143-1.064,0.362-1.503,0.66c-0.725,0.514-1.091,1.155-1.091,1.953c0,0.463,0.105,0.816,0.321,1.054
					c0.211,0.238,0.44,0.367,0.71,0.367C108.141,133.898,108.466,133.793,108.764,133.582z"/>
			</g>
			<g>
				<path fill="#41555D" d="M116.424,134.604c0.395-0.046,0.674-0.155,0.862-0.321c0.184-0.16,0.28-0.485,0.28-0.967v-6.29
					c0-0.436-0.073-0.737-0.229-0.902c-0.147-0.17-0.454-0.28-0.913-0.34v-0.509h4.057v1.531c0.335-0.509,0.771-0.939,1.293-1.278
					c0.527-0.335,1.109-0.505,1.751-0.505c0.921,0,1.632,0.238,2.136,0.711c0.504,0.472,0.752,1.306,0.752,2.498v5.161
					c0,0.482,0.087,0.789,0.248,0.937c0.169,0.137,0.44,0.229,0.826,0.274v0.514h-5.024v-0.514c0.385-0.073,0.642-0.184,0.784-0.312
					c0.142-0.129,0.206-0.431,0.206-0.899v-5.18c0-0.485-0.05-0.844-0.151-1.091c-0.166-0.44-0.486-0.66-0.986-0.66
					c-0.372,0-0.706,0.133-1.018,0.398c-0.307,0.275-0.545,0.541-0.715,0.812v5.721c0,0.469,0.073,0.771,0.211,0.899
					c0.133,0.128,0.394,0.238,0.779,0.312v0.514h-5.148V134.604z"/>
			</g>
			<g>
				<path fill="#41555D" d="M132.007,126.486c0.811-0.977,1.778-1.463,2.901-1.463c0.56,0,1.063,0.138,1.504,0.417
					c0.266,0.165,0.609,0.463,1.018,0.894v-3.905c0-0.541-0.101-0.885-0.303-1.013c-0.215-0.133-0.646-0.207-1.302-0.234v-0.514
					h4.607v12.313c0,0.436,0.083,0.743,0.248,0.917c0.165,0.165,0.495,0.271,0.981,0.312v0.495
					c-1.196,0.115-1.966,0.202-2.319,0.267c-0.344,0.055-0.958,0.201-1.833,0.449v-1.407c-0.408,0.417-0.775,0.724-1.105,0.93
					c-0.532,0.321-1.1,0.478-1.714,0.478c-1.041,0-1.953-0.445-2.728-1.325c-0.77-0.885-1.16-2.086-1.16-3.604
					C130.801,128.801,131.205,127.472,132.007,126.486z M136.889,133.596c0.367-0.412,0.541-0.696,0.541-0.871v-5.198
					c0-0.174-0.147-0.431-0.468-0.774c-0.307-0.344-0.729-0.505-1.247-0.505c-0.761,0-1.278,0.519-1.549,1.572
					c-0.151,0.568-0.22,1.362-0.22,2.394c0,1.101,0.068,1.926,0.206,2.484c0.266,1.009,0.756,1.513,1.49,1.513
					C136.104,134.21,136.517,134.009,136.889,133.596z"/>
			</g>
			<g>
				<path fill="#41555D" d="M146.282,126.49c0.921-0.99,2.067-1.485,3.447-1.485c1.417,0,2.581,0.505,3.475,1.522
					c0.898,1.018,1.352,2.25,1.352,3.694c0,1.426-0.444,2.659-1.334,3.682c-0.894,1.026-2.049,1.535-3.493,1.535
					c-1.385,0-2.54-0.495-3.452-1.494c-0.907-1-1.361-2.241-1.361-3.723C144.916,128.737,145.37,127.489,146.282,126.49z
					 M148.276,133.362c0.252,0.921,0.734,1.389,1.453,1.389c0.688,0,1.146-0.357,1.362-1.059c0.22-0.711,0.33-1.866,0.33-3.471
					c0-1.595-0.124-2.741-0.343-3.461c-0.225-0.71-0.674-1.068-1.334-1.068c-0.719,0-1.205,0.459-1.453,1.39
					c-0.156,0.614-0.239,1.668-0.239,3.14C148.051,131.716,148.129,132.771,148.276,133.362z"/>
			</g>
		</g>
		<g>
			<g>
				<path fill="#41555D" d="M178.752,122.323c1.472,1.453,2.2,3.306,2.2,5.593c0,2.283-0.729,4.148-2.2,5.588
					c-1.426,1.417-3.214,2.123-5.368,2.123c-2.273,0-4.13-0.774-5.575-2.319c-1.33-1.454-2.003-3.214-2.003-5.276
					c0-2.274,0.697-4.145,2.104-5.603c1.421-1.485,3.241-2.224,5.474-2.224C175.543,120.205,177.331,120.907,178.752,122.323z
					 M176.685,132.001c0.321-1.046,0.481-2.402,0.481-4.085c0-2.311-0.344-4.057-1.027-5.221c-0.674-1.179-1.59-1.761-2.755-1.761
					c-1.609,0-2.719,0.98-3.314,2.934c-0.316,1.036-0.467,2.384-0.467,4.048c0,1.687,0.156,3.049,0.481,4.085
					c0.582,1.93,1.692,2.893,3.301,2.893C174.979,134.894,176.08,133.931,176.685,132.001z"/>
			</g>
			<g>
				<path fill="#41555D" d="M184.391,139.144c0.454-0.051,0.77-0.156,0.93-0.321c0.17-0.166,0.252-0.486,0.252-0.936v-10.901
					c0-0.458-0.078-0.766-0.234-0.931c-0.161-0.155-0.458-0.271-0.908-0.334v-0.519h4.075v1.426
					c0.293-0.491,0.578-0.853,0.857-1.082c0.504-0.412,1.142-0.614,1.912-0.614c1.123,0,2.054,0.431,2.792,1.274
					c0.747,0.853,1.114,2.137,1.114,3.828c0,1.572-0.399,2.879-1.196,3.91c-0.793,1.036-1.765,1.559-2.897,1.559
					c-0.582,0-1.141-0.179-1.655-0.522c-0.285-0.184-0.573-0.44-0.871-0.784v1.834c0.004,0.977,0.014,1.526,0.018,1.646
					c0.046,0.568,0.193,0.958,0.436,1.174c0.238,0.211,0.642,0.33,1.205,0.376v0.439h-5.831V139.144z M191.803,132.734
					c0.146-0.569,0.22-1.395,0.22-2.467c0-1.247-0.114-2.236-0.334-2.976c-0.22-0.737-0.674-1.104-1.352-1.104
					c-0.458,0-0.867,0.202-1.229,0.615c-0.367,0.407-0.545,0.71-0.545,0.889v5.272c0,0.215,0.174,0.485,0.509,0.824
					c0.353,0.335,0.734,0.505,1.169,0.505C191.01,134.293,191.537,133.77,191.803,132.734z"/>
			</g>
			<g>
				<path fill="#41555D" d="M199.986,126.436c0.917-1,2.068-1.504,3.447-1.504c1.403,0,2.572,0.509,3.466,1.54
					c0.894,1.036,1.348,2.283,1.348,3.755c0,1.448-0.44,2.691-1.334,3.731c-0.889,1.045-2.054,1.563-3.479,1.563
					c-1.389,0-2.535-0.504-3.447-1.521c-0.907-1.014-1.371-2.27-1.371-3.773C198.615,128.719,199.079,127.453,199.986,126.436z
					 M201.98,133.413c0.248,0.943,0.734,1.407,1.453,1.407c0.683,0,1.137-0.354,1.357-1.082c0.215-0.72,0.312-1.885,0.312-3.512
					c0-1.618-0.101-2.792-0.33-3.517c-0.229-0.724-0.665-1.086-1.334-1.086c-0.72,0-1.206,0.473-1.453,1.407
					c-0.146,0.633-0.229,1.696-0.229,3.195C201.755,131.744,201.833,132.808,201.98,133.413z"/>
			</g>
			<g>
				<path fill="#41555D" d="M211.492,134.678c0.408-0.055,0.693-0.151,0.849-0.303c0.16-0.146,0.252-0.431,0.266-0.853l0.018-0.638
					v-5.899c0-0.458-0.078-0.77-0.233-0.931c-0.147-0.16-0.454-0.279-0.899-0.334v-0.519h4.039v1.71
					c0.45-0.605,0.903-1.082,1.348-1.439c0.445-0.349,0.962-0.522,1.545-0.522c0.44,0,0.83,0.142,1.188,0.431
					c0.357,0.275,0.522,0.701,0.522,1.247c0,0.427-0.124,0.779-0.367,1.055c-0.248,0.274-0.564,0.412-0.968,0.412
					c-0.453,0-0.839-0.211-1.178-0.642c-0.331-0.431-0.555-0.65-0.688-0.65c-0.289,0-0.578,0.174-0.862,0.531
					c-0.289,0.362-0.431,0.876-0.431,1.54v4.107c0,0.716,0.101,1.16,0.302,1.339c0.202,0.179,0.615,0.293,1.22,0.357v0.518h-5.671
					V134.678z"/>
			</g>
			<g>
				<path fill="#41555D" d="M223.2,126.16v-0.609c0.193-0.179,0.417-0.386,0.706-0.619c0.362-0.349,0.706-0.706,1.032-1.077
					c0.646-0.72,1.237-1.49,1.76-2.314h0.546v3.662h2.035v0.958h-2.035v6.519c0,0.308,0.045,0.56,0.137,0.766
					c0.133,0.316,0.367,0.481,0.688,0.481c0.275,0,0.509-0.105,0.697-0.302c0.188-0.207,0.376-0.478,0.564-0.835l0.509,0.257
					c-0.247,0.591-0.545,1.077-0.898,1.443c-0.605,0.656-1.348,0.995-2.232,0.995c-0.504,0-0.94-0.101-1.311-0.289
					c-0.72-0.371-1.086-1.04-1.086-2.003v-7.032H223.2z"/>
			</g>
			<g>
				<path fill="#41555D" d="M236.614,125.202v7.357c0,0.449,0.045,0.771,0.156,0.972c0.178,0.358,0.536,0.537,1.073,0.537
					c0.344,0,0.673-0.11,0.999-0.33c0.188-0.114,0.426-0.316,0.715-0.601v-6.152c0-0.458-0.101-0.779-0.275-0.958
					c-0.174-0.184-0.536-0.289-1.063-0.307v-0.519h4.245v7.816c0,0.453,0.092,0.761,0.261,0.935c0.156,0.17,0.486,0.275,0.972,0.321
					v0.495c-1.32,0.124-2.145,0.22-2.494,0.284c-0.344,0.06-0.894,0.201-1.646,0.449v-1.435c-0.514,0.444-0.935,0.756-1.265,0.939
					c-0.582,0.33-1.192,0.495-1.82,0.495c-0.692,0-1.325-0.225-1.925-0.669s-0.889-1.238-0.889-2.375v-5.474
					c0-0.468-0.069-0.77-0.22-0.917c-0.146-0.138-0.426-0.257-0.839-0.348v-0.519H236.614z"/>
			</g>
			<g>
				<path fill="#41555D" d="M246.745,134.678c0.385-0.055,0.679-0.16,0.857-0.33c0.183-0.165,0.28-0.495,0.28-0.985v-6.377
					c0-0.444-0.079-0.751-0.229-0.926c-0.151-0.165-0.454-0.284-0.908-0.339v-0.519h4.039v1.559
					c0.344-0.526,0.771-0.958,1.302-1.297c0.518-0.344,1.1-0.514,1.737-0.514c0.922,0,1.632,0.238,2.137,0.715
					c0.509,0.486,0.761,1.33,0.761,2.54v5.239c0,0.486,0.078,0.803,0.238,0.945c0.16,0.142,0.439,0.233,0.815,0.288v0.518h-5.005
					v-0.518c0.38-0.082,0.641-0.188,0.775-0.321c0.142-0.133,0.206-0.439,0.206-0.912v-5.258c0-0.49-0.041-0.861-0.143-1.104
					c-0.165-0.454-0.49-0.674-0.99-0.674c-0.367,0-0.706,0.138-1.018,0.412c-0.312,0.266-0.545,0.541-0.706,0.821v5.803
					c0,0.473,0.064,0.779,0.206,0.912c0.138,0.133,0.399,0.239,0.779,0.321v0.518h-5.134V134.678z"/>
			</g>
			<g>
				<path fill="#41555D" d="M260.892,134.678c0.381-0.073,0.638-0.165,0.771-0.288c0.211-0.193,0.321-0.537,0.321-1.027v-6.377
					c0-0.444-0.078-0.742-0.225-0.907c-0.146-0.156-0.432-0.275-0.867-0.357v-0.519h4.099v8.242c0,0.473,0.068,0.779,0.211,0.912
					c0.138,0.133,0.399,0.239,0.779,0.321v0.518h-5.089V134.678z M262.317,120.696c0.316-0.33,0.711-0.491,1.174-0.491
					c0.445,0,0.835,0.161,1.151,0.491c0.334,0.33,0.494,0.724,0.494,1.191c0,0.463-0.16,0.862-0.494,1.188
					c-0.316,0.335-0.706,0.5-1.151,0.5c-0.463,0-0.857-0.165-1.174-0.5c-0.325-0.325-0.485-0.725-0.485-1.188
					C261.832,121.42,261.992,121.026,262.317,120.696z"/>
			</g>
			<g>
				<path fill="#41555D" d="M270.51,126.436c0.803-0.995,1.761-1.485,2.893-1.485c0.56,0,1.06,0.142,1.499,0.422
					c0.267,0.174,0.609,0.472,1.018,0.907v-3.97c0-0.546-0.105-0.89-0.312-1.018c-0.216-0.128-0.642-0.211-1.288-0.238v-0.522h4.593
					v12.487c0,0.453,0.083,0.761,0.248,0.935c0.165,0.17,0.49,0.275,0.98,0.321v0.495c-1.196,0.119-1.966,0.206-2.319,0.266
					c-0.334,0.064-0.949,0.216-1.824,0.468v-1.435c-0.408,0.421-0.779,0.737-1.109,0.939c-0.522,0.33-1.096,0.495-1.701,0.495
					c-1.05,0-1.952-0.449-2.731-1.348c-0.762-0.895-1.151-2.118-1.151-3.658C269.304,128.782,269.703,127.43,270.51,126.436z
					 M275.369,133.65c0.366-0.416,0.55-0.71,0.55-0.88v-5.281c0-0.174-0.155-0.435-0.472-0.783
					c-0.308-0.344-0.725-0.519-1.238-0.519c-0.766,0-1.274,0.532-1.549,1.596c-0.143,0.578-0.216,1.389-0.216,2.43
					c0,1.118,0.063,1.962,0.206,2.521c0.262,1.026,0.752,1.54,1.48,1.54C274.595,134.274,275.007,134.063,275.369,133.65z"/>
			</g>
			<g>
				<path fill="#41555D" d="M284.84,130.841c0.922-0.573,2.37-1.15,4.342-1.729v-1.577c0-0.646-0.129-1.118-0.395-1.425
					c-0.28-0.308-0.747-0.463-1.426-0.463c-0.38,0-0.692,0.073-0.939,0.22c-0.248,0.137-0.376,0.325-0.376,0.541
					c0,0.082,0.018,0.16,0.046,0.215c0.027,0.056,0.064,0.115,0.124,0.18l0.123,0.146c0.101,0.119,0.174,0.257,0.238,0.398
					c0.051,0.142,0.092,0.298,0.092,0.463c0,0.403-0.142,0.725-0.403,0.944c-0.279,0.229-0.582,0.339-0.939,0.339
					c-0.413,0-0.752-0.128-1.041-0.371c-0.289-0.247-0.436-0.601-0.436-1.067c0-0.835,0.381-1.49,1.16-1.977
					c0.766-0.485,1.715-0.729,2.838-0.729c1.21,0,2.223,0.238,3.034,0.706c0.807,0.48,1.21,1.366,1.21,2.649v5.254
					c0,0.16,0.033,0.288,0.124,0.398c0.078,0.11,0.165,0.165,0.257,0.165c0.087,0,0.165-0.014,0.229-0.05
					c0.069-0.033,0.16-0.115,0.303-0.257l0.325,0.458c-0.417,0.49-0.88,0.839-1.38,1.036c-0.321,0.124-0.655,0.192-1.014,0.192
					c-0.632,0-1.096-0.192-1.384-0.568c-0.175-0.211-0.289-0.522-0.371-0.944c-0.582,0.605-1.252,1.027-1.994,1.274
					c-0.454,0.156-0.895,0.238-1.335,0.238c-0.586,0-1.127-0.192-1.631-0.568c-0.514-0.386-0.766-0.972-0.766-1.77
					C283.456,132.184,283.909,131.414,284.84,130.841z M288.558,133.637c0.17-0.133,0.367-0.329,0.601-0.591v-3.182
					c-0.573,0.143-1.072,0.362-1.504,0.67c-0.732,0.522-1.096,1.173-1.096,1.976c0,0.477,0.11,0.834,0.316,1.077
					c0.216,0.238,0.454,0.366,0.711,0.366C287.939,133.953,288.255,133.848,288.558,133.637z"/>
			</g>
			<g>
				<path fill="#41555D" d="M297.611,126.436c0.803-0.995,1.771-1.485,2.893-1.485c0.564,0,1.06,0.142,1.499,0.422
					c0.267,0.174,0.61,0.472,1.027,0.907v-3.97c0-0.546-0.119-0.89-0.316-1.018c-0.211-0.128-0.642-0.211-1.293-0.238v-0.522h4.589
					v12.487c0,0.453,0.082,0.761,0.257,0.935c0.17,0.17,0.5,0.275,0.972,0.321v0.495c-1.191,0.119-1.957,0.206-2.311,0.266
					c-0.344,0.064-0.953,0.216-1.829,0.468v-1.435c-0.408,0.421-0.77,0.737-1.104,0.939c-0.527,0.33-1.104,0.495-1.714,0.495
					c-1.036,0-1.949-0.449-2.715-1.348c-0.77-0.895-1.159-2.118-1.159-3.658C296.406,128.782,296.814,127.43,297.611,126.436z
					 M302.48,133.65c0.366-0.416,0.55-0.71,0.55-0.88v-5.281c0-0.174-0.165-0.435-0.481-0.783c-0.303-0.344-0.725-0.519-1.237-0.519
					c-0.766,0-1.274,0.532-1.55,1.596c-0.143,0.578-0.221,1.389-0.221,2.43c0,1.118,0.074,1.962,0.216,2.521
					c0.252,1.026,0.747,1.54,1.477,1.54C301.696,134.274,302.108,134.063,302.48,133.65z"/>
			</g>
			<g>
				<path fill="#41555D" d="M311.804,126.33c0.867-0.922,1.917-1.38,3.146-1.38c0.701,0,1.371,0.192,1.989,0.56
					c0.619,0.375,1.091,0.894,1.426,1.559c0.247,0.499,0.422,1.146,0.519,1.948c0.045,0.376,0.078,0.664,0.078,0.861h-5.451
					c0.051,0.866,0.184,1.619,0.417,2.256c0.418,1.196,1.155,1.792,2.205,1.792c0.504,0,0.963-0.165,1.417-0.481
					c0.274-0.188,0.609-0.513,1.013-0.963l0.49,0.308c-0.659,1.101-1.425,1.866-2.292,2.297c-0.559,0.271-1.21,0.417-1.943,0.417
					c-1.05,0-2.036-0.422-2.952-1.266c-0.922-0.844-1.375-2.182-1.375-4.024C310.489,128.554,310.929,127.252,311.804,126.33z
					 M316.334,129.071c-0.014-1.279-0.115-2.178-0.294-2.682c-0.188-0.514-0.541-0.766-1.091-0.766s-0.936,0.298-1.146,0.885
					c-0.206,0.587-0.32,1.439-0.348,2.563H316.334z"/>
			</g>
			<g>
				<path fill="#41555D" d="M322.312,131.909h0.596c0.206,1.035,0.596,1.778,1.164,2.2c0.573,0.422,1.156,0.642,1.761,0.642
					c0.541,0,0.939-0.128,1.206-0.385c0.252-0.243,0.38-0.578,0.38-0.981c0-0.394-0.138-0.724-0.417-0.999
					c-0.151-0.146-0.398-0.307-0.733-0.477l-1.591-0.779c-0.834-0.417-1.426-0.876-1.792-1.361c-0.367-0.486-0.555-1.06-0.555-1.724
					c0-0.839,0.293-1.573,0.871-2.178c0.577-0.614,1.38-0.917,2.415-0.917c0.454,0,0.927,0.073,1.44,0.225
					c0.499,0.16,0.82,0.225,0.943,0.225c0.184,0,0.294-0.037,0.372-0.102c0.068-0.077,0.133-0.183,0.188-0.315h0.468v3.131h-0.545
					c-0.207-0.733-0.532-1.32-0.986-1.765c-0.458-0.449-0.99-0.67-1.613-0.67c-0.468,0-0.825,0.133-1.05,0.403
					c-0.234,0.267-0.349,0.555-0.349,0.867c0,0.257,0.101,0.509,0.307,0.77c0.202,0.257,0.587,0.522,1.146,0.798l1.169,0.577
					c0.725,0.354,1.252,0.697,1.582,1.022c0.56,0.568,0.834,1.261,0.834,2.096c0,0.802-0.289,1.549-0.861,2.246
					c-0.568,0.696-1.431,1.045-2.577,1.045c-0.284,0-0.572-0.036-0.856-0.096c-0.299-0.056-0.646-0.161-1.068-0.308l-0.358-0.128
					c-0.137-0.051-0.224-0.078-0.252-0.083c-0.036-0.009-0.068-0.014-0.123-0.014c-0.115,0-0.211,0.046-0.303,0.143
					c-0.087,0.096-0.184,0.261-0.308,0.485h-0.504V131.909z"/>
			</g>
		</g>
		<g>
			<g>
				<path fill="#41555D" d="M339.975,126.385c0.875-0.903,1.93-1.361,3.163-1.361c0.71,0,1.375,0.184,1.989,0.555
					c0.629,0.371,1.101,0.88,1.439,1.536c0.243,0.494,0.427,1.136,0.522,1.925c0.046,0.367,0.074,0.646,0.074,0.839h-5.47
					c0.051,0.862,0.188,1.6,0.422,2.228c0.413,1.179,1.15,1.766,2.205,1.766c0.499,0,0.981-0.161,1.436-0.478
					c0.261-0.183,0.6-0.504,1.003-0.943l0.495,0.298c-0.664,1.086-1.435,1.848-2.301,2.27c-0.573,0.266-1.215,0.403-1.953,0.403
					c-1.055,0-2.04-0.413-2.961-1.247c-0.927-0.816-1.381-2.146-1.381-3.961C338.658,128.571,339.099,127.292,339.975,126.385z
					 M344.522,129.085c-0.01-1.256-0.11-2.141-0.289-2.641c-0.184-0.495-0.55-0.752-1.096-0.752c-0.564,0-0.94,0.289-1.146,0.871
					c-0.206,0.573-0.316,1.421-0.353,2.521H344.522z"/>
			</g>
			<g>
				<path fill="#41555D" d="M350.335,134.604c0.39-0.046,0.669-0.155,0.857-0.312c0.188-0.165,0.279-0.495,0.279-0.977v-6.29
					c0-0.431-0.078-0.729-0.225-0.902c-0.151-0.17-0.458-0.28-0.912-0.335v-0.514h4.052v1.531c0.349-0.509,0.775-0.936,1.303-1.278
					c0.531-0.335,1.114-0.505,1.746-0.505c0.931,0,1.642,0.238,2.142,0.711c0.513,0.472,0.765,1.306,0.765,2.498v5.161
					c0,0.482,0.078,0.799,0.243,0.937c0.156,0.137,0.436,0.229,0.82,0.274v0.514h-5.038v-0.514c0.395-0.073,0.651-0.174,0.793-0.312
					c0.143-0.129,0.212-0.431,0.212-0.899v-5.17c0-0.495-0.056-0.854-0.156-1.101c-0.16-0.44-0.49-0.66-0.99-0.66
					c-0.362,0-0.706,0.138-1.022,0.403c-0.307,0.271-0.55,0.536-0.71,0.807v5.721c0,0.469,0.073,0.771,0.21,0.899
					c0.138,0.138,0.403,0.238,0.789,0.312v0.514h-5.157V134.604z"/>
			</g>
			<g>
				<path fill="#41555D" d="M373.609,126.385c0.875-0.903,1.938-1.361,3.177-1.361c0.701,0,1.361,0.184,1.989,0.555
					c0.609,0.371,1.1,0.88,1.43,1.536c0.253,0.494,0.423,1.136,0.519,1.925c0.06,0.367,0.078,0.646,0.078,0.839h-5.47
					c0.056,0.862,0.188,1.6,0.423,2.228c0.421,1.179,1.159,1.766,2.209,1.766c0.509,0,0.981-0.161,1.421-0.478
					c0.28-0.183,0.614-0.504,1.022-0.943l0.495,0.298c-0.664,1.086-1.435,1.848-2.301,2.27c-0.573,0.266-1.225,0.403-1.958,0.403
					c-1.05,0-2.035-0.413-2.961-1.247c-0.922-0.816-1.38-2.146-1.38-3.961C372.303,128.571,372.742,127.292,373.609,126.385z
					 M378.17,129.085c-0.022-1.256-0.114-2.141-0.302-2.641c-0.17-0.495-0.537-0.752-1.082-0.752c-0.564,0-0.945,0.289-1.146,0.871
					c-0.206,0.573-0.33,1.421-0.357,2.521H378.17z"/>
			</g>
			<g>
				<path fill="#41555D" d="M383.974,134.604c0.376-0.087,0.646-0.211,0.803-0.357c0.156-0.147,0.238-0.459,0.238-0.931v-10.888
					c0-0.458-0.078-0.761-0.22-0.898c-0.152-0.143-0.422-0.257-0.821-0.349v-0.504h4.053v12.639c0,0.472,0.087,0.779,0.233,0.931
					c0.156,0.143,0.427,0.266,0.812,0.357v0.514h-5.098V134.604z"/>
			</g>
			<g>
				<path fill="#41555D" d="M399.808,134.577c0.816-0.005,1.348-0.156,1.596-0.436c0.243-0.279,0.362-0.701,0.362-1.261v-10.159
					c0-0.582-0.143-0.962-0.418-1.15c-0.279-0.184-0.774-0.298-1.485-0.353v-0.541h5.396l4.209,9.893h0.184l4.194-9.893h5.392v0.541
					c-0.72,0.055-1.22,0.184-1.485,0.395c-0.267,0.21-0.395,0.732-0.395,1.549v9.462c0,0.789,0.128,1.302,0.395,1.545
					c0.266,0.247,0.766,0.376,1.485,0.408v0.541h-7.111v-0.541c0.633-0.028,1.119-0.128,1.436-0.321
					c0.321-0.188,0.481-0.605,0.481-1.256v-10.452h-0.16l-5.249,12.57h-0.568l-5.31-12.313h-0.091v9.664
					c0,0.715,0.133,1.237,0.403,1.567c0.257,0.325,0.848,0.504,1.751,0.541v0.541h-5.011V134.577z"/>
			</g>
			<g>
				<path fill="#41555D" d="M426.4,125.275v7.253c0,0.436,0.051,0.756,0.161,0.948c0.174,0.357,0.531,0.537,1.077,0.537
					c0.34,0,0.674-0.11,0.994-0.321c0.197-0.115,0.437-0.316,0.716-0.592v-6.074c0-0.444-0.083-0.756-0.266-0.939
					c-0.175-0.184-0.536-0.275-1.078-0.298v-0.514h4.273v7.706c0,0.44,0.082,0.743,0.252,0.917c0.16,0.17,0.5,0.271,0.977,0.312
					v0.495c-1.32,0.119-2.15,0.216-2.499,0.271c-0.353,0.06-0.903,0.216-1.659,0.445v-1.407c-0.514,0.436-0.935,0.751-1.27,0.93
					c-0.583,0.321-1.188,0.478-1.83,0.478c-0.688,0-1.329-0.221-1.93-0.656c-0.596-0.435-0.89-1.214-0.89-2.338v-5.4
					c0-0.453-0.077-0.752-0.224-0.894c-0.143-0.138-0.422-0.257-0.839-0.344v-0.514H426.4z"/>
			</g>
			<g>
				<path fill="#41555D" d="M436.564,134.604c0.39-0.046,0.683-0.155,0.861-0.312c0.184-0.165,0.284-0.495,0.284-0.977v-6.29
					c0-0.431-0.082-0.729-0.225-0.902c-0.155-0.17-0.458-0.28-0.921-0.335v-0.514h4.062v1.531c0.334-0.509,0.766-0.936,1.306-1.278
					c0.519-0.335,1.101-0.505,1.747-0.505c0.917,0,1.628,0.238,2.142,0.711c0.499,0.472,0.751,1.306,0.751,2.498v5.161
					c0,0.482,0.083,0.799,0.252,0.937c0.161,0.137,0.436,0.229,0.812,0.274v0.514h-5.023v-0.514
					c0.385-0.073,0.642-0.174,0.778-0.312c0.143-0.129,0.211-0.431,0.211-0.899v-5.17c0-0.495-0.041-0.854-0.142-1.101
					c-0.165-0.44-0.5-0.66-0.995-0.66c-0.371,0-0.715,0.138-1.018,0.403c-0.307,0.271-0.55,0.536-0.72,0.807v5.721
					c0,0.469,0.069,0.771,0.207,0.899c0.142,0.138,0.407,0.238,0.783,0.312v0.514h-5.152V134.604z"/>
			</g>
			<g>
				<path fill="#41555D" d="M452.174,126.49c0.807-0.972,1.765-1.467,2.896-1.467c0.564,0,1.078,0.142,1.513,0.417
					c0.271,0.17,0.61,0.463,1.022,0.903v-3.915c0-0.541-0.105-0.88-0.307-1.009c-0.207-0.128-0.646-0.211-1.307-0.238v-0.504h4.611
					v12.304c0,0.44,0.092,0.743,0.253,0.917c0.174,0.17,0.495,0.271,0.985,0.312v0.495c-1.206,0.115-1.976,0.202-2.324,0.267
					c-0.344,0.06-0.963,0.21-1.843,0.449v-1.407c-0.399,0.417-0.775,0.724-1.105,0.93c-0.531,0.321-1.096,0.478-1.71,0.478
					c-1.045,0-1.957-0.44-2.728-1.325c-0.778-0.885-1.164-2.076-1.164-3.604C450.968,128.801,451.371,127.472,452.174,126.49z
					 M457.061,133.596c0.361-0.412,0.545-0.696,0.545-0.871v-5.189c0-0.183-0.16-0.431-0.472-0.774s-0.733-0.514-1.252-0.514
					c-0.756,0-1.27,0.527-1.55,1.582c-0.142,0.559-0.21,1.357-0.21,2.384c0,1.101,0.063,1.926,0.206,2.484
					c0.252,1.013,0.752,1.513,1.485,1.513C456.276,134.21,456.688,134.009,457.061,133.596z"/>
			</g>
			<g>
				<path fill="#41555D" d="M466.472,126.5c0.917-1,2.063-1.495,3.456-1.495c1.412,0,2.567,0.505,3.475,1.522
					c0.898,1.018,1.353,2.25,1.353,3.699c0,1.426-0.439,2.654-1.334,3.677c-0.894,1.026-2.058,1.535-3.493,1.535
					c-1.394,0-2.553-0.495-3.466-1.494c-0.907-1-1.365-2.237-1.365-3.718C465.097,128.737,465.555,127.489,466.472,126.5z
					 M468.471,133.367c0.247,0.926,0.733,1.394,1.457,1.394c0.684,0,1.142-0.358,1.361-1.068c0.207-0.711,0.316-1.866,0.316-3.466
					c0-1.591-0.109-2.746-0.334-3.466c-0.229-0.71-0.674-1.068-1.334-1.068c-0.725,0-1.206,0.468-1.453,1.39
					c-0.161,0.619-0.234,1.668-0.234,3.145C468.25,131.726,468.323,132.771,468.471,133.367z"/>
			</g>
		</g>
	</g>
	<g>
		<g>
			<polyline fill="#0092A7" points="491.318,99.535 491.313,25.342 11.313,25.358 11.313,99.54 491.318,99.535 			"/>
		</g>
		<g>
			<path fill="#41555D" d="M493.865,101.876H10.614V22.868h483.251V101.876z M13.635,98.854h477.208V25.89H13.635V98.854z"/>
		</g>
		<g>
			<polyline fill="#41555D" points="259.273,94.213 259.273,30.256 486.721,30.256 486.721,94.213 259.273,94.213 			"/>
		</g>
		<g>
			<path fill="#41555D" d="M486.889,94.381H259.105V30.088h227.783V94.381z M259.441,94.045h227.111V30.424H259.441V94.045z"/>
		</g>
		<g>
			<polyline fill="#FFFFFF" points="18.68,94.213 18.68,30.256 252.535,30.256 252.535,94.213 18.68,94.213 			"/>
		</g>
		<g>
			<path fill="#FFFFFF" d="M246.956,14.979c-25.938,0-46.956,21.029-46.956,46.95c0,25.945,21.019,46.963,46.956,46.963
				c25.928,0,46.951-21.019,46.951-46.963C293.907,36.007,272.884,14.979,246.956,14.979"/>
		</g>
		<g>
			<path fill="#FFFFFF" d="M246.956,14.589c-26.107,0-47.346,21.246-47.346,47.339c0,12.655,4.924,24.542,13.872,33.491
				c8.939,8.938,20.826,13.862,33.474,13.862c12.647,0,24.53-4.924,33.479-13.862c8.939-8.948,13.867-20.836,13.867-33.491
				c0-12.632-4.928-24.528-13.867-33.46C271.486,19.52,259.604,14.589,246.956,14.589"/>
		</g>
		<g>
			<g>
				<path fill="#0092A7" d="M246.956,110.876c-13.072,0-25.361-5.089-34.602-14.329c-9.247-9.247-14.339-21.542-14.339-34.619
					c0-26.982,21.955-48.934,48.941-48.934c13.065,0,25.355,5.095,34.606,14.346c9.243,9.236,14.334,21.52,14.334,34.587
					c0,13.071-5.091,25.366-14.334,34.618C272.312,105.787,260.021,110.876,246.956,110.876z M246.956,16.184
					c-25.228,0-45.751,20.521-45.751,45.744c0,12.226,4.76,23.719,13.405,32.363c8.639,8.639,20.126,13.396,32.347,13.396
					c12.215,0,23.704-4.757,32.352-13.396c8.641-8.649,13.399-20.143,13.399-32.363c0-12.216-4.759-23.698-13.399-32.332
					C270.659,20.947,259.17,16.184,246.956,16.184z"/>
			</g>
		</g>
		<g>
			<path fill="#0092A7" d="M268.836,28.042c0.395-0.067,0.688,0.103,0.954,0.309c0.422-0.069,0.939-0.041,1.307,0.287
				c1.247,0,2.329,0.362,3.168,1.305c0.045,0.268-0.257,0.426-0.418,0.588c-0.398-0.027-1.045-0.224-1.343,0.163
				c-0.096,0.227,0.138,0.392,0.298,0.493c0.816-0.396,1.664,1.472,1.994,0.034c0.289-0.204,0.133-0.751,0.591-0.887
				c0.39-0.583-1.241-0.944,0-1.109c0.561-0.039,0.624,0.486,1.078,0.651c0.192-0.259-0.165-0.424-0.146-0.717
				c0.824-0.227,1.031,0.889,1.783,1.011c0.063-0.165,0.063-0.39,0.229-0.458c0.193,0,0.358,0.199,0.522,0.041l0.129-0.3
				l1.174,0.355v-0.218c1.348,1.176,2.984,2.452,3.764,4.052c2.063,2.222,3.337,4.779,4.776,7.259
				c0.426,1.477,1.545,2.68,1.77,4.227c0.752,0.69,0.395,1.832,1.242,2.48c0.234,2.098,1.183,4.197,1.252,6.29l0.22,0.552
				c0.357,1.572,0.266,3.404,0.527,4.944c-0.17,1.338,0.357,2.645,0,3.99c0.596,0.945-0.688,1.472-0.229,2.42
				c-0.366,2.189-0.458,4.511-1.082,6.604l-0.165,0.17c-0.715-0.36-0.06-1.142-0.165-1.763c0.495-0.334-0.06-1.155,0.463-1.476
				c0.267-1.245,0-2.414,0-3.665c-0.165-0.066-0.298,0.13-0.357,0.268c-0.395-0.63,0.454-1.047-0.165-1.613
				c0.422-0.849-0.458-1.506-0.229-2.345c-0.522-0.138,0.033-0.889-0.485-0.889c-0.105,0.458-0.468,0.596-0.885,0.596
				c-0.522-0.699-0.298-1.737-1.114-2.237c0.027-0.197-0.063-0.328-0.133-0.486c-0.398,0.124-0.398,0.751-0.917,0.65
				c-0.394-0.165-0.302-0.623-0.302-1.011c-0.615-0.431-0.784-1.013-0.784-1.696c-0.087-0.11-0.22-0.042-0.354-0.069
				c-0.329,0.486,0.102,0.976,0.294,1.375c0.096,0.362-0.234,1.374,0.591,1.107c-0.027,0.752,0,1.77,0.646,2.125
				c0.628-0.191,0.267-1.149,0.788-1.539c0.459,0.335-0.288,0.821,0.037,1.32c1.082,0.39,0.582,1.653,1.146,2.37
				c0,1.389-0.917,2.203-1.247,3.447c-0.128,0.552-0.917,0.944-0.725,1.708c-0.591,0-0.394,0.848-1.036,0.71
				c-0.985,0.554-1.411,1.279-2.425,1.703c-0.628-0.067-0.99,0.616-1.54,0.751c0.366-0.779,0.366-1.804,0.225-2.718
				c-0.486-0.195-0.023-0.582-0.097-0.917c0.032-1.073-1.04-1.696-0.646-2.906c-0.661-0.165,0.159-1.243-0.752-1.176
				c-0.042-0.63,0.063-1.511-0.299-2.003c0-1.107-0.88-1.737-1.146-2.748c-0.39-0.362-0.688-0.846-0.624-1.428
				c0.061-0.238,0.326-0.431,0.234-0.766c-0.174-0.22-0.519-0.321-0.66,0c-0.257,0.11,0.037,0.559-0.353,0.431
				c-0.271-0.231-0.138-0.821-0.661-0.717l-0.225,0.593c1.009,0.252,0.912,1.401,1.472,2.051c0.097,0.5,0.064,1.211,0.651,1.339
				c-0.06,1.027,1.077,1.675,0.591,2.716c0.037,0.169-0.064,0.36,0.124,0.428h0.303c-0.068,0.424-0.39,0.952,0,1.41
				c0.357,0.394,0.522,1.01,0.293,1.538c-0.138,0.525,0.624,0.821,0.688,1.348c0.221,0.387-0.229,1.469,0.432,1.304
				c0.257,0.527,0.22,1.114,0.06,1.693c0.266,0.589,0.454,1.417,1.279,1.417c0.361-0.656,0.935-0.594,1.407-1.052
				c0.513,0.225,1.307-1.103,1.232,0.094c-0.247,0.199-0.518,0.302-0.389,0.724c-0.903,0.397-0.362,1.668-1.477,1.634
				c-0.986,0.362,0,1.765-1.174,1.765c-0.849,0.594-0.49,1.776-1.6,2.07c-0.849,0.055-0.752,1.402-1.705,0.944
				c-0.619,0.227-0.197,1.307-1.082,1.244c-0.124,0.718-1.105,0.656-0.981,1.477c-1.563,1.435-1.824,3.529-2.778,5.29
				c-0.788,1.22-0.843,3.085-2.585,3.539c-1.27,0.65-2.526,1.696-3.301,2.806c-0.234,1.183-1.407,2.269-2.517,2.622
				c-0.596,0.944-1.38,1.742-2.499,1.999c-0.385,0.953-1.526,0.522-1.998,1.338c-0.771,0.138-1.458-0.063-2.118,0.431
				c-0.362-0.063-0.816-0.063-0.985-0.494c1.086-1.604-0.267-3.53,0.921-5.103c0.725-0.89-0.362-1.902,0.267-2.719
				c0.027-0.779-0.161-1.668,0.389-2.224c-0.101-0.623,0.134-1.142,0.587-1.54c0.069-0.655,1.082-0.88,0.94-1.6
				c0.633-0.362-0.023-1.087,0.591-1.477c-0.027-1.109-0.591-2.063-0.812-3.101c0.197-0.589-0.297-0.924-0.49-1.383
				c-0.097-0.676-0.56-1.341-0.032-1.996l0.395-0.156c-0.362-0.396,0.032-1.375-0.82-1.47c-0.459-0.985-1.861-0.458-2.352-1.382
				c-0.432-0.293-0.853-1.142-1.605-0.977l-0.691,0.656l-3.306,0.162c-0.646,0.259-0.884,1.041-1.696,0.651
				c-0.426-0.651-1.412-0.459-1.54-1.245c-0.289-0.355-0.619-0.062-1.013-0.158c-0.326-1.025-2.256-1.277-1.706-2.721
				c-1.21-0.135-2.09-1.442-2.453-2.487c-0.353-0.259-0.555-0.58-0.555-0.983c0.133-0.392,0.463-0.719,0.784-1.013
				c-0.523-1.176,0.334-2.455-0.715-3.406c-0.853-0.846,0.848-0.784,0.353-1.729c0.233-0.431-0.188-0.923,0.169-1.276
				c0.844,0,0.496-1.176,1.238-1.313c0.527-0.192-0.064-0.676,0.426-0.882c-0.023-0.615,1.045-0.197,1.114-0.807
				c0.367-0.266,0.651-0.766,0.72-1.249c0.165-0.096,0.421,0.028,0.518-0.227c0.532-0.731-0.023-1.511,0.298-2.228
				c0.591-0.269,1.182-0.589,1.283-1.245c0.486-0.259,0.981-0.19,1.371-0.527c-0.885-1.21,1.435-1.21,0.449-2.317l-1.114-0.028
				c-0.156-0.524-0.743-0.594-1.004-1.024c0.454-0.685-0.133-1.403,0.064-2.125c-0.165-0.582,0.037-1.21,0.133-1.765
				c0.555-0.259,0.752-0.915,1.536-0.983l2.09-0.069c0-0.348,0.293-0.614,0.655-0.587c-0.293-0.419,0.395-0.651,0.064-1.109
				c-0.33-0.846-1.242-0.067-1.472-0.89c0.097-0.252,0.431-0.293,0.655-0.19c0.459-0.617,1.312-0.655,1.994-0.883
				c-0.421-0.662,0.986-0.362,0.432-1.107c0.618,0.124,1.503,0.055,2.054-0.431v-0.231c0.531,0.231,1.018-0.069,0.985-0.589
				c0.596-0.156,0.555-0.82,0.885-1.243c0.041-0.424-0.289-0.685-0.165-1.182c0.696,0.162,0.238-0.945,0.89-0.617
				c0.453,0.656,1.142,1.048,1.865,1.21c0.39-0.873-0.761-1.346-1.183-1.997c-0.032-0.224-0.06-0.486-0.33-0.587
				c-0.848-0.357-0.417,0.752-1.142,0.725c-0.555-0.041-1.018-0.362-1.476-0.725c-0.225-0.554-0.624-1.106-0.519-1.771
				c0.49-0.355,1.073-0.39,1.605-0.683l-0.491-0.889c0.518-0.293,0.518,0.596,1.018,0.465c0.129-0.355,0.807-0.986,0-1.114
				c-0.274-0.062-0.206-0.293-0.138-0.493c0.624-0.39,1.211,1.607,1.312,0.138l0.417-0.234c0-0.197-0.192-0.36-0.354-0.36
				c-0.696-0.296-0.133,0.752-0.72,0.456c-0.196-0.362,0.486-0.511,0.423-0.914c0.297-0.069,0.485,0.751,0.884,0.293
				c0.133-0.321,0.102-1.183,0.692-0.876c0.023,0.324,0.161,0.711,0.587,0.61c0.357,0,0.646-0.165,0.88-0.392
				c0.752-0.259,1.898,0.296,2.361-0.483C267.466,27.948,268.507,27.127,268.836,28.042"/>
		</g>
		<g>
			<path fill="#0092A7" d="M215.242,28.569c-0.197,0.131-0.321,0.362-0.321,0.589c-0.137-0.028-0.165,0.066-0.266,0.135
				c0.202,0.096,0.129,0.351,0.064,0.458c-0.293,0.821-1.302,0.821-1.866,1.307c-0.128-0.166-0.486-0.269-0.655,0
				c-0.261,0.293,0.042,0.818-0.486,0.941c0.977,0.269,1.408-1.21,2.48-1.011c0.5-0.555,1.408-0.683,1.55-1.538
				c0.582,0.094,0.65-0.752,1.237-0.752l0.293,0.594h0.619c0,0.062,0.068,0.19-0.032,0.227c0.367,0.19,0.949,0.19,1.343,0
				c0.101,1.604-1.898,1.539-2.811,2.29c-0.627,0.786-1.407,1.469-2.36,1.538c-0.491,0.528-0.614,1.334-1.307,1.539
				c-0.192,0.49-0.619,1.018-0.358,1.531c0.293-0.069,0.72-0.124,0.945,0.068c-0.092,0.101-0.032,0.266-0.064,0.403
				c0.431,0.124,1.178-0.431,1.316,0.349c0.357,0.458,0.779-0.096,1.238,0c0.293,0.497-0.921,0.983-0.06,1.318
				c-0.11,0.323-0.207,0.61-0.234,0.972c0.486,0.266,0.486-0.39,0.624-0.649c0.133-0.823,1.21-0.562,1.439-1.41
				c0.784-0.914,0.683-2.193,1.114-3.3c0.88-1.245,2.058-2.127,3.823-1.873c0.101,0.791,1.343,0,1.05,0.983
				c-0.229,0.293-0.692,0.197-0.825,0.596c-0.023,0.518,0.467,0.552,0.825,0.415c0.88-0.121,1.407-1.065,1.962-1.607h0.161
				c0,0.308-0.229,0.568-0.069,0.862c0.426,0.193-0.092,0.624,0.234,0.883c0.192,0.227,0.619,0.39,0.555,0.752
				c0.261,0.197,0.816-0.166,0.885,0.293c-0.124,0.296-0.027,0.656,0.11,0.945c0.481-0.39,0.871,0,1.366,0.103
				c0.298,0.465,0.128,0.88,0.39,1.366c0.495,0.431,1.435,0.466,1.082,1.279c-0.426,0.724,0.756,1.183,0.165,1.976
				c-0.884,0.615-1.962,0.218-2.947,0.58c-0.192,0.035-0.33-0.096-0.463-0.225c0.298-0.596,0-1.407,0.926-1.441
				c0.458-0.392,0.49-1.11,1.238-0.986c0.321-0.296-0.069-0.555-0.092-0.821c-0.724,0.104-0.596,1.375-1.609,0.821
				c-0.985-0.848-1.508,0.862-2.521,0.096c-0.431,0.169-1.146,0.135-1.146,0.662c0.362,0.615,0.88-0.204,1.312,0.228
				c0.132,0.724,1.567,1.018,0.944,1.961c-0.72,0.163-1.632,0.525-1.824,1.277c-0.986,0.069-1.642,0.986-2.361,1.469
				c-0.161,0-0.293-0.055-0.234-0.293c0.56-0.19,0.692-0.779,0.692-1.348c0.032-0.19-0.032-0.415-0.225-0.456
				c-0.362,0.108-0.206,0.628-0.692,0.628c-0.651,0.821-1.174,1.703-2.127,2.024c-0.385,0.293-0.421,0.889-1.013,0.82
				c-0.394,0.458-1.013,0.848-1.242,1.4c-0.88,0.334-0.619,1.415-1.21,1.907c-0.266,0.528,0.124,1.204-0.56,1.635
				c0,0.889-0.912,1.375-1.114,2.193c-0.486-0.163-0.692,0.268-1.105,0.293c-0.298,0.692-0.298,1.568-0.954,2.065
				c1.018,0.713-0.316,2.1,0.954,2.645c0.289,0.521-0.037,1.176-0.298,1.513c-0.334-0.396-0.825-0.823-0.72-1.479
				c-0.486-0.231-0.454-0.787-0.454-1.272c-0.431-0.359-1.311,0.028-1.412-0.722c-0.463,0.163-1.403-0.364-1.375,0.483
				c-0.073,0.458,0.105,1.114-0.454,1.279c-0.105-0.417-0.752-0.514-0.954-0.979c-0.357,0.104-0.71,0.2-0.985,0.589
				c-0.06,0.431-0.316,0.818-0.72,1.052c0.403,1.265,0.297,2.646-0.119,3.89c0.417,0.942,0.486,2.152,1.467,2.749
				c0.495-0.096,1.338,0.424,1.439-0.328c0.197-0.458-0.234-1.279,0.325-1.479c-0.027-0.483,0.5-0.621,0.88-0.553
				c0.404-0.027,0.688,0.259,0.729,0.58l-0.234,2.948c0.192,1.579,1.93,0.11,2.058,1.683c-0.027,1.235,1.284,1.927,1.238,3.163
				c0.724,0.097,0.371,0.986,1.054,1.055c0.39,0.096,0.719-0.069,1.018-0.293c0.027-0.396,0.463-0.568,0.756-0.761
				c-0.042-1.529,1.989-0.777,2.049-2.29c0.266,0.043,0.495,0.5,0.816,0.234c0.105-0.582,0.825-0.555,1.187-0.362
				c0.624,2.256,3.113,0.067,4.25,1.408c1.183-0.097,1.114,1.176,1.925,1.73c1.192-0.328,1.88,0.532,2.948,0.397
				c0.399,0.951,1.513,0.648,2.269,0.718c0.656,0.621,1.33,1.304,1.692,2.166c0.298,0.321,0.921,0.717,0.362,1.135
				c0.064,0.268,0.293,0.465,0.592,0.63c1.049,0.069,2.388,0,2.947,1.173c0.876,0.466,2.059,0.466,3.04,0.364
				c1.243,1.79,4.483,0.89,4.318,3.528c0.032,0.815-1.05,0.861-0.88,1.705c-0.884,0.293-0.037,1.178-0.72,1.604
				c-0.266,0.495,0.064,1.467-0.82,1.412c-0.064,0.65,0.688,1.334,0,1.889v1.348c-0.683,0.522-0.655,1.338-1.114,1.962
				c-0.55,0.453-1.765-0.105-1.83,0.912c-0.266,0.105-0.5,0.33-0.72,0.49c-0.037,0.454,0.454,0.688,0.527,1.118
				c0.124,0.981-0.697,1.536-0.234,2.513c-0.692,0.623-0.848,1.504-1.706,2.035l-0.137,0.092c0.563,0.165,0.44,0.825,0.591,1.247
				c-0.192,0.165-0.518-0.073-0.688,0.165c0.074,0.357,0.436,0.725-0.06,0.999c0.202,0.697,0.495,1.229,0.885,1.848
				c1.21,0.624,1.802,2.031,3.113,2.421l0.06-0.267c0.431,0.592,1.311-0.164,1.407,0.794c-0.33,0.055-0.555-0.432-0.977-0.239
				l-0.073,0.294c-0.747-0.614-1.728-0.711-2.489-1.307c-0.417-0.027-0.678-0.362-0.88-0.725c-0.55,0.207-1.045-0.839-1.343-0.215
				c0.101,0.16,0.298,0.215,0.357,0.353c-0.256,0.129-0.578-0.165-0.71-0.426c0.064-0.816-0.949-0.871-1.238-1.568
				c-0.789,0.032-1.05-1.018-1.779-1.109c-0.225-0.238,0.032-0.632-0.225-0.853c-0.357-0.399-1.375-0.454-1.109-1.178
				c-0.5-0.5-0.985-1.242-1.613-1.572c-0.711-0.33,0.371-1.468-0.743-1.312c0.133-0.614-0.848-0.779-0.527-1.472l-1.302-0.948
				c0.028-0.097,0.583,0,0.583-0.289c-0.037-0.656-0.816-0.656-1.105-1.114c0.587-0.917-1.049-0.981-0.669-1.834
				c-0.417-0.788-1.43-1.008-1.829-1.641c-0.326-0.161-0.679-0.161-1.045-0.229c-0.986-0.555-1.403-1.765-2.42-2.283
				c-0.587-0.623-0.848-1.678-1.833-1.833c-0.234-0.229-0.234-0.556-0.234-0.89c-0.903-0.33-1.105-1.66-2.15-1.66
				c-0.256-0.559-0.16-1.6-1.082-1.571c-0.225-0.267-0.032-0.621,0.073-0.89c0.293-0.027,0.124-0.362,0.161-0.525
				c-0.234-0.65-0.459-1.307-0.532-2.023c0.467-0.493,0.665-1.313,0.298-1.935c-0.748-0.458-0.096-1.6-0.875-1.927
				c-0.789-0.2-1.866-0.227-2.136-1.142c-0.949-0.165-0.583-1.737-1.797-1.279c-0.129-0.69-0.692-1.011-1.083-1.538
				c-0.619,0.293-1.242-0.39-1.866-0.456c-0.06-0.555-0.518-1.082-0.953-1.375c-0.61,0.166-1.036-0.034-1.655-0.068
				c-0.564-0.293-1.22-0.493-1.637-0.977c0.156-0.689-0.101-1.148-0.463-1.675c-0.229-0.807-0.197-1.765-0.949-2.386
				c-0.124-0.424,0.064-1.004-0.426-1.306c-0.096,0.259,0.225,0.745-0.234,0.813c0.138-0.456-0.284-1.079,0.371-1.4
				c0.129-0.555-0.596-0.624-0.233-1.183c-0.165-0.293-0.463,0.101-0.56-0.224c0.56-0.493-0.33-0.924,0.298-1.369
				c0.096-0.207-0.101-0.403-0.298-0.403c0.138-0.752-0.422-1.238-0.394-1.962c0.161-0.649-0.316-1.511-0.064-2.221
				c-0.229-0.717,0.426-1.279,0.362-1.997c1.018-1.792,0.816-4.089,1.833-5.886c-0.266-0.917,0.592-1.251,0.89-1.976
				c0.417-0.58,0.513-1.304,1.041-1.859c-0.555-1.334,1.467-1.566,1.243-2.842c0.981-0.951,1.769-2.1,1.934-3.475
				c0.518-0.486,1.142-0.845,1.078-1.625c1.114-1.804,2.874-3.31,4.355-4.848c0.399-0.231,0.949-0.231,1.242-0.69
				C215.045,28.282,215.343,28.31,215.242,28.569"/>
		</g>
		<g>
			<path fill="#FFFFFF" d="M267.791,31.059c-0.628,0-0.229,0.621-0.586,0.941c-0.129,1.087,0.916,1.779,1.631,2.428
				c0.363,0.035,0.72-0.138,0.784-0.493l-0.064-0.156c0.688-0.068,1.669-0.206,2.072,0.349v0.107
				c-0.691,0.158-1.613-0.135-2.072,0.486c-0.453,0.166-0.88-0.135-1.311,0.225c-0.156,0.296-0.22,0.658-0.289,0.985
				c-0.165-0.027-0.229,0.096-0.33,0.197l-0.064,0.458c-0.522-0.067-1.141-0.362-1.604,0c-0.88,1.109-2.517,0.355-3.754,0.426
				c-0.105-0.358-0.298-0.789-0.234-1.109c0.556,0.158,0.808,0.875,1.472,0.683c0.161-0.067,0.395-0.252,0.229-0.458L263.528,36
				c0.701-0.5,1.091,1.277,1.911,0.486c-0.257-0.651,0.651-0.357,0.422-1.013c0.591-0.135,0.298-0.818,0.752-1.045
				c0.064-1.107-1.898-1.148-1.009-2.324c0.427-0.034,0.587-0.587,1.073-0.458c-0.354-0.321,0-0.459,0.068-0.819
				C267.076,30.721,267.539,30.721,267.791,31.059"/>
		</g>
		<g>
			<path fill="#FFFFFF" d="M212.07,42.707c0.234,0.094,0.367-0.234,0.532-0.097c0.179,0.321-0.403,0.752,0.124,0.752
				c0.362-0.241,0.197-1.086,0.816-0.752c0.101,0.683-0.032,1.669,0.587,1.99c0.463-0.321,0.563-1.047,1.114-1.238
				c0.165,0.259,0.5,0.583,0.202,0.88c-1.114-0.421-0.688,1.344-1.902,0.72c0.138-0.658-0.555-0.63-0.816-1.018
				c-0.486,0.431-0.454,1.345-1.174,1.707c0.252,0.486-0.298,0.814-0.357,1.238h-0.169c0.032-1.107,0.495-2.386,1.412-3.31
				c0.06-0.458-0.596-0.252-0.537-0.607c-0.614-0.138-0.646,0.903-1.398,0.513c-0.064-0.917,1.173-0.513,1.173-1.306
				C212.134,41.946,211.937,42.542,212.07,42.707"/>
		</g>
		<g>
			<path fill="#FFFFFF" d="M265.737,43c0.253,0.779,1.536,0.717,1.339,1.735c0.775,0.027,0.587,0.979,1.371,1.047
				c0.362-0.035,0.783,0.066,0.885,0.45c-0.294,0.458,0.458,0.499,0.458,0.889c0.628,0.656,0.192,1.765,1.104,2.196
				c0.102,0.36,0.303,0.656,0.564,0.942c0.362,0.135,0.32-0.286,0.39-0.486V49.61c0.096,0.363,0.257,0.745,0.655,0.812
				c0.298-0.122,0.848,0.062,0.88-0.397c-0.063-0.376-0.518-0.708-0.742-0.874c0.055-0.588-0.298-1.306,0.518-1.441
				c0.784-0.13,0.725-1.348,1.701-0.979c-0.027,0.521-0.362,0.849-0.596,1.266c0.298,0.697-0.166,1.804,0.82,2.028
				c0.063,0.369,1.05,0.624,0.66,1.219c0.266,0.293,0.618,0.266,0.885,0c0.421-0.137,0.092-0.761,0.655-0.624
				c0.844-0.293,0.747,0.945,1.567,0.752c0.197-0.493,0.753-0.979,1.238-0.52c0.17,0.131,0.197,0.426,0.197,0.685
				c-0.233,0-0.486,0.266-0.555,0.486c0.688,0.99-1.279,1.387-0.977,2.365c-0.985,0.231-1.407-1.41-2.26-0.658
				c-0.032,0.293-0.298,0.527-0.464,0.752c-0.948-0.197-1.37-1.47-2.521-0.983c-0.748-0.062-0.784-1.169-1.664-0.951
				c-0.729,0.293-1.019,1.313-1.866,1.251c-1.439-0.042-2.517-0.566-3.53-1.373c-0.792-0.044-1.737-0.234-1.971-1.121
				c0.064-0.686-0.519-1.116-0.454-1.833c-0.756-0.813-1.824,0.137-2.709-0.321c-0.458,0.321-1.477-0.266-1.545,0.525
				c-0.72,0.651-1.834-0.094-2.517,0.651c-1.22,0.71-2.229-0.165-3.53,0.293c-0.17-0.227,0.023-0.431,0.069-0.648
				c0.453,0.421,0.972-0.104,1.499,0c0.201-0.562,0.953-0.7,1.008-1.313c1.019-0.035,0-1.018,0.656-1.341
				c-0.225-0.456,0.33-0.332,0.458-0.587c0.102-0.428,0.752-0.655,0.592-1.176c0.912,0.096,1.508-0.197,2.287-0.197
				c0.362-0.204,0.229-0.431,0.266-0.758c0.299,0.498,0.821,0.069,1.211,0.135c0.325-0.231,0.133-0.456,0.196-0.791
				c0.257,0.101,0.423,0.266,0.519,0.525c0.596,0.431,1.902,0,1.77,1.182c0.518-0.096,0.665,0.581,0.885,0.883
				c0.485,0.293,1.343,0.424,1.343,1.142c0.262,0.983-1.113,0.493-0.747,1.407c0.294,0.19,0.651,0.717,1.045,0.362
				c0.381-0.424,0.454-1.073,1.069-1.183l-0.124-0.486c0.252,0.069,0.431-0.066,0.655-0.101c-0.403-0.69-0.788-1.341-1.541-1.538
				l-0.164-1.307c-0.587-0.527-1.701-0.983-1.601-1.928C264.977,42.448,265.99,42.473,265.737,43"/>
		</g>
		<g>
			<path fill="#FFFFFF" d="M279.504,43.293c-0.165,0.069-0.325,0.138-0.454,0.287c0.715,0.724,1.041,1.873,2.054,2.269l0.234,0.651
				c-0.358,0.259-0.688,0.69-1.247,0.525c0-1.011-1.013-0.197-1.402-0.792c-0.885-0.025-2.191-0.45-2.591,0.364h-0.783
				c-0.129-0.555-0.881-0.685-0.981-1.178c1.343-0.128-0.325-1.666,0.66-1.865c0.284-0.431,1.018-0.458,1.504-0.431
				c0,0.241,0.225,0.364,0.362,0.527c0.389,0.13,0.353-0.422,0.71-0.39c0.335,0,0.628,0.034,0.825,0.321
				c-0.032,0.172,0.06,0.295,0.129,0.431c0.458-0.293,0.233-1.237,0.885-1.345C279.436,42.863,279.568,43.055,279.504,43.293"/>
		</g>
		<g>
			<path fill="#FFFFFF" d="M284.937,43.945c0.692,0.525-0.097,1.249,0.22,1.904c0.825,0.192,0.413,1.272,1.188,1.469
				c-0.128,0.527,1.109,0.679,0.422,1.272c-0.129,0.882,0.729,1.382,0.596,2.262c-0.5-0.163-1.54-0.066-1.315-0.784
				c-0.39-0.752,0.591-1.541-0.294-2.155c-0.22-0.596-1.169-0.928-1.113-1.708c-0.853-0.651-0.587-1.499-0.491-2.332L284.937,43.945
				"/>
		</g>
		<g>
			<path fill="#FFFFFF" d="M287.976,44.538l0.5,1.407l-0.66-0.39c0.032-0.429-0.156-0.724-0.362-1.086
				C287.659,44.504,287.815,44.708,287.976,44.538"/>
		</g>
		<g>
			<path fill="#FFFFFF" d="M276.098,79.188c-0.683,0.029-0.848,0.786-1.013,1.271c-0.289-0.027-0.908,0.165-0.752-0.39
				c-0.101-0.39,0.362-0.041,0.463-0.3c0.684-0.184,0.519-1.014,1.077-1.305l0.032-0.227
				C276.098,78.56,276.268,78.729,276.098,79.188"/>
		</g>
		<g>
			<g>
				<path fill="#0092A7" d="M245.411,21.475c1.472-0.562,2.228,0.812,3.667,0.156c0.29-0.227,0.752-0.293,1.11-0.156
					c0.042,0.129,0.16,0.225,0.105,0.387c-0.398-0.066-0.362,0.296-0.527,0.521c0.091,0.465,0.651,0.855,0.362,1.313
					c-1.151-0.069-1.21,1.408-2.297,1.339c-0.133,0.261-0.293,0.328-0.495,0.555l-0.679,0.039c-0.137,0.392,0.321,0.392,0.519,0.486
					l0.426,0.069c0.307,0.486-0.362,0.582-0.293,1.047c-0.757,0-1.21,0.326-1.531,1.011c-0.789,0.069-1.604-0.199-2.42,0
					c-0.037,0.328-0.5,0.362-0.431,0.759c-0.853,1.047-2.686-0.396-3.236,1.004c-0.692,0.596-1.183,1.148-1.774,1.873
					c0.105,0.782-0.912,0.85-0.912,1.6c-1.311,0.426-1.045-1.6-2.256-1.073h-0.234c0.138-0.828-1.142-0.915-1.013-1.776
					c-0.33-0.293-0.821-0.486-0.88-1.038c-0.394-1.055,0.917-0.527,1.004-1.307c0.431,0,0.697-0.403,0.66-0.821
					c0.069-0.458-0.458-0.657-0.586-1.054l-0.661,0.071c0.032-0.131-0.06-0.172-0.124-0.268c-0.33,0.137-0.619,0.362-0.976,0.431
					c-0.069-0.821,1.76-0.5,0.944-1.416c-0.449-0.287-0.848,0.295-1.247-0.053v-0.165c-0.784-0.135-1.765-0.266-2.484,0.028
					c-0.358,0-0.688-0.456-0.885,0.069c-0.165,0.027-0.293-0.028-0.39-0.166c-0.128-0.783,0.816-0.683,0.976-1.379
					c-1.104-0.287-1.659,1.935-2.952,1.086c-0.477,0.293-1.302,0.459-1.402,1.039c1.219,0.404,2.622-1.141,3.31,0.431
					c0.564-0.293,0.655,0.527,1.274,0.234c0.431,0.349-0.417,0.587-0.023,1.018c-0.426,0.124-1.022,0.124-1.146,0.61
					c-0.229-0.286-0.72-0.444-1.059-0.096l-0.124,0.096c1.018,0.725,1.435,1.669,1.902,2.652c-0.261,0.199-0.532,0.39-0.885,0.293
					c-0.165-0.2-0.271-0.452-0.587-0.321c-0.563,0.227,0.124,1.01-0.596,1.114c0.032,0.163,0.422,0.163,0.289,0.458
					c-0.124,0.096-0.289,0.069-0.454,0.069c-0.128-0.697-1.114-0.2-1.6-0.172l-0.363,0.458c-0.293-0.39,0.624-0.58,0.06-0.951
					c-0.284-0.355-0.844,0.262-0.94-0.293c-0.559-0.197-1.316-0.13-1.939-0.062c-0.357,0.062-0.224,0.589-0.646,0.562
					c-0.161-0.39,0.357-0.766,0-1.155c0.719-0.514,1.439-1.375,2.479-1.469c0.229-0.521,1.046-0.028,1.115-0.686
					c-0.651-0.027-1.115-0.784-1.834-0.431c-0.555,0.103-0.88-0.745-1.338-0.094c-0.372,0.497-0.816,1.052-0.55,1.762
					c-0.101,0.041-0.202,0.165-0.334,0.097c-0.037-0.324-0.128-0.745-0.582-0.583l-0.491,0.192c0.22,0,0.064-0.259,0.128-0.355
					c-0.169-0.062-0.719,0.19-0.719-0.225c-0.064-0.365-0.491-0.097-0.697-0.269c0.334-1.107,1.806-0.163,2.099-1.4
					c0.33-0.069,0.463,0.128,0.431,0.362c0.422,0.025,0.422-0.63,0.88-0.527c0.166,0.293-0.297,0.527-0.297,0.807
					c0.297,0,0.531-0.39,0.724-0.58c-0.133-0.658,0.748-0.883,0.692-1.547c0.417-0.321,0.715-0.915,1.307-0.811l0.229,0.463
					c0.353-0.328,0.944-0.463,1.049-0.984l-0.399-0.137l0.064-0.293c-0.266-0.027-0.454-0.165-0.715-0.096
					c-0.298,0.431-0.596,0.917-1.119,1.048l0.298-0.293c-0.683-0.952-1.151,0.552-1.668,0.756c-0.033,0.124-0.129,0.227-0.234,0.293
					h-0.229c-0.033-0.238,0.229-0.169,0.297-0.332c-0.362,0.135-0.788-0.555-0.949,0.094c-0.39-0.121-0.261,0.334-0.467,0.5h0.536
					c-0.069,0.779-0.885,1.011-1.412,1.407c-0.298,0.096-0.316,0.424-0.655,0.392c0-0.493,0.655-1.144,1.018-1.479l0.165-0.163
					c-0.074-0.069-0.165-0.131-0.137-0.228l0.201-0.192c-0.064-0.039-0.096-0.135-0.201-0.107c0.271-0.486,0.921-0.71,1.315-1.004
					c0.128-0.138-0.064-0.303-0.161-0.397c0.353-0.561,1.137-1.116,1.696-1.306c0.225,0.355,0.491-0.2,0.821-0.128
					c-0.651,0.612-1.477,1.4-2.306,1.832l0.11,0.355c0.72-0.33,1.343-1.117,2.067-1.465c0.252,0.321-0.889,0.624-0.037,0.748
					c0.289-0.399,0.555-0.624,0.981-0.814l0.293,0.19c0.752-0.321,1.444-0.846,2.361-0.717c0.807-0.628,1.866-0.727,2.875-0.821
					c0.027,0.094-0.16,0.138-0.105,0.293c0.239,0.355,0.564-0.225,0.894,0.062v0.589c-0.353,0.163-1.077-0.419-1.183,0.335
					c0.367,0.135,0.88,0.287,1.284,0.069c0.838-0.172,1.008-1.41,2.021-1.055c0.697-0.101,1.637-0.855,2.223-0.06
					c1.114,0.027,1.573-1.513,2.888-0.958c0.22,0.69,1.206,0.068,1.375,0.793c0.88,0.225,1.334-0.431,1.916-0.862
					c1.283,0.041,2.659-0.417,3.37,0.793C244.824,22.254,245.012,21.534,245.411,21.475"/>
			</g>
			<g>
				<path fill="#0092A7" d="M262.13,22.451c0.192-0.034,0.495,0.066,0.72,0.19c-0.362,0.172-0.294,0.596-0.527,0.821
					c0.39,0.137,1.018,0.165,1.118,0.657c0,0.163-0.031,0.326-0.192,0.459c-0.536,0-0.65-0.589-1.215-0.521
					c-0.027-0.555-0.361-0.917-0.844-1.183c-0.302,0.128-0.732-0.124-1.063-0.287c0.313-0.302,0.532-0.727,1.063-0.527
					C261.383,22.382,261.772,22.614,262.13,22.451"/>
			</g>
			<g>
				<path fill="#0092A7" d="M261.475,23.865c0.261,0.548-0.614,0.548-0.386,1.007c-0.884,0.717-0.963-0.814-1.77-0.752
					c-0.229-0.254-0.531-0.712-1.026-0.561c-0.056-0.096-0.124-0.349,0.073-0.459C259.384,23.272,260.888,22.642,261.475,23.865"/>
			</g>
			<g>
				<path fill="#0092A7" d="M219.794,24.872l0.16,0.066c-0.591,0.624-1.641,0.882-1.994,1.759c0.229,0,0.555-0.184,0.725-0.417
					c0.619,0.486-0.431,0.525-0.536,0.951c0,0.066,0.105,0.066,0.165,0.066c0.17,0.234-0.353,0.358,0,0.514l-0.71,1.027
					l-0.101-0.365c-0.101-0.027-0.128,0.096-0.229,0.062c-0.064-0.293,0.331-0.458,0.523-0.656c0.165,0.069,0.197-0.124,0.165-0.224
					c0-0.099,0.064-0.193-0.068-0.262c-0.321,0-0.321,0.486-0.619,0.486c-0.092-0.348,0.564-0.621,0.394-1.013h-0.233l-1.691,1.375
					c1.206-0.78,1.989-2.679,3.599-3.138c0.128-0.231,0.353-0.525,0.614-0.587L219.794,24.872"/>
			</g>
			<g>
				<path fill="#0092A7" d="M276.919,26.513c-0.454,0.545,0.724,0.545,0.224,1.018c0.069,0.545,0.303,1.073,0.725,1.4v0.131
					c-0.816,0.163-1.104-0.821-1.834-0.78c-0.394-0.268,0.064-0.699-0.421-0.917c-0.097-0.266,0.229-0.238,0.293-0.431
					c-0.293-0.293-0.458-0.683-0.458-1.018C275.947,25.958,276.763,25.82,276.919,26.513"/>
			</g>
			<g>
				<path fill="#0092A7" d="M216.851,28.18c-0.293,0.389-0.88,0.227-1.018,0.82c-0.161,0.062-0.298-0.138-0.325-0.234
					c0.124-0.525,0.784-0.586,1.05-1.011C216.787,27.755,217.039,27.948,216.851,28.18"/>
			</g>
			<g>
				<path fill="#0092A7" d="M249.368,29.71c0.362,0.266,0.724,0.624,0.82,1.055c-0.161,0.128-0.422,0-0.591,0.128
					c0.041,0.5-0.587,0.624-0.944,0.459c-0.298-0.228-0.458,0.258-0.743,0.165c-0.797,0.587-1.026-0.5-1.747-0.458l-0.289-0.365
					c0.348-0.484,1.146,0.027,1.462-0.457l-0.679-0.593c0.188-0.289,0.55-0.227,0.88-0.227c0.161,0.56,0.522-0.096,0.816-0.062
					C248.781,29.452,249.345,29.062,249.368,29.71"/>
			</g>
			<g>
				<path fill="#0092A7" d="M220.317,30.6c0,0.321-0.596,0.621-0.174,0.889c0,0.387-0.188,0.779-0.578,0.915
					c-0.614-0.069-0.224,0.944-0.953,0.779c0.518-0.553-0.225-1.114-0.064-1.667C219.235,31.489,219.593,30.4,220.317,30.6"/>
			</g>
			<g>
				<path fill="#0092A7" d="M253.497,33.875l0.812,0.059c0.202,0.493-0.513,0.234-0.582,0.528l0.289,0.123
					c-0.22,0.097-0.069,0.301-0.133,0.473c0.266,0.252,0.522,0.483,0.885,0.483c0.495,0.622,0.783,1.238,1.247,1.832
					c0,0.555,1.897,0.234,0.88,1.114c-0.485-0.266-0.454,0.678-1.013,0.582c-0.519-0.362-1.046,0.163-1.573,0
					c-0.096,0.458-0.655,0.486-1.008,0.69c-0.367-0.035-0.495-0.328-0.601-0.622c0-0.259,0.234-0.259,0.436-0.259
					c0.197-0.131,0.518-0.131,0.747-0.295c-0.087-0.197-0.771-0.431-0.357-0.752c0.16-0.162,0.421-0.135,0.559-0.362
					c-0.288-0.355-0.266-1.08-0.853-1.121c-0.298-0.417-0.49-1.291-1.21-1.334c-0.293-0.359-0.128-1.304-0.848-1.01
					c-0.169-0.069-0.138-0.431-0.032-0.594c0.49,0.787,1.008-0.554,1.503,0.231l0.055-0.293
					C253.007,33.449,253.631,33.348,253.497,33.875"/>
			</g>
			<g>
				<path fill="#0092A7" d="M252.021,36.779c-0.128,0.403,0.161,0.759,0.161,1.21c-0.55,0.067-0.619,0.917-1.302,0.663
					c-0.334,0.293-0.65,0.553-1.114,0.514c-0.398-0.417-0.266-1.039-0.169-1.559c0.261-0.33,0.233-0.69,0.655-0.952
					C250.646,36.062,251.728,36.225,252.021,36.779"/>
			</g>
			<g>
				<path fill="#0092A7" d="M215.673,62.563c0.523,0.165,0.193-0.58,0.651-0.525c-0.192,0.889,0.587,1.176,0.885,1.77
					c-0.39,0-0.816,0.493-1.183,0.062c-0.055-0.39-0.55-0.269-0.816-0.362c-0.036-0.972-1.701,0.041-1.435-1.107
					c-0.655-0.323-0.357-1.047-1.114-1.169c-0.421-0.109-0.27,0.458-0.527,0.58c-0.197,0.293-0.559,0.658-0.94,0.527
					c-0.202-0.137-0.138-0.424,0-0.527c0.779-0.032,0.61-1.176,1.531-1.08C213.904,60.895,214.825,61.718,215.673,62.563"/>
			</g>
			<g>
				<path fill="#0092A7" d="M220.973,65.053c-0.88,0.027-1.706,0.096-2.521,0.396l-0.426-0.165c0-0.553,0.926-0.334,0.587-1.08
					c0.953-0.465,1.316,0.39,2.2,0.417C220.94,64.731,221.005,64.855,220.973,65.053"/>
			</g>
			<g>
				<path fill="#0092A7" d="M223.329,65.215c0.101,0.192,0.421,0.431,0.289,0.658c-0.188-0.069-0.619,0.137-0.587-0.228
					c0.064-0.628-0.789-0.266-1.109-0.566c-0.165-0.089-0.229-0.225-0.229-0.39c0.229-0.2,0.587-0.13,0.88-0.227
					C222.609,64.855,223.031,65.018,223.329,65.215"/>
			</g>
			<g>
				<path fill="#0092A7" d="M279.339,86.64c0.032,0.628-0.522,1.21-0.885,1.6c-0.353,1.192-1.37,2.169-1.989,3.182
					c-1.15,0.101-0.825,1.536-1.834,1.897c-0.431,0.527-1.247,0.491-1.407,1.211c-1.018,0.137-1.205,1.572-2.329,1.252
					c0.986-0.432,0.303-1.807,1.449-2.059c0.385-0.175,0.683-0.633,0.88-0.981c0.555-0.459,1.609-0.825,1.508-1.742
					c0.417-0.266,1.109-0.591,1.142-1.183C277.542,89.404,277.845,87.433,279.339,86.64"/>
			</g>
		</g>
		<g>
			<path fill="#41555D" d="M45.717,67.205c0.715,0,1.88,0.069,3.746,0.069c2.067,0,3.228,0,4.841-0.069
				c0.646,0,1.096-0.587,1.036-0.779c-2.324-7.101-3.685-10.704-4.781-13.479c-0.192-0.396-0.582-0.466-0.711-0.197
				c-2.191,4.846-3.025,7.042-5.611,13.677c-0.133,0.33,0.518,0.779,1.417,0.779H45.717L45.717,67.205z M53.983,41.77
				c0.646,0,0.706,0.137,1.027,1.1c1.944,5.675,3.292,9.235,5.561,15.236c2.191,5.806,6.583,16.333,7.615,18.582
				c1.668,3.548,2.654,5.23,6.39,6.01c0.064-0.133-0.39,2.063-0.908,2.132c-6.578-0.069-7.807-0.138-9.998-0.138
				c-2.068,0-4.841,0.197-5.556,0.197c-0.256,0-0.389-0.06-0.454-0.252c-0.124-0.33-0.706-1.688-0.582-1.815
				c2.649-0.697,3.035-1.089,3.035-2.389c0-1.552-2.388-7.614-2.709-8.325c-0.514-1.225-1.036-1.607-1.412-1.607
				c-2.333,0-9.306-0.069-12.268,0.19c-1.104,0.062-1.421,0.576-1.879,1.737c-0.642,1.689-2.196,5.236-2.196,7.164
				c0,1.62,0.972,2.267,4.011,2.908c0.513,0.129-0.192,2.072-0.518,2.137c-4.062-0.064-7.743-0.064-9.036-0.064
				c-1.164,0-2.131,0.064-2.388,0c-0.325,0-0.39-0.073-0.454-0.266c-0.192-0.325-0.715-1.678-0.38-1.807
				c3.346-0.905,4.125-3.619,5.542-6.647c1.48-3.158,9.164-20.59,12.523-28.725c0.578-1.477,1.101-3.028,1.481-3.807
				c0.128-0.452,0.325-0.772,0.582-0.896c0.706-0.321,1.939-0.655,2.901-0.655H53.983"/>
		</g>
		<g>
			<path fill="#41555D" d="M74.378,64.033c0-4.511,1.101-10.125,5.231-14.704c3.415-3.805,8.779-5.749,13.556-6.78
				c2.901-0.642,5.68-0.779,8.325-0.779c2.906,0,6,0.39,7.293,0.91c0.573,0.19,1.935-0.392,2.389-0.575
				c0.256-0.069,0.568-0.069,1.549,0.321c0.509,0.124,0.509,0.321,0.444,0.575c-1.288,3.479-1.357,6.583-1.095,10.979
				c0,0.121-0.193,0.252-0.898,0.252c-1.165,0.069-1.559-0.199-1.678-0.521c-0.197-0.71-0.908-2.707-1.426-3.869
				c-0.449-1.1-0.766-1.996-1.935-3.035c-1.165-1.093-4.19-2.455-7.417-2.455c-3.617,0-7.555,1.689-10.393,5.297
				c-3.236,4.062-4.328,9.299-4.328,14.383c0,7.362,3.998,18.789,15.751,18.789c4.328,0,7.62-2.964,9.42-5.027
				c1.225-1.483,1.871-3.104,2.32-3.945c0.069-0.124,0.321-0.252,1.036,0.396c0.779,0.445,0.898,0.645,0.834,1.224
				c-0.637,3.803-2.059,7.03-2.966,8.511c-0.449,0.591-0.646,0.591-1.353,0.655c-1.88,0-5.359,1.086-9.934,1.086
				c-17.824,0-24.728-11.605-24.728-21.622V64.033"/>
		</g>
		<g>
			<path fill="#41555D" d="M136.086,45.065c-0.977,0-3.878,0.458-4.584,1.1c-0.326,0.184-0.518,0.71-0.583,1.291
				c-0.192,2.265-0.385,8.389-0.385,13.686c0,9.359,0,15.683,0.968,19.415c0.128,0.589,0.325,0.853,0.907,1.038
				c1.412,0.529,2.769,0.832,4.254,0.832c2.457,0,5.547-0.764,9.233-3.025c5.162-3.228,7.802-9.613,7.802-16.4
				c0-6.904-3.095-11.676-6.322-14.19c-4.006-3.097-8.586-3.745-11.231-3.745H136.086L136.086,45.065z M163.39,63.781
				c0,3.493-1.559,9.166-6.198,13.494c-4.456,4.259-7.619,5.354-11.039,6.386c-3.494,1.031-5.813,1.169-10.329,1.169
				c-3.416,0-9.746-0.257-10.915-0.257c-2.32,0-4.58,0-6.317,0.064c0-0.587-0.142-1.815,0-2.137
				c2.581-1.036,3.351-1.424,3.415-2.588c0.33-4.832,0.262-15.811,0.262-23.618c0-6.521-0.06-8.004-0.129-8.781
				c-0.068-0.964-0.587-1.664-3.617-2.195c-0.197-0.056-0.197-0.376-0.262-1.539l-0.059-0.841c2.393,0,5.808-0.137,9.494-0.192
				c4.19-0.066,6.45-0.197,9.682-0.197c4.635,0,12.964,0.644,18.915,5.941c4.768,4.259,7.097,9.356,7.097,15.222V63.781"/>
		</g>
		<g>
			<path fill="#41555D" d="M188.75,45.01c-5.483,0.704-5.937,1.215-6.193,2.386c-0.261,1.148-0.454,3.608-0.454,10.198v10.124
				c0,4.977,0.192,9.946,0.573,12.325c0.202,1.103,0.523,1.62,1.362,1.742c0.454,0.073,1.875,0.339,3.227,0.587
				c0.316,0,0.454,0.128,0.454,0.325c0,0.39-0.201,1.673-0.316,2.063c-4.727-0.123-7.431-0.188-10.149-0.188
				c-5.093,0-8.385,0.257-8.577,0.257c-0.454,0-0.711-0.257-0.779-0.522c-0.064-0.459-0.316-1.421-0.257-1.807
				c3.617-0.32,4.969-0.642,5.551-2.519c0.262-0.963,0.715-3.095,0.715-11.674V55.522c0-8.715-0.069-9.618-2.393-9.998
				c-0.898-0.138-1.999-0.262-2.837-0.262c-0.385,0-0.514-0.13-0.514-0.52c0-0.19,0.06-0.642,0.316-1.229
				c0.262-0.392,0.325-0.514,0.522-0.514c0.514-0.062,1.091-0.062,1.994-0.062c0.972,0,2.646,0.131,8.334,0.062
				c3.154,0,7.092-0.13,7.807-0.13c0.844,0,0.908,0.068,0.972,0.252L188.75,45.01"/>
		</g>
		<g>
			<path fill="#FFFFFF" d="M349.753,44.942c-0.578,0.055-0.908,0.185-1.485,0.644c-0.775,0.573-1.999,3.025-3.879,6.711
				c-1.865,3.61-9.035,19.098-12.258,27.104c-0.316,0.779-0.642,1.421-1.155,2.331c-0.518,0.832-1.036,2.061-1.691,3.097
				c-0.124,0.257-0.381,0.449-1.022,0.449c-1.096,0-1.678-0.192-1.866-0.587c-0.261-0.321-0.98-1.742-2.53-5.68
				c-5.67-14.521-10.457-24.459-12.258-28.459c-2.319-5.291-2.842-5.68-6.321-6.322l0.706-1.682c0.128-0.39,0.39-0.39,0.646-0.39
				c3.089,0.266,7.678,0.321,9.03,0.321c2.2,0,4.392-0.122,6.583-0.122c0.325,0,0.527,0.122,0.398,1.215
				c-0.137,0.979-0.201,1.169-0.518,1.231c-2.719,0.323-3.039,0.71-2.457,2.709c0.454,1.55,1.096,3.17,3.997,10.136
				c2.723,6.583,4.781,11.36,6.913,15.88c0.188,0.452,0.706,0.252,0.968-0.19c1.229-2.386,4.057-8.648,7.49-16.975
				c1.022-2.455,2.374-6.131,3.997-10.581c0.193-0.589-0.587-0.91-1.875-0.979l-2.709-0.131c-0.262,0-0.449-0.252-0.321-0.387
				c0.643-1.676,0.706-1.999,1.151-1.999c1.549,0,4.979,0.193,6.656,0.193c1.288,0,3.355-0.193,4.781-0.193
				c1.224,0,1.356,0.972,1.356,2.065c0,0.39-0.068,0.52-0.522,0.452L349.753,44.942"/>
		</g>
		<g>
			<path fill="#FFFFFF" d="M367.379,43.773c-3.301,0-6.326,1.68-8.521,4.396c-2.843,3.545-3.81,7.997-3.81,13.936
				c0,6.255,2.132,11.676,5.098,14.972c3.74,4.196,7.165,5.552,10.97,5.552c5.093,0,10.97-6.263,10.97-17.617
				c0-5.88-1.031-12.066-4.905-16.467c-2.066-2.32-5.482-4.772-9.746-4.772H367.379L367.379,43.773z M368.983,41.325
				c12.011,0,22.596,9.228,22.596,20.979c0,7.931-3.493,13.87-7.619,17.356c-4.776,4.133-10.323,5.618-13.679,5.618
				c-7.354,0-14.721-2.778-19.305-7.942c-3.228-3.622-5.482-9.366-5.482-14.587c0-5.544,2.324-11.101,6.903-15.236
				c4.392-4.068,10.585-6.188,16.531-6.188H368.983"/>
		</g>
		<g>
			<path fill="#FFFFFF" d="M394.807,63.59c0-4.518,1.096-10.131,5.226-14.711c3.415-3.814,8.774-5.758,13.556-6.775
				c2.897-0.656,5.68-0.779,8.33-0.779c2.893,0,6.005,0.39,7.279,0.903c0.587,0.197,1.943-0.39,2.402-0.582
				c0.247-0.066,0.568-0.066,1.54,0.321c0.522,0.138,0.522,0.321,0.444,0.583c-1.278,3.486-1.348,6.583-1.086,10.972
				c0,0.135-0.192,0.259-0.898,0.259c-1.179,0.062-1.559-0.192-1.688-0.513c-0.192-0.717-0.898-2.714-1.421-3.869
				c-0.444-1.107-0.77-2.008-1.93-3.048c-1.16-1.087-4.194-2.439-7.418-2.439c-3.616,0-7.559,1.676-10.392,5.291
				c-3.237,4.066-4.333,9.29-4.333,14.39c0,7.362,4.007,18.782,15.752,18.782c4.318,0,7.614-2.971,9.416-5.036
				c1.224-1.483,1.875-3.09,2.333-3.931c0.06-0.138,0.316-0.266,1.022,0.375c0.779,0.465,0.908,0.651,0.844,1.231
				c-0.646,3.814-2.067,7.039-2.976,8.524c-0.439,0.582-0.646,0.582-1.348,0.633c-1.87,0-5.35,1.109-9.938,1.109
				c-17.81,0-24.718-11.619-24.718-21.622V63.59"/>
		</g>
		<g>
			<path fill="#FFFFFF" d="M447.603,66.755c0.706,0,1.871,0.062,3.736,0.062c2.067,0,3.232,0,4.846-0.062
				c0.642,0,1.091-0.582,1.031-0.779c-2.319-7.096-3.686-10.713-4.771-13.496c-0.192-0.375-0.587-0.444-0.716-0.183
				c-2.195,4.838-3.03,7.027-5.611,13.679c-0.128,0.321,0.514,0.779,1.427,0.779H447.603L447.603,66.755z M455.863,41.325
				c0.643,0,0.706,0.124,1.031,1.1c1.936,5.673,3.283,9.224,5.553,15.224c2.191,5.811,6.587,16.332,7.613,18.594
				c1.679,3.548,2.65,5.221,6.387,6c0.073-0.137-0.376,2.063-0.895,2.127c-6.588-0.063-7.82-0.128-10.012-0.128
				c-2.072,0-4.836,0.197-5.547,0.197c-0.262,0-0.395-0.069-0.454-0.271c-0.128-0.321-0.71-1.669-0.596-1.797
				c2.663-0.709,3.049-1.099,3.049-2.391c0-1.543-2.394-7.608-2.71-8.325c-0.522-1.224-1.031-1.614-1.426-1.614
				c-2.314,0-9.282-0.062-12.253,0.193c-1.105,0.066-1.426,0.586-1.885,1.749c-0.637,1.675-2.182,5.221-2.182,7.166
				c0,1.604,0.963,2.26,3.997,2.901c0.519,0.129-0.188,2.067-0.527,2.118c-4.057-0.051-7.733-0.051-9.025-0.051
				c-1.16,0-2.132,0.051-2.398,0c-0.312,0-0.38-0.068-0.444-0.271c-0.197-0.312-0.711-1.668-0.385-1.797
				c3.351-0.905,4.126-3.612,5.542-6.649c1.49-3.166,9.173-20.59,12.533-28.731c0.578-1.476,1.092-3.028,1.481-3.8
				c0.133-0.445,0.325-0.766,0.582-0.903c0.706-0.321,1.935-0.642,2.896-0.642H455.863"/>
		</g>
	</g>
</g>
</svg>
