<?xml version="1.0" encoding="utf-8"?>
<!-- Generator: Adobe Illustrator 16.0.0, SVG Export Plug-In . SVG Version: 6.00 Build 0)  -->
<!DOCTYPE svg PUBLIC "-//W3C//DTD SVG 1.1//EN" "http://www.w3.org/Graphics/SVG/1.1/DTD/svg11.dtd">
<svg version="1.1" id="Capa_1" xmlns="http://www.w3.org/2000/svg" xmlns:xlink="http://www.w3.org/1999/xlink" x="0px" y="0px"
	 width="509.111px" height="121.059px" viewBox="0 0 509.111 121.059" enable-background="new 0 0 509.111 121.059"
	 xml:space="preserve">
<g>
	<defs>
		<rect id="SVGID_1_" width="509.111" height="121.059"/>
	</defs>
	<clipPath id="SVGID_2_">
		<use xlink:href="#SVGID_1_"  overflow="visible"/>
	</clipPath>
	<polygon clip-path="url(#SVGID_2_)" fill-rule="evenodd" clip-rule="evenodd" fill="#E20613" points="509.111,131.331 
		-0.161,131.331 -0.161,-7.201 509.111,-7.21 	"/>
	<g clip-path="url(#SVGID_2_)">
		<path fill-rule="evenodd" clip-rule="evenodd" fill="#FFFFFF" d="M293.036,83.087c-15.497,0-15.497,0-15.497,0
			c0-43.064,0-43.064,0-43.064c18.933,0,14.624,0,14.624,0c0,10.727,0,8.871,0,8.871c1.911-2.703,4.051-4.741,7.838-6.651
			c9.602-4.709,28.833-4.004,28.833,13.316c0,13.285,0,11.7,0,12.126c0,15.402,0,15.402,0,15.402c-15.513,0-15.513,0-15.513,0
			c0-22.13,0-22.13,0-22.13c0-3.673-0.181-6.631-3.43-8.707c-6.402-4.154-16.854-0.948-16.854,6.733V83.087L293.036,83.087z"/>
		<path fill-rule="evenodd" clip-rule="evenodd" fill="#FFFFFF" d="M432.216,83.087c-15.499,0-15.499,0-15.499,0
			c0-43.064,0-43.064,0-43.064c18.958,0,14.58,0,14.58,0c0,10.727,0,8.871,0,8.871c1.946-2.703,4.041-4.741,7.859-6.651
			c9.604-4.709,28.827-4.004,28.827,13.316c0,13.285,0,11.7,0,12.126c0,15.402,0,15.402,0,15.402c-15.453,0-15.453,0-15.453,0
			c0-22.13,0-22.13,0-22.13c0-3.673-0.201-6.631-3.389-8.707c-6.47-4.154-16.925-0.948-16.925,6.733V83.087L432.216,83.087z"/>
		<path fill-rule="evenodd" clip-rule="evenodd" fill="#FFFFFF" d="M267.358,83.087c-15.534,0-15.534,0-15.534,0
			c0-43.043,0-43.043,0-43.043c15.534,0,15.534,0,15.534,0V83.087L267.358,83.087z M268.099,23.234
			c1.437,3.844-1.198,8.474-5.899,10.21c-4.63,1.809-9.667,0.136-11.072-3.671c-1.476-3.867,1.141-8.413,5.804-10.226
			C261.653,17.775,266.642,19.426,268.099,23.234z"/>
		<path fill-rule="evenodd" clip-rule="evenodd" fill="#FFFFFF" d="M354.528,83.087c-15.503,0-15.503,0-15.503,0
			c0-43.043,0-43.043,0-43.043c15.503,0,15.503,0,15.503,0V83.087L354.528,83.087z M355.256,23.234
			c1.472,3.844-1.14,8.474-5.827,10.21c-4.66,1.809-9.686,0.136-11.123-3.671c-1.437-3.867,1.12-8.413,5.781-10.226
			C348.849,17.775,353.792,19.426,355.256,23.234z"/>
		<polygon fill-rule="evenodd" clip-rule="evenodd" fill="#FFFFFF" points="56.735,83.087 41.184,83.087 41.184,18.492 
			56.735,18.492 56.735,83.087 		"/>
		<path fill-rule="evenodd" clip-rule="evenodd" fill="#FFFFFF" d="M159.871,40.074c13.371,0,24.671,9.724,24.671,23.558
			c0,13.596-12.35,20.711-24.671,20.711c-12.732,0-24.05-8.486-24.05-21.817C135.82,49.497,147.423,40.074,159.871,40.074
			L159.871,40.074L159.871,40.074z M159.871,44.636c7.367,0,9.168,8.355,9.168,17.89c0,9.475-1.802,17.853-9.168,17.853
			c-6.531,0-8.544-8.378-8.544-17.853C151.326,52.991,153.339,44.636,159.871,44.636L159.871,44.636L159.871,44.636z"/>
		<path fill-rule="evenodd" clip-rule="evenodd" fill="#FFFFFF" d="M385.376,40.074c13.311,0,24.673,9.724,24.673,23.558
			c0,13.596-12.354,20.711-24.673,20.711c-12.709,0-24.083-8.486-24.083-21.817C361.293,49.497,372.866,40.074,385.376,40.074
			L385.376,40.074L385.376,40.074z M385.376,44.636c7.399,0,9.144,8.355,9.144,17.89c0,9.475-1.745,17.853-9.144,17.853
			c-6.56,0-8.549-8.378-8.549-17.853C376.828,52.991,378.816,44.636,385.376,44.636L385.376,44.636L385.376,44.636z"/>
		<path fill="#FFFFFF" d="M245.152,60.768c0-11.958-8.236-21.81-18.92-23.234c-0.799-0.097-1.613-0.133-2.498-0.133
			c-8.057,0-13.521,2.794-16.901,7.339c-0.017,0.012-0.057,0.064-0.074,0.112c0-0.852,0-0.25,0-4.777c-0.228,0,0.357,0-15.52,0
			c0,0,0,1.285,0,64.52h15.52c0,0,0-2.61,0-26.101l0,0c4.356,3.193,9.043,5.032,13.648,5.668c1.045,0.036,2.137,0.079,3.327,0.079
			c11.809,0,21.418-10.468,21.418-23.419V60.768z M215.687,77.209c-3.51,0-6.667-1.972-8.928-4.074c0-7.988,0-13.829,0-21.833
			c7.514-9.573,19.545-4.68,22.108,5.712C231.141,66.202,226.718,77.209,215.687,77.209z"/>
		<g>
			<path fill="#FFFFFF" d="M229.45,61.425c0-0.984-0.169-2.005-0.378-2.943c0.188,1.106,0.304,2.159,0.322,3.271
				C229.415,61.637,229.45,61.491,229.45,61.425z"/>
		</g>
		<path fill="#FFFFFF" d="M398.778,22.234c-0.741-1.252-2.144-2.158-3.792-2.338c-1.638-0.216-3.206,0.253-4.264,1.288
			l-12.89,12.893l1.214,1.488l17.667-6.062c1.105-0.369,2.012-1.27,2.45-2.487C399.745,25.458,399.588,23.582,398.778,22.234z"/>
		<path fill-rule="evenodd" clip-rule="evenodd" fill="#FFFFFF" d="M76.389,45.854c3.834,3.293,1.079,11.16-4.27,11.16
			c-3.784,0-6.915-2.475-6.915-5.831c0-15.171,22.094-14.032,31.493-11.374c8.868,3.133,10.918,7.865,10.918,16.286
			c0,26.765,0,26.765,0,26.765c-17.19,0-17.19,0-17.19,0c0-3.281,0-3.281,0-3.281c-8.464,5.715-28.086,4.395-28.086-8.734
			c0-14.12,18.554-14.829,28.086-10.943c0-4.913-0.896-17.659-7.158-17.659C79.07,42.243,75.04,42.243,76.389,45.854L76.389,45.854z
			 M77.929,63.229c6.023,0,9.843,3.392,9.843,8.035c0,4.475-3.82,8.452-9.843,8.452c-5.811,0-9.595-3.977-9.595-8.452
			C68.334,66.621,72.119,63.229,77.929,63.229L77.929,63.229L77.929,63.229z"/>
	</g>
</g>
</svg>
